SplineFontDB: 3.0
FontName: CoelacanthDisplay
FullName: CoelacanthDisplay
FamilyName: Coelacanth
Weight: Regular

StartChar: a
Encoding: 97 97 0
Width: 385
VWidth: 1159
Flags: HMW
HStem: -18 40<289 347.036> -17 32<66 170.18> 162 24<170.375 244.719> 376 32<142.099 224.5>
VStem: 32 58<23.793 131.62> 49 59<315.642 355.233> 243 63<56.5717 161.987 182.751 271.326> 250 61<145.38 335.214>
AnchorPoint: "Top" 186 489 basechar 0
AnchorPoint: "Ogonek" 339 18 basechar 0
LayerCount: 2
Fore
SplineSet
245 165 m 1x7a
 239 166 234 168 219 168 c 3
 188 168 148.07690366 159.843663061 136 154 c 0
 105 139 90 116 90 80 c 3
 90 43 109 21 141 21 c 3
 167 21 218 35 245 62 c 1
 244 74 243 98.5869 243 122 c 3
 243 138.788 244 153 245 165 c 1x7a
211 414 m 3
 238 414 287.035916536 374.586852143 299 348 c 0
 308 328 311 311 311 254 c 3x75
 311 210 306 174 306 106 c 3
 306 86 307.57417738 66.8946829407 310 58 c 0
 316 36 328 28 339 28 c 3
 348 28 364 33 381 40 c 1
 385 24 l 1
 346.8125 8.57142857143 295.895833333 -12 291 -12 c 3xb2
 287 -12 257 -2 247 44 c 1
 195 13 148 -11 91 -11 c 3
 41 -11 32 23 32 70 c 3x7a
 32 93 38.8470368745 112.388147498 42 125 c 0
 43 129 49.3429689989 135.295917483 54 138 c 0
 116 174 174 182 247 192 c 1
 247 226 250 264 250 278 c 0
 250 304 246.660960058 322.462327193 236 337 c 0
 225 352 194 382 161 382 c 3
 130 382 108 365 108 342 c 3
 108 333 110 328 112 323 c 1
 55 299 l 1
 51 309 49 316 49 326 c 3x75
 49 340 56.1350850373 350.813531864 70 361 c 0
 119 397 186 414 211 414 c 3
EndSplineSet
Validated: 1
Substitution2: "case-1" A
Substitution2: "pcap-1" a.pcap
Substitution2: "smcp-1" a.smcp
EndChar

StartChar: b
Encoding: 98 98 1
Width: 467
VWidth: 1159
Flags: HMW
HStem: -12 29<169.699 271.885> -7 21G<31 45> 370 35<184.53 286.926> 667 7<-12 -5.3772>
VStem: 50 58<53.7357 347.497 352 575.344> 381 65<127.855 267.145>
AnchorPoint: "Top" 77 749 basechar 0
LayerCount: 2
Fore
SplineSet
108 337 m 1xbc
 103 92 l 2
 102.673605329 76.0066611157 109.1509389 69.1898621438 118 62 c 0
 150 36 194 17 238 17 c 3
 324 17 381 81 381 171 c 3
 381 239 340 370 217 370 c 3
 170 370 144 355 108 337 c 1xbc
-14 674 m 1
 32 690 78 717 115 744 c 1
 127 737 l 1
 121 711.88372093 116.965516139 684.910329176 115 657 c 0
 110 586 108 454 108 352 c 1
 144 368 202 405 264 405 c 3
 366 405 446 306 446 215 c 3
 446 82 311 -12 193 -12 c 3xbc
 145 -12 115 10 79 10 c 0
 66.0243902439 10 53.9756097561 4.70588235294 41 -8 c 1x7c
 31 -2 l 1
 35 8 37.9395915408 17.0111548841 40 28 c 0
 46 60 45.6893849586 99.0092025189 47 138 c 0
 51 257 51.819745974 431.012701301 50 522 c 0
 49 572 48.6246387142 597.053901887 44 647 c 0
 43 657.8 37.9248876718 666.160407306 24 665 c 2
 -12 662 l 1
 -14 674 l 1
EndSplineSet
Validated: 33
Substitution2: "case-1" B
Substitution2: "pcap-1" b.pcap
Substitution2: "smcp-1" b.smcp
EndChar

StartChar: c
Encoding: 99 99 2
Width: 405
VWidth: 1159
Flags: HMW
HStem: -5 37<196.003 313.637> 374 47<173.241 297.231>
VStem: 32 61<136.013 275.84>
AnchorPoint: "Top" 233 493 basechar 0
LayerCount: 2
Fore
SplineSet
337 323 m 1
 303 339 250 362 206 362 c 3
 126 362 93 297 93 218 c 3
 93 116 160 20 271 20 c 3
 305 20 344 34 371 52 c 1
 381 40 l 1
 343 13 290 -17 228 -17 c 3
 180 -17 32 3 32 168 c 3
 32 293 144 409 258 409 c 3
 304 409 347 392 385 371 c 1
 357 325 358 321 337 323 c 1
EndSplineSet
Validated: 33
Substitution2: "case-1" C
Substitution2: "pcap-1" c.pcap
Substitution2: "smcp-1" c.smcp
EndChar

StartChar: d
Encoding: 100 100 3
Width: 500
VWidth: 1159
Flags: HMW
HStem: 0 39<178.96 290.797> 373 33<199.285 321.34> 667 18<308.444 329.397> 733 20G<426.5 456>
VStem: 35 52<136.267 271.943> 367 61<11.5684 57 62.6121 342.5> 368 71<11.9114 56.2983 416.973 620.773>
AnchorPoint: "TopRight" 481.5 531 basechar 0
AnchorPoint: "Top" 368 734 basechar 0
LayerCount: 2
Fore
SplineSet
352 57 m 1xfa
 306 31 254 0 186 0 c 3
 85 0 22 81 22 181 c 3
 22 293 99.7022965483 351.669010481 180 387 c 0
 205 398 231 406 258 406 c 3
 295 406 329 395 360 386 c 1
 365 475 366 568 357 653 c 0
 355.609021768 666.137016634 351.95665593 675.295146067 338.746418352 675.295146067 c 3
 326.871199559 675.295146067 308.358898908 671.840218219 297 671 c 1
 293 683 l 5
 336 698.441176471 395 727.264705882 432 753 c 1
 443 747 l 1
 439 721 434.44223859 679.970220968 432 647 c 0
 418 458 415 188 415 155 c 3xfc
 415 107 419.978372313 64.1513938085 426 22 c 0
 427 15 431 10 440 12 c 0
 495 30 l 1
 500 14 l 1
 466 3 382 -30 370 -30 c 3
 360 -30 355.800994957 1.98507565235 355 14 c 0
 354 29 352 42 352 57 c 1xfa
222 373 m 3
 189 373 164.146651741 361.766837569 142 348 c 0
 105 325 74 289 74 231 c 3
 74 128 140 39 240 39 c 3
 284 39 326 56 354 76 c 1
 353 130 356 214.99537047 356 323 c 0
 356 337 351.219380404 343.664508529 340 347 c 0
 303 358 266 373 222 373 c 3
EndSplineSet
Validated: 33
Substitution2: "case-1" D
Substitution2: "pcap-1" d.pcap
Substitution2: "smcp-1" d.smcp
EndChar

StartChar: e
Encoding: 101 101 4
Width: 414
VWidth: 1159
Flags: HMW
HStem: -7.35581 36.779<186.726 300.798> 395.112 21.0166<177.36 243.956>
VStem: 35.7282 64.1006<115.887 236.107 247.996 296.702>
AnchorPoint: "Top" 215.18 491.68 basechar 0
AnchorPoint: "Ogonek" 306.175 23.3447 basechar 0
LayerCount: 2
Fore
SplineSet
220.254882812 401.940429688 m 7
 287.245117188 401.940429688 336.98046875 361.33984375 365.400390625 313.634765625 c 4
 370.474609375 304.5 371.490234375 300.440429688 389.759765625 291.3046875 c 5
 388.745117188 281.155273438 l 5
 292.980032681 263.900390625 192.174476383 243.599609375 98.4248046875 223.299804688 c 5
 98.4248046875 218.224609375 98.4248046875 212.134765625 98.4248046875 207.059570312 c 7
 98.4248046875 110.634765625 152.510513801 28.419921875 247.66015625 28.419921875 c 7
 295.365234375 28.419921875 341.040039062 50.75 372.504882812 71.0498046875 c 5
 379.610351562 60.900390625 l 5
 336.98046875 27.4052734375 271.004882812 -7.10546875 205.030273438 -7.10546875 c 7
 98.455078125 -7.10546875 34.509765625 80.1845703125 34.509765625 187.775390625 c 7
 34.509765625 330.889648438 145.14453125 401.940429688 220.254882812 401.940429688 c 7
188.790039062 381.639648438 m 4
 124.259871756 379.610351562 101.425297322 305.514648438 99.4404296875 239.540039062 c 5
 273.03515625 278.110351562 l 6
 288.703952236 282.169921875 310.248311166 285.21484375 300.455078125 307.544921875 c 4
 283.353347372 345.099609375 241.101841767 382.655273438 188.790039062 381.639648438 c 4
EndSplineSet
Validated: 33
Substitution2: "case-1" E
Substitution2: "pcap-1" e.pcap
Substitution2: "smcp-1" e.smcp
EndChar

StartChar: f
Encoding: 102 102 5
Width: 302
VWidth: 1159
Flags: HMW
HStem: -4 22<18 42 164.811 250> 373 27<20 90 157 307> 707 43<248.897 359.422>
VStem: 90 66<24.4249 373 400 587.19>
AnchorPoint: "Top" 252 748 basechar 0
LayerCount: 2
Fore
SplineSet
328 750 m 7
 361 750 392 741 422 727 c 5
 437 711 407 676 400 672 c 5
 352 687 311 707 272 707 c 7
 186 707 170.824779995 604.160127661 162 535 c 4
 156 486.955555556 156 443.088888888 156 394 c 5
 307 394 l 5
 307 366 l 5
 157 371 l 5
 157 307.663212435 156 243.336787565 156 180 c 4
 156 132.666666667 158.914206116 82.6579234213 163 38 c 4
 164.350820509 21.5302673494 183.976203958 17.1 205 16 c 4
 210.993224165 15.4298627942 240 14 250 12 c 5
 250 -2 l 5
 217 -2 172 2 139 2 c 7
 100 2 47 -2 18 -4 c 5
 18 11 l 5
 42 14 l 4
 84 20.1714285714 87.3224767817 42.7933764797 88 86 c 4
 89 148 90 210 90 273 c 4
 90 303.38 90 340.62 90 371 c 5
 67 370 41 368 20 367 c 5
 20 394 l 5
 91 394 l 5
 92 453.1375 93.1413711931 509.130987994 104 560 c 4
 119 629 156.700692095 663.065235131 205 700 c 4
 239 726 274 750 328 750 c 7
EndSplineSet
Validated: 33
Substitution2: "salt-1" f.alt
Substitution2: "case-1" F
Substitution2: "pcap-1" f.pcap
Substitution2: "smcp-1" f.smcp
EndChar

StartChar: g
Encoding: 103 103 6
Width: 447
VWidth: 1159
Flags: HMW
HStem: -323 40<110.064 270.233> -89 55<147.956 371.536> 347 43<358.789 436.304> 390 26<167.45 250.397>
VStem: 18.7773 34<-229.937 -152.098> 40.7773 49<187.132 309.988> 61.7773 68<-23.4815 21.1121> 324.777 60<161.777 315.908> 392.777 46<-204.458 -109.454>
AnchorPoint: "Top" 212.777 483 basechar 0
LayerCount: 2
Fore
SplineSet
129.777 2 m 3xe380
 129.777 -31 192.777 -34 222.777 -34 c 3
 247.777 -34 270.777 -32 295.777 -32 c 3
 371.777 -32 438.777 -64 438.777 -140 c 3
 438.777 -256 258.777 -323 163.777 -323 c 3
 88.7773 -323 18.7773 -285 18.7773 -209 c 3
 18.7773 -146 77.7773 -97 120.777 -71 c 1
 95.7773 -61 61.7773 -24 61.7773 2 c 3xeb80
 61.7773 17 93.7773 23 172.777 64 c 1
 103.777 85 40.7773 147 40.7773 228 c 3
 40.7773 330 136.777 416 228.777 416 c 3xd580
 267.777 416 303.777 401 331.777 380 c 1
 352.777 385 376.777 390 402.777 390 c 3
 414.777 390 441.777 390 451.777 386 c 1
 453.777 364 441.777 341 436.777 335 c 1
 426.777 339 410.777 342 400.777 343 c 0
 386.777 345 372.777 347 357.777 347 c 1
 372.777 315 384.777 282 384.777 239 c 3
 384.777 137 299.777 101 229.777 69 c 0
 166.777 39 129.777 22 129.777 2 c 3xe380
200.777 390 m 3xd580
 134.777 390 89.7773 334 89.7773 266 c 0
 89.7773 177 163.777 109 237.777 92 c 1
 287.777 107 324.777 150 324.777 214 c 3
 324.777 294 286.777 390 200.777 390 c 3xd580
52.7773 -183 m 3xc980
 52.7773 -253 134.777 -283 202.777 -283 c 3
 265.777 -283 392.777 -251 392.777 -170 c 3
 392.777 -93 335.777 -87 298.777 -87 c 3
 278.777 -87 259.777 -89 238.777 -89 c 3
 206.777 -89 171.777 -86 146.777 -81 c 1
 104.777 -98 52.7773 -133 52.7773 -183 c 3xc980
EndSplineSet
Validated: 33
Substitution2: "case-1" G
Substitution2: "pcap-1" g.pcap
Substitution2: "smcp-1" g.smcp
EndChar

StartChar: h
Encoding: 104 104 7
Width: 482
VWidth: 1159
Flags: HMW
HStem: -4 14<303.5 329> 0 14<3 27 162.375 200 462.818 493> 360 46<216.849 322.91>
VStem: 57 68<52.802 293.893> 68 74<446.97 682.339> 359 64<25.1175 318.505>
AnchorPoint: "Top" 90 733 basechar 0
LayerCount: 2
Fore
SplineSet
130 328 m 1xac
 126 255 125 185 125 111 c 3
 125 92.6949152542 122.150257836 68.3238397367 126 51 c 0
 130 31.8 139 23.2666666667 157 19 c 0
 200 12 l 1
 200 -2 l 1
 173 0 140 0 114 0 c 3
 78 0 34 -1 3 -2 c 1
 2 10 l 1
 27 17 l 0
 48 23.4186046512 55.8790165049 35.1913259858 57 63 c 0x74
 64 225.326612903 68 390.659274194 68 560 c 3
 68 586 68 609.980007994 68 635 c 0
 68 657 63 683 40 683 c 3
 27.4 683 14.8 674.818181818 4 673 c 1
 0 687 l 1
 69.0413793103 716.583333333 98.2137931034 724.472222222 141 758 c 1
 155 749 l 1
 149 731 143.13463159 703.992015206 142 686 c 0
 135 575 131 460 130 344 c 1
 178 371 257 406 307 406 c 3
 364 406 406.936107071 364.135214812 415 305 c 0
 421 261 423 207 423 157 c 3
 423 120 420 86 420 50 c 0
 420 28.24 431 21.6266666667 445 18 c 4
 480 11 l 5
 480 -2 l 1
 456.988636364 -1 428.011363636 0 405 0 c 3x6c
 373 0 337 -2 305 -4 c 1
 302 8 l 1
 329 15 l 0
 343 19.3076923077 347.733033251 26.8870978771 350 43 c 0
 355 76 359 111 359 145 c 3
 359 188 355.67087499 228.962125091 351 271 c 0
 345 325 321 360 259 360 c 3
 209 360 164 348 130 328 c 1xac
EndSplineSet
Validated: 33
Substitution2: "case-1" H
Substitution2: "pcap-1" h.pcap
Substitution2: "smcp-1" h.smcp
EndChar

StartChar: k
Encoding: 107 107 10
Width: 475
VWidth: 1159
Flags: HMW
HStem: -1 16<-1 18.8 151.504 188 284 322.093 442.358 475> 387 14<230 254.764 398.379 429> 733 20G<113 145>
VStem: 65 73<449.539 675.703> 68 59<25.5973 213 240 463.75>
AnchorPoint: "Top" 113 739 basechar 0
LayerCount: 2
Fore
SplineSet
127 236 m 1xe8
 171 256.543945312 213.901936589 289.902762195 251 326 c 0
 260.122070312 334.875976562 269 349 269 356 c 3
 269 364.280273438 260 375.3203125 230 379 c 1
 230 393 l 1
 267 393 309 391 346 391 c 3
 372 391 403 393 429 393 c 1
 429 379 l 1
 371 374 332.901337445 349.128949846 299 326 c 2
 192 253 l 1
 268 174.708984375 346.472007363 103.161108639 426 32 c 0
 437.61259144 21.6091319087 439 18.7368421053 475 11 c 1
 475 -3 l 1
 443 -2 402 0 368 0 c 3
 341 0 311 -1 284 -2 c 1
 283 11 l 1
 303 13.2666666667 325 12.1333333333 325 28 c 3
 325 32.9482421875 317 47.79296875 142 219 c 1
 127 209 l 1
 126 148.467773438 128.71875 81.9921875 132 44 c 0
 133.099343057 31.2711778877 136.992110445 26.6925042035 146 22 c 0
 155.213867188 17.2001953125 168.5234375 14.7998046875 189 10 c 1
 188 -2 l 1
 168.302734375 -2 142.697265625 1 123 1 c 3
 84.943359375 1 40.056640625 1 2 -2 c 1
 2 11 l 1
 32 18 l 2
 53.0554013692 22.9129269861 60.7523556068 35.8013522289 62 63 c 0
 67 172 68 281 68 390 c 3xe8
 68 467 68.0718723242 545.035635222 65 622 c 0
 64 647.054545455 62 675 35 675 c 3
 23 675 11 670.555555556 0 667 c 5
 -4 679 l 1
 44 702 91 719 135 753 c 1
 145 748 l 1
 141 727 139.73181874 702.950162899 138 683 c 0xf0
 126 544.762695312 129 380.291015625 127 236 c 1xe8
EndSplineSet
Validated: 33
Substitution2: "case-1" K
Substitution2: "pcap-1" k.pcap
Substitution2: "smcp-1" k.smcp
EndChar

StartChar: l
Encoding: 108 108 11
Width: 241
VWidth: 1159
Flags: HMW
HStem: -2 14<4.25 23 211.375 237> 667 16<21 38.9013> 733 20G<140.5 168>
VStem: 87 63<43.9746 563.918>
AnchorPoint: "Top" 113 734 basechar 0
AnchorPoint: "TopRight" 234 531 basechar 0
LayerCount: 2
Fore
SplineSet
150 274 m 3
 150 206 150.155184509 140.004589498 152 75 c 0
 153 39.7636363636 165.040644935 23.2857435476 196 18 c 2
 237 11 l 1
 237 -3 l 1
 215 -3 171 0 140 0 c 3
 97 0 47 -0.666666666667 5 -2 c 1
 2 11 l 1
 23 16 l 2
 61.6516636631 25.2027770626 80.6106416608 53.0181540462 83 102 c 0
 87 184 87 311 87 338 c 3
 87 495 89.413985247 594.076577453 82 633 c 0
 77.6589308644 655.790612962 63 670 43 670 c 3
 33.5909090909 670 20 670 20 670 c 5
 17 683 l 1
 69 700 121 727 160 753 c 1
 168 747 l 1
 162 730 158.585547668 710.949449441 157 696 c 0
 150 630 150 414 150 274 c 3
EndSplineSet
Validated: 33
Substitution2: "case-1" L
Substitution2: "pcap-1" l.pcap
Substitution2: "smcp-1" l.smcp
EndChar

StartChar: m
Encoding: 109 109 12
Width: 775
VWidth: 1159
Flags: HMW
HStem: -1 13<570 590 736.3 778> -1 11<7 20.6944 184 212 291 311 458 484> 341 11<4 21.8082> 348 38<491.719 641.186> 355 41<239.584 326.073> 385 20G<113.5 145>
VStem: 81 61<44.1758 322.94> 359 65<23.7993 292.25> 634 62<26.0615 303.999>
AnchorPoint: "Top" 383 472 basechar 0
LayerCount: 2
Back
SplineSet
696 113 m 7x1380
 696 87 698 63 700 38 c 4
 701 27 707 23 718 22 c 6
 779 17 l 5
 778 0 l 5
 746 0 709 1 677 1 c 4
 644 1 603 0 570 -1 c 5
 569 12 l 5
 590 16 l 6
 616 20 621 36 625 62 c 4
 630 104 634 144 634 188 c 7
 634 224 632 259 621 287 c 4
 607 324 581 348 533 348 c 7x9380
 489 348 452 333 416 317 c 5
 420 301 421 285 421 269 c 7
 421 237 422 205 422 173 c 4
 423 130 424 87 424 43 c 4
 424 21 440 18 458 14 c 6
 485 10 l 5
 484 -1 l 5
 470 -1 450 -1 436 -1 c 4
 388 -1 338 -2 291 -4 c 5
 290 10 l 5
 311 14 l 6
 343 19 354 35 356 71 c 4
 357 97 359 125 359 151 c 7
 359 200 360 249 350 293 c 4
 343 327 315 355 269 355 c 7x4b80
 227 355 176 332 142 312 c 5
 142 228 142 144 142 60 c 4
 142 37 148 26 168 21 c 6
 212 10 l 5
 212 -2 l 5
 176 -1 140 1 103 1 c 4
 71 1 39 1 7 0 c 5
 6 10 l 5
 15 12 33 21 40 26 c 4
 60 40 73 59 77 89 c 4
 79 114 81 137 81 162 c 7
 81 200 82 240 77 277 c 4
 70 332 40 342 22 342 c 7
 18 342 8 341 4 341 c 5
 3 352 l 5
 52 362 98 384 129 405 c 5x6780
 145 399 l 5
 144 379 142 362 142 328 c 5
 190 354 269 396 319 396 c 7x0b80
 366 396 400 368 414 332 c 5
 463 360 528 386 592 386 c 7
 690 386 698 307 698 220 c 7
 698 184 696 149 696 113 c 7x1380
EndSplineSet
Fore
SplineSet
696 113 m 3x1380
 696 87 697.729404137 62.9765544955 700 38 c 0
 701 27 707.260839161 24.3864801865 718 22 c 2
 772 10 l 1
 771 -2 l 1
 754.217821782 -2 706.782178218 1 677 1 c 0
 644 1 603 -0.5 570 -2 c 1
 569 11 l 1
 590 14 l 2
 616.023377647 17.7176253782 621.757037052 34.7591112339 625 62 c 0
 630 104 634 144 634 188 c 3
 634 224 631.646345847 258.863228834 621 287 c 0
 607 324 581 348 533 348 c 3x9380
 489 348 452 333 416 317 c 1
 420 301 421 285 421 269 c 3
 421 237 421.256018264 204.991214633 422 173 c 0
 423 130 424 87 424 43 c 0
 424 21 439.927286244 17.3467988437 458 14 c 2
 485 9 l 1
 484 -3 l 1
 458.333333333 -1 421.666666667 1 396 1 c 3
 361.24137931 1 325.034482759 -0.333333333333 291 -3 c 1
 290 9 l 1
 311 13 l 2
 342.818308507 19.0606301919 354.589982147 34.3395358277 356 71 c 0
 357 97 359 125 359 151 c 3
 359 200 359.099018575 248.80476692 350 293 c 0
 343 327 315 355 269 355 c 3x4b80
 227 355 176 332 142 312 c 1
 142 228 142 144 142 60 c 0
 142 36.4102564103 148.082840237 25.4319526627 168 20 c 2
 212 8 l 1
 211 -3 l 1
 175.330275229 -1.66666666667 139.660550459 1 103 1 c 3
 71 1 39 1 7 -3 c 1
 6 9 l 1
 18.4412866709 11.25 43.6878434211 19.9312889831 53 27 c 0
 67.552794208 38.0467962898 73.6701332168 59.3868016507 77 89 c 0
 79.9930615483 113.90063418 81 137 81 162 c 3
 81 200 81.7138147695 239.962883954 77 277 c 0
 70 330.307692308 40 340 22 340 c 3
 18 340 8 339 4 339 c 1
 3 352 l 1
 52 362 98 384 129 405 c 1x6780
 145 399 l 1
 144 379 142 362 142 328 c 1
 190 354 269 396 319 396 c 3x0b80
 366 396 400 368 414 332 c 1
 463 360 528 386 592 386 c 3
 690 386 698 307 698 220 c 3
 698 184 696 149 696 113 c 3x1380
EndSplineSet
Validated: 33
Substitution2: "case-1" M
Substitution2: "pcap-1" m.pcap
Substitution2: "smcp-1" m.smcp
EndChar

StartChar: n
Encoding: 110 110 13
Width: 485
VWidth: 1159
Flags: HMW
HStem: -10 16<188.625 212.375> -4 15<12 36.0376> 338 11<13 27.6289> 344 45<229.607 336.126> 379 20G<115 141>
VStem: 79 60<30.6838 318.111 320 325.711> 369 63<26.9973 308.316>
AnchorPoint: "Top" 247 491 basechar 0
LayerCount: 2
Fore
SplineSet
65 306 m 0x46
 61 327 50 350 30 350 c 2
 6 350 l 1
 6 361 l 1
 44 373 91 394 125 411 c 1x6e
 134 406 l 1
 135 332 l 1
 182 363 254 401 313 401 c 3
 382 401 415.811776106 359.988323063 420 294 c 0
 424 230.977272727 425 170.090909091 425 106 c 3
 425 86 425 68 425 48 c 0
 425 29.2 437.378677418 18.8187634412 458 15 c 2
 485 10 l 1
 484 -3 l 1
 457.296703297 -0.777777777777 421.692307692 1 394 1 c 3
 362.704761905 1 319.295238095 -1.72727272727 288 -5 c 1
 286 7 l 1
 324 16 l 2
 347.887688746 21.6576104924 352.983760966 41.3457291798 356 70 c 0
 360 108 362 143.764705882 362 184 c 3
 362 241 363 301 333 331 c 0
 316 348 291 356 259 356 c 3
 213 356 168 336.085714286 136 315 c 1
 135 231.032 132 142.968 132 59 c 0
 132 32.2444444444 143.852212563 19.5611980672 167 16 c 2
 206 10 l 1
 205 -4 l 1x96
 175 -1.22222222222 138 1 105 1 c 3
 73 1 37 -1 5 -2 c 1
 2 10 l 1
 16 11.6666666667 31.7966397574 16.9185625629 39 20 c 0
 59 28.5555555556 66.496650288 48.4655467286 68 77 c 0
 70 114.961165049 72 154.038834951 72 192 c 3
 72 233 71.4952431676 271.89997337 65 306 c 0x46
EndSplineSet
Substitution2: "case-1" N
Substitution2: "pcap-1" n.pcap
Substitution2: "smcp-1" n.smcp
EndChar

StartChar: o
Encoding: 111 111 14
Width: 492
VWidth: 1159
Flags: W
HStem: -10 21<213.737 312.228> 388 23<183.876 282.08>
VStem: 28 65<130.362 287.127> 399 65<108.357 276.92>
AnchorPoint: "Top" 251 492 basechar 0
AnchorPoint: "Horn" 420.5 341.8 basechar 0
AnchorPoint: "Ogonek" 341 19.6582 basechar 0
LayerCount: 2
Fore
SplineSet
256 411 m 3
 373 411 464 322 464 203 c 3
 464 81 374 -10 253 -10 c 3
 132 -10 28 80 28 199 c 3
 28 315 133 411 256 411 c 3
230 388 m 3
 164 388 93 330 93 228 c 3
 93 131 159 11 264 11 c 3
 351 11 399 97 399 181 c 3
 399 281 326 388 230 388 c 3
EndSplineSet
Validated: 1
Substitution2: "case-1" O
Substitution2: "pcap-1" o.pcap
Substitution2: "smcp-1" o.smcp
EndChar

StartChar: p
Encoding: 112 112 15
Width: 503
VWidth: 1159
Flags: HMW
HStem: -347 15<17 49.6684> -337 18<153.33 228> -7 29<195.26 316.269> 367 36<218.052 309.547>
VStem: 85 59<-184.603 10 47.4573 340.936> 416 61<124.101 253.463>
AnchorPoint: "Top" 233 497 basechar 0
LayerCount: 2
Fore
SplineSet
85 36 m 0xbc
 85 123 83.0727899727 206.961880763 80 293 c 0
 79 321 72 348 42 348 c 3
 26.6341463415 348 12.2926829268 340.8 0 336 c 1
 -6 346 l 1
 21 362 95 397 132 427 c 1
 141 427 144 366 144 352 c 1
 187 374 248 403 300 403 c 3
 396 403 477 295 477 209 c 3
 477 90 362 -7 234 -7 c 3
 201 -7 171 1 144 10 c 1
 142 -272 l 2
 141.787244744 -301.998491097 148.181593461 -315.963953977 175 -319 c 2
 228 -325 l 1
 228 -339 l 1
 208 -339 178 -337 158 -337 c 0x7c
 108 -337 64 -342 17 -347 c 1
 17 -334 l 1
 35 -331 l 2
 60.8970775654 -326.683820406 67.5814234797 -310.467309645 73 -285 c 0
 83 -238 85 -67 85 36 c 0xbc
249 367 m 3
 211 367 175 351 144 336 c 1
 143 57 l 1
 182 40 226 22 278 22 c 3
 359 22 416 80 416 164 c 3
 416 257 341 367 249 367 c 3
EndSplineSet
Validated: 33
Substitution2: "case-1" P
Substitution2: "pcap-1" p.pcap
Substitution2: "smcp-1" p.smcp
EndChar

StartChar: q
Encoding: 113 113 16
Width: 479
VWidth: 1159
Flags: HMW
HStem: -346 15<287 319> -338 16<435.085 499> -10 28<197.81 299.84> 380 32<199.547 320.077>
VStem: 31 64<113.259 268.403> 359 64<-318.836 32 36.2909 353.767>
AnchorPoint: "Top" 263 503 basechar 0
LayerCount: 2
Fore
SplineSet
363 52 m 1x3c
 364 134 362.809965499 214.99072452 359 295 c 0
 358 316 357.74128182 334.74722857 347 346 c 0
 326 368 281 380 245 380 c 3
 149 380 95 305 95 209 c 3
 95 102 162 18 263 18 c 3
 299 18 335 31 363 52 c 1x3c
363 32 m 1
 324 10 276 -10 218 -10 c 3
 107 -10 31 80 31 182 c 3
 31 314 164 412 285 412 c 3
 350 412 380 385 391 385 c 3
 402 385 426 410 433 421 c 1
 445 415 l 1
 441 406 438.224903099 396.674709298 435 387 c 0
 426 360 421.775368216 328.999186127 422 298 c 0
 423 160 424 24 424 -114 c 0
 424 -172 423 -229 423 -287 c 0
 423 -317 444 -320 472 -322 c 0
 476.987293499 -322.35623525 494 -322 499 -324 c 1
 501 -338 l 1
 497 -338 481 -338 477 -338 c 0x7c
 414 -338 346 -342 287 -346 c 1
 287 -333 l 1xbc
 319 -327 l 2
 352.764261931 -320.669200888 358.42627548 -299.595027735 359 -258 c 2
 363 32 l 1
EndSplineSet
Validated: 33
Substitution2: "case-1" Q
Substitution2: "pcap-1" q.pcap
Substitution2: "smcp-1" q.smcp
EndChar

StartChar: r
Encoding: 114 114 17
Width: 351
VWidth: 1159
Flags: HMW
HStem: -6 12<28 52.1111> -5 23<155.453 263> 395 20G<286 308.5> 402 20G<130 147>
VStem: 87 64<18.0803 323.88>
AnchorPoint: "Top" 150.5 526 basechar 0
LayerCount: 2
Fore
SplineSet
151 199 m 0x28
 151 146 149.471983184 94.9202522419 153 42 c 0
 154 27 159.016116419 19.2045746092 173 18 c 0
 201.281060997 15.5638635862 232 14.2 263 12 c 1
 264 -2 l 1
 214 0 161 0 108 0 c 3x68
 81 0 43 -2 28 -3 c 1
 28 9 l 1
 59 18 l 2
 70.2159309021 21.2562380038 73.9597510066 27.0058089178 76 41 c 0
 83 89.0134228188 87 135.067114094 87 187 c 0
 87 228 85.1678532349 268.817907947 80 310 c 0
 78.3765705927 322.936942334 66 338 45 338 c 3
 38 338 26 336 19 336 c 1
 17 346 l 1
 45 361 116 401 144 422 c 1x98
 150 422 151.061718988 417.999238037 151 413 c 2
 150 332 l 1
 182 350 283 414 289 415 c 1
 328 392 338 381 338 364 c 0
 338 341 307 321 281 316 c 1
 275 336 273 354 243 354 c 3
 221 354 152 325 152 293 c 3
 152 262 151 230 151 199 c 0x28
EndSplineSet
Substitution2: "case-1" R
Substitution2: "pcap-1" r.pcap
Substitution2: "smcp-1" r.smcp
EndChar

StartChar: s
Encoding: 115 115 18
Width: 341
VWidth: 1159
Flags: HMW
HStem: -12 24<117.158 219.742> 375 22<139.721 212.745>
VStem: 27 12<99.8773 105.5> 47 55<268.488 340.402> 256 56<45.0788 127.078> 278 10<304.6 311.805>
AnchorPoint: "Top" 180.5 500 basechar 0
LayerCount: 2
Fore
SplineSet
39 108 m 1xf8
 82 45 106 12 176 12 c 3
 218 12 256 33 256 76 c 3xf8
 256 124 205 159 169 176 c 0
 121 199 47 215 47 285 c 3
 47 353.357142857 129 401 203 401 c 3
 229 401 252 398 274 394 c 1
 288 310 l 1
 278 308 l 1xf4
 260 341 216 379 167 379 c 3
 131 379 102 352 102 318 c 3
 102 284 130 261 156 251 c 0
 233 220.172413793 312 183.179310345 312 102 c 3
 312 28 224 -12 148 -12 c 3
 109 -12 78 -3 48 9 c 1
 47 23 44 36 42 50 c 0
 38 70 32 87 27 102 c 1
 39 108 l 1xf8
EndSplineSet
Validated: 1
Substitution2: "case-1" S
Substitution2: "pcap-1" s.pcap
Substitution2: "smcp-1" s.smcp
EndChar

StartChar: t
Encoding: 116 116 19
Width: 346
VWidth: 1159
Flags: HMW
HStem: -6 40<169.156 248.814> 364 28<149 310> 364 9<30 34.6045>
VStem: 81 65<56.2268 364> 151 10<471.112 477.4>
AnchorPoint: "Top" 145.5 500 basechar 0
AnchorPoint: "TopRight" 313 531 basechar 0
LayerCount: 2
Fore
SplineSet
27 373 m 1xb8
 82 400 117 428 151 478 c 1
 161 476 l 1
 149 390 l 1
 310 396 l 1
 310 364 l 1
 149 364 l 1xd8
 144 284 142.58223623 200.026330473 146 118 c 0
 148 68.8571428571 171 32 221 32 c 3
 258 32 287 47.3103448276 317 63 c 1
 323 52 l 1
 287 29 218 -6 172 -6 c 3
 112 -6 81 35 81 95 c 0
 81 185 85 274 86 364 c 1
 30 364 l 1
 27 373 l 1xb8
EndSplineSet
Validated: 33
Substitution2: "case-1" T
Substitution2: "pcap-1" t.pcap
Substitution2: "smcp-1" t.smcp
EndChar

StartChar: u
Encoding: 117 117 20
Width: 512
VWidth: 1159
Flags: HMW
HStem: -4 43<170.512 261.959> 26 15<478.103 499.867> 347 12<15 28.3301> 360 18<297 345.329> 387 26G<122 151 410.5 436>
VStem: 71 67<72.8435 345.445> 356 67<71.5641 319.205> 363 73<165.286 357.317>
AnchorPoint: "Top" 264 497 basechar 0
AnchorPoint: "Horn" 434.5 333 basechar 0
AnchorPoint: "Ogonek" 391.65 -3 basechar 0
LayerCount: 2
Fore
SplineSet
297 378 m 1xbd
 340 385 390 396 431 407 c 1
 436 402 l 1xbd
 432 315.045898438 423 222.9765625 423 135 c 0
 423 98 426.395654227 65.230420413 431 33 c 0xbe
 432 26 434.967402041 22.1600263417 444 24 c 2
 498 35 l 1
 502 20 l 1x7e
 464.633333333 8.7027027027 417.249012333 -18 384 -18 c 0
 383 -18 383 -18 383 -18 c 0
 360.714285714 -18 357.285714286 44 356 59 c 1
 306 29 232 -10 173 -10 c 3
 125 -10 97.3454907008 13.1362732479 83 49 c 0
 73 74 71 105 71 138 c 0
 71 192.012695312 74 244.987304688 74 299 c 0
 74 327 68 349 40 349 c 0
 33 349 22 347 15 347 c 1
 12 359 l 1
 55 373 103 393 141 413 c 1
 151 408 l 1
 146 346.19140625 138 270.990234375 138 203 c 0
 138 118 141 33 227 33 c 0
 279 33 322 57 356 79 c 1xbe
 360 157.999623784 363 236.000024013 363 317 c 3
 363 361 339 363.27027027 296 364 c 1
 297 378 l 1xbd
EndSplineSet
Validated: 1
Substitution2: "case-1" U
Substitution2: "pcap-1" u.pcap
Substitution2: "smcp-1" u.smcp
EndChar

StartChar: v
Encoding: 118 118 21
Width: 405
VWidth: 1159
Flags: HMW
HStem: 379 11<155.5 183.286> 383 14<264 293.34>
AnchorPoint: "Top" 193 494 basechar 0
LayerCount: 2
Fore
SplineSet
405 387 m 1x40
 366 366 356 345 344 314 c 0
 317 246.683417085 286 182.336683417 256 117 c 0
 236 74 211 12 199 -25 c 1
 186 -25 l 1
 147 104.026737968 99 237.085561497 45 352 c 0
 40 362 35 368 25 372 c 2
 0 382 l 1
 1 393 l 1x80
 21 393 45 390 65 390 c 0
 103 390 146 392 183 396 c 1
 184 384 l 1
 146 376 l 2
 135 374 127 368 127 356 c 0
 127 354 128 349 128 347 c 0
 148 248.637037037 183 162.318518519 216 76 c 1
 254 152.371428571 296 227.751020408 317 319 c 0
 318 325 320 332 320 339 c 0
 320 372 291 376 263 381 c 1
 264 395 l 1
 285 394 312 392 334 392 c 0
 356 392 382 394 403 395 c 1
 405 387 l 1x40
EndSplineSet
Validated: 1
Substitution2: "case-1" V
Substitution2: "pcap-1" v.pcap
Substitution2: "smcp-1" v.smcp
EndChar

StartChar: w
Encoding: 119 119 22
Width: 645
VWidth: 1159
Flags: HMW
HStem: 371 15<-1 31.5327> 378 13<242 270.92> 389 11<411.766 427.091 512.2 519.347>
AnchorPoint: "Top" 303 498 basechar 0
LayerCount: 2
Fore
SplineSet
645 383 m 1xa0
 615 369.269230769 609.750526167 356.156044907 597 332 c 0
 563 267.586538462 524.716396726 198.894120279 492 129 c 0
 470 82 450.213203436 32.6690475585 429 -14 c 0
 424 -25 412.831922093 -17.0458542028 411 -10 c 0
 385 90 354 189 321 282 c 1
 294 228 267.815043896 173.088663402 242 119 c 0
 221 75 200.861904047 32.5857121414 181 -15 c 0
 178.563871108 -20.8365465834 164.904069217 -24.0091287758 164 -14 c 0
 158 52.427184466 100.265528002 202.84134469 71 297 c 0
 57 342.043478261 45.6297865849 360.831746516 32 371 c 0
 22 378.46031746 14 378.142857143 -2 381 c 1
 -1 395 l 1
 25 393 52.9214674638 391 85 391 c 3xa0
 115.01666204 391 145 393 176 398 c 1
 177 383 l 1
 170 383 150.053822261 379.859806592 145 378 c 0
 135 374.32 127 367.88 127 355 c 0
 127 351 128.070164341 345.016890047 129 341 c 0
 150 250.28 175 170.648 206 89 c 1
 312 312 l 1
 303 338 l 2
 297.416009038 354.131529446 285.695052042 363.228710968 274 372 c 0
 268 376.5 252 379.875 242 381 c 1
 241 394 l 1x40
 255.142857143 394 279.562833082 391 295 391 c 3
 338.972027972 391 385.692307692 393.4 426 397 c 1
 428 384 l 1
 414 380.388888889 388.601812402 378.067874935 378 371 c 0
 372 367 367 362 367 352 c 0
 367 347 367.923065231 342.979976319 369 339 c 0
 392 254 418 173 448 92 c 1
 485 164.384279476 518.847060294 235.617650735 551 316 c 0
 555 326 559 336 559 348 c 0
 559 373 542 375 511 380 c 1
 513 396 l 1
 536 392 565 391 588 391 c 3
 605 391 625 394 642 394 c 1
 645 383 l 1xa0
EndSplineSet
Validated: 1
Substitution2: "case-1" W
Substitution2: "pcap-1" w.pcap
Substitution2: "smcp-1" w.smcp
EndChar

StartChar: x
Encoding: 120 120 23
Width: 421
VWidth: 1159
Flags: W
HStem: -3 16<8.5625 29.3824 113.098 152 230 266.517 363.547 411> 378 14<16 60.9259 168.479 198 259 299.977>
AnchorPoint: "Top" 201 494 basechar 0
LayerCount: 2
Fore
SplineSet
8 13 m 1
 40 23.5 45.9775390625 28.275390625 51 34 c 2
 187 189 l 1
 164 236.053710938 139.639648438 281.548828125 109 323 c 0
 78 364 73 377 16 378 c 1
 15 393 l 1
 31 392 52 392 68 392 c 3
 111 392 156 393.5 198 395 c 1
 198 381 l 1
 187 380 168 380 168 368 c 0
 168 363 169.342773438 360.775390625 171 357 c 0
 189 314.958007812 209 275.991210938 229 236 c 1
 292 312 l 2
 301.0703125 322.94140625 312 336 312 353 c 0
 312 378 277 375 259 379 c 1
 259 395 l 1
 280 394 307 392 328 392 c 3
 355 392 388 394 414 396 c 1
 414 381 l 1
 377 371.454101562 364.325195312 354.874023438 350 339 c 0
 313 298 277 258 241 216 c 1
 273 157 305.642578125 100.791015625 339 44 c 0
 352.813476562 20.482421875 360.70703125 18.3447265625 413 13 c 1
 411 -2 l 1
 381 -1.599609375 345 0 313 0 c 3
 287 0 256 -3 230 -3 c 1
 228 11 l 1
 238 13 269 14 269 26 c 0
 269 28 267.790039062 29.908203125 267 32 c 0
 249 79.64453125 224 124.311523438 198 166 c 1
 166 134.603515625 138.90234375 99.353515625 114 62 c 0
 110 56 104 48 104 38 c 0
 104 17 124 16 152 12 c 1
 153 -3 l 1
 133 -3 106 0 86 0 c 3
 61 0 32 -1.5 9 -3 c 1
 8 13 l 1
EndSplineSet
Validated: 1
Substitution2: "case-1" X
Substitution2: "pcap-1" x.pcap
Substitution2: "smcp-1" x.smcp
EndChar

StartChar: y
Encoding: 121 121 24
Width: 441
VWidth: 1159
Flags: HMW
HStem: 381 11<-1 20 158 179 420.98 437> 384 16<273.812 305.84>
AnchorPoint: "Top" 208.5 485.3 basechar 0
LayerCount: 2
Back
SplineSet
93 -343 m 5x80
 93 -343 51 -342 45 -342 c 4
 30 -342 11 -342 -4 -343 c 5
 -6 -335 l 5
 78 -288 66 -282 179 -34 c 5
 149 80 112 196 71 304 c 4
 55 347 41 373 20 378 c 6
 -1 381 l 5
 -1 392 l 5x80
 20 392 47 391 68 391 c 4
 104 391 145 393 179 395 c 5
 179 383 l 5
 158 379 l 6
 142 377 135 372 135 352 c 4
 135 341 138 328 140 317 c 4
 163 225 187 138 217 49 c 5
 264 126 303 208 335 298 c 4
 339 309 345 320 345 335 c 4
 345 368 312 377 271 384 c 5
 276 400 l 5x40
 306 394 343 389 376 389 c 4
 394 389 419 392 437 392 c 5
 441 381 l 5
 416 376 406 375 379 322 c 4
 330 224 280 126 232 28 c 4
 178 -83 124 -200 93 -343 c 5x80
EndSplineSet
Fore
SplineSet
93 -343 m 1x80
 93 -343 51 -342 45 -342 c 0
 30 -342 11 -342 -4 -343 c 1
 -6 -329 l 1
 78 -297.936877076 66 -277.056478405 179 -34 c 1
 149 80 111.285914032 195.73160604 71 304 c 0
 55 347 41.28 374.96 20 378 c 2
 -1 381 l 1
 -1 392 l 1x80
 20 392 47 391 68 391 c 0
 104 391 145 393 179 395 c 1
 179 383 l 1
 158 379 l 2
 142.192560175 375.989059081 135 372 135 352 c 0
 135 341 137.288369277 327.846522891 140 317 c 0
 163 225 187 138 217 49 c 1
 264 126 302.35682855 208.231278512 335 298 c 0
 339 309 345 320 345 335 c 0
 345 368 312 377 271 384 c 1
 276 400 l 1x40
 306 394 343 389 376 389 c 0
 394 389 419 392 437 392 c 1
 441 381 l 1
 416 376 405.600751869 375.201503738 379 322 c 0
 330 224 279.737914141 126.127934623 232 28 c 0
 178 -83 124 -200 93 -343 c 1x80
EndSplineSet
Substitution2: "case-1" Y
Substitution2: "pcap-1" y.pcap
Substitution2: "smcp-1" y.smcp
EndChar

StartChar: z
Encoding: 122 122 25
Width: 441
VWidth: 1159
Flags: HMW
HStem: 1 24<125 203.889 257.601 340.965> 374 20<92.9061 311> 383 20G<36 62 380.5 419>
VStem: 418 15<101.5 122>
AnchorPoint: "Top" 213.5 500 basechar 0
LayerCount: 2
Fore
SplineSet
360 -1 m 0xd0
 291 1 218 2 147 0 c 0
 104 -1 59 -4 18 -6 c 1
 16 6 l 1
 122 116.090163934 225 241.057377049 311 369 c 1
 290 370 270 370 249 370 c 0xd0
 196 370 148 367 98 361 c 0
 60 356 38 337 21 300 c 1
 8 310 l 1
 20 335 35 368 37 399 c 1xb0
 87 393 143 390 198 390 c 3
 272 390 345 393 416 397 c 1
 419 390 l 1
 323 268.997275204 214 153.945504087 125 26 c 1
 162 26 199 24 236 24 c 0
 288 24 329 28 359 43 c 0
 377 52 391 65 402 83 c 0
 408 94 414 106 418 121 c 1
 433 121 l 1
 433 98 413 31 401 -3 c 1
 387 -2 374 -1 360 -1 c 0xd0
EndSplineSet
Validated: 33
Substitution2: "case-1" Z
Substitution2: "pcap-1" z.pcap
Substitution2: "smcp-1" z.smcp
EndChar

StartChar: A
Encoding: 65 65 26
Width: 719
VWidth: 1159
Flags: MW
HStem: -7 18<26 39.5502 196.436 229.667 480.333 517.463 672.953 697> 247 38<229 455>
AnchorPoint: "Top" 373 699 basechar 0
AnchorPoint: "Ogonek" 533 19 basechar 0
LayerCount: 2
Fore
SplineSet
229 285 m 5
 282 279 406 280 455 280 c 5
 417 380 384 463 342 565 c 13
 342 565 266 376 229 285 c 5
481 -7 m 5
 478 11 l 5
 524 13 540 32 533 60 c 4
 518 123 492 179 469 242 c 5
 409 246 265 249 213 247 c 5
 185 181 164 137 144 77 c 4
 130 36 168 26 232 11 c 5
 229 -10 l 5
 191.327087904 -5.20526573325 135.825602049 -0.87970446014 86.9193348728 -0.87970446014 c 7
 64.4256346706 -0.87970446014 43.3270879041 -1.79473426675 26 -4 c 13
 23 16 l 5
 69 22 81 47 92 70 c 4
 142 170 285 513 351 679 c 4
 355 690 358 695 360 710 c 13
 380 708 l 5
 382 699 385 693 389 683 c 4
 466 462 593 130 632 54 c 4
 648 23 665 20 699 14 c 13
 697 -4 l 5
 668.715728753 -3.05719095842 632.431457505 -2.11438191684 595.68965859 -2.11438191684 c 7
 554.490332008 -2.11438191684 512.715728753 -3.29983164554 481 -7 c 5
EndSplineSet
Validated: 33
Position2: "cpsp-1" dx=0 dy=0 dh=50 dv=100
Substitution2: "c2pc-1" a.pcap
Substitution2: "c2sc-1" a.smcp
EndChar

StartChar: B
Encoding: 66 66 27
Width: 574
VWidth: 1159
Flags: MW
HStem: -5 30<174.927 364.508> 363 21<187 291.543> 678 24<32.4444 86.375 206.52 302.893>
VStem: 114 73<41.2395 363 384 621.552> 395 88<461.318 607.313> 464 88<99.5601 269.208>
AnchorPoint: "Top" 278 682 basechar 0
LayerCount: 2
Fore
SplineSet
30 14 m 1xf4
 68 15 104 26 108 86 c 0
 113 151 114 306 114 429 c 3
 114 498 113 558 112 585 c 0
 110 649 97 669 63 678 c 0
 56 680 42 683 31 684 c 1
 33 704 l 1
 59 700 112 694 145 694 c 3
 198 694 229 702 283 702 c 3
 379 702 483 642 483 535 c 3xf8
 483 461 428 400 326 384 c 1
 438 370 552 304 552 187 c 3
 552 37 413 -5 294 -5 c 3
 226 -5 197 -1 149 -1 c 3
 102 -1 70 -1 31 -6 c 1
 30 14 l 1xf4
274 390 m 0
 337 401 395 439 395 526 c 3
 395 611 336 678 240 678 c 3
 225 678 216 677 209 673 c 0
 202 668 196 660 194 646 c 0
 189 624 185 437 187 384 c 1
 213 384 242 385 274 390 c 0
325 354 m 0
 288 363 257 363 187 363 c 1
 186 247 186 134 187 84 c 0
 188 58 190 46 197 41 c 0
 214 29 239 25 276 25 c 3
 383 25 464 76 464 178 c 3xf4
 464 263 416 334 325 354 c 0
EndSplineSet
Validated: 33
Position2: "cpsp-1" dx=0 dy=0 dh=50 dv=100
Substitution2: "c2pc-1" b.pcap
Substitution2: "c2sc-1" b.smcp
EndChar

StartChar: C
Encoding: 67 67 28
Width: 666
VWidth: 1159
Flags: W
HStem: -12 26<345.649 498.05> 697 30<308.728 483.108>
VStem: 23 90<225.853 484.692> 600 20<550.9 621.644> 625 21<128.174 155>
AnchorPoint: "Top" 389 708 basechar 0
LayerCount: 2
Fore
SplineSet
23 344 m 3
 23 664 285 727 417 727 c 3
 493 727 539 707 582 692 c 0
 608 682 626 686 643 691 c 1
 649 686 l 1
 635 655 625 610 620 558 c 0
 619 542 606 551 600 555 c 1
 605 617 589 632 552 654 c 0
 524 671 454 697 400 697 c 3
 228 697 113 569 113 354 c 3
 113 114 306 14 418 14 c 3
 526 14 608 78 625 157 c 1
 646 154 l 1
 637 115 619 67 608 21 c 1
 538 5 473 -12 397 -12 c 3
 190 -12 23 140 23 344 c 3
EndSplineSet
Validated: 33
Position2: "cpsp-1" dx=0 dy=0 dh=50 dv=100
Substitution2: "c2pc-1" c.pcap
Substitution2: "c2sc-1" c.smcp
EndChar

StartChar: D
Encoding: 68 68 29
Width: 797
VWidth: 1159
Flags: W
HStem: -6 23<31 93.0026 263.448 453.367> 692 21<39 81.9453 193.386 427.753>
VStem: 109 87<40.7566 309.036> 683 91<231.612 474.643>
AnchorPoint: "Top" 361 690 basechar 0
LayerCount: 2
Fore
SplineSet
354 17 m 3
 562 17 683 143 683 363 c 3
 683 581 499 692 354 692 c 3
 283 692 236 680 214 670 c 0
 205 666 205 663 204 648 c 0
 196.729960407 573.977778692 192.517559903 377.649993828 192.517559903 228.477883042 c 3
 192.517559903 151.943765174 193.626388832 87.8224213289 196 59 c 0
 197 48 201 45 210 43 c 0
 242 33 297 17 354 17 c 3
39 708 m 1
 57 706 81 706 134 706 c 3
 167 706 283 713 351 713 c 3
 579 713 774 592 774 353 c 3
 774 87 532 -6 376 -6 c 3
 286 -6 245 0 172 0 c 3
 130 0 65 -2 31 -4 c 1
 31 15 l 1
 83 14 104 20 109 75 c 0
 112.945484083 118.400324917 118.188205221 303.199488759 118.188205221 453.956004373 c 3
 118.188205221 532.458833003 116.766612514 601.730810098 113 637 c 0
 108 681 87 684 38 688 c 1
 39 708 l 1
EndSplineSet
Validated: 33
Position2: "cpsp-1" dx=0 dy=0 dh=50 dv=100
Substitution2: "c2pc-1" d.pcap
Substitution2: "c2sc-1" d.smcp
EndChar

StartChar: E
Encoding: 69 69 30
Width: 639
VWidth: 1159
Flags: W
HStem: -9 19<29.8947 69.7483> 0.0184778 25.0965<228.8 463.902> 346 28<193 384.216> 680.284 22.96<218.85 467.751> 690 14<41 73.102>
VStem: 117.19 75.8105<136.594 346 374 613.965> 498 16.3665<247.172 300.747 414.044 451.383> 535 19<563 640.939> 608 17<149.154 163.471>
AnchorPoint: "Top" 330 682 basechar 0
AnchorPoint: "Ogonek" 560 1 basechar 0
LayerCount: 2
Fore
SplineSet
41 704 m 1xaf80
 90.1353814912 703.622035527 170.699334411 703.244071054 254.290528359 703.244071054 c 3
 391.860845392 703.244071054 537.630436812 704.267786838 565 708 c 1
 569.578958482 705.710520759 571.483572476 704.276831754 571.483572476 698.48575829 c 3
 571.483572476 686.570834021 563.421041518 656.210415185 554 562 c 1
 535 563 l 1
 539 609 539.532 640.071 515 653 c 0
 478.151590099 672.420107921 411.628111409 680.284027393 346.716433033 680.284027393 c 3
 296.773454554 680.284027393 247.784621205 675.628785434 214 668 c 0
 209 667 205 666 204 661 c 0
 197 602 193 440 193 374 c 1
 243 372 406 374 460 381 c 0
 486 385 496 430 502 453 c 1
 519 451 l 1
 515.86335345 425.906827602 514.366465497 385.23594854 514.366465497 344.703133529 c 3
 514.366465497 307.701905028 515.613872125 270.815729903 518 246 c 1
 498 245 l 1
 497 294 486 331 456 336 c 0
 370 350 266 348 193 346 c 1
 193 267 191 113 202 54 c 0
 203 48 205 44 209 43 c 0
 225.696721906 35.1427191033 284.596377564 25.1150016136 350.762506253 25.1150016136 c 3
 419.332308853 25.1150016136 495.706124988 35.8845238671 541 71 c 0
 568 92 592 126 608 167 c 1
 625 161 l 1
 614 125 579 19 568 -6 c 1
 558.559693491 -2.8532311637 436.619913909 0.0184778362423 309.508826681 0.0184778362423 c 3x7780
 194.254947482 0.0184778362423 74.74954451 -2.34246061804 31 -9 c 1
 28 10 l 1
 62 16 96 19 101 53 c 0
 112.270166538 137.526249034 117.189500386 256.982077862 117.189500386 376.116827514 c 3
 117.189500386 468.398207786 114.237900077 560.486940553 109 636 c 0
 107 674 82 685 41 690 c 1
 41 704 l 1xaf80
EndSplineSet
Validated: 33
Position2: "cpsp-1" dx=0 dy=0 dh=50 dv=100
Substitution2: "c2pc-1" e.pcap
Substitution2: "c2sc-1" e.smcp
EndChar

StartChar: F
Encoding: 70 70 31
Width: 589
VWidth: 1159
Flags: HW
HStem: -4 22<38 81.6241> 351 29<200 392.516> 683 19<30 80.4241>
VStem: 477 25<258 325.072 385.783 445> 529 23<565 628.106>
AnchorPoint: "Top" 320.146 675.227 basechar 0
LayerCount: 2
Fore
SplineSet
316 -12 m 1
 277 -4 226 -1 173 -1 c 3
 128 -1 83 -3 42 -6 c 1
 38 16 l 1
 97 23 107 29 112 87 c 0
 118 156 122 262 122 364 c 3
 122 458 120 569 111 628 c 0
 106 664 99 682 28 681 c 1
 28 700 l 1
 145 699 250 697 336 697 c 3
 415 697 536 702 555 710 c 1
 558 708 559 708 559 706 c 0
 559 700 551 677 551 564 c 1
 528 567 l 1
 528 614 520 638 499 647 c 0
 437 674 329 665 212 664 c 0
 207 664 205 661 205 655 c 0
 200 587 200 459 200 379 c 1
 329 366 441 380 446 381 c 0
 467 383 479 387 482 450 c 1
 504 447 l 1
 503 441 503 416 503 387 c 3
 503 350 504 276 504 260 c 1
 479 260 l 1
 482 318 472 330 446 334 c 0
 384 344 286 347 201 350 c 1
 198 281 198 181 199 91 c 0
 200 22 262 18 320 17 c 1
 316 -12 l 1
EndSplineSet
Position2: "cpsp-1" dx=0 dy=0 dh=50 dv=100
Substitution2: "c2pc-1" f.pcap
Substitution2: "c2sc-1" f.smcp
EndChar

StartChar: G
Encoding: 71 71 32
Width: 749
VWidth: 1159
Flags: W
HStem: -10 30<346.593 535.084> 320 23<471 582.818> 328 21<699.83 724.333> 679 31<316.494 508.891>
VStem: 23 88<247.514 473.292> 604 79<60.1948 309.006> 647 20<537.25 556.91>
AnchorPoint: "Top" 420 689 basechar 0
LayerCount: 2
Fore
SplineSet
23 357 m 3xbc
 23 576 226 710 431 710 c 3
 513 710 552 690 594 680 c 0
 616 674 618 683 632 704 c 1
 645 700 l 1
 645 674 655 581 667 539 c 1
 647 534 l 1xba
 622 604 552 679 408 679 c 3
 190 679 111 486 111 358 c 3
 111 189 254 20 437 20 c 3
 510 20 551 38 587 60 c 0
 592 64 603 78 604 96 c 0
 605 114 606 194 600 269 c 0
 598 297 592 314 550 319 c 0
 533 321 502 321 470 320 c 1
 471 343 l 1xdc
 558 337 655 342 723 349 c 1
 727 328 l 1
 693 323 686 307 685 271 c 0
 684 195 682 122 683 81 c 0
 683 60 692 54 707 39 c 1
 706 30 l 1
 613 16 519 -10 427 -10 c 3
 207 -10 23 125 23 357 c 3xbc
EndSplineSet
Validated: 33
Position2: "cpsp-1" dx=0 dy=0 dh=50 dv=100
Substitution2: "c2pc-1" g.pcap
Substitution2: "c2sc-1" g.smcp
EndChar

StartChar: H
Encoding: 72 72 33
Width: 872
VWidth: 1159
Flags: W
HStem: -7 22<31 84.7222 609.238 655.154 797.033 843> 344 35<193 689> 688 20<34 89.4782 276.975 282 791.941 839> 695 18<606 642.508>
VStem: 109 85<393.875 627.104> 685 86<30.0585 342 380 676.577>
AnchorPoint: "Top" 438 665 basechar 0
LayerCount: 2
Fore
SplineSet
34 708 m 1xec
 91.4736842105 708 135.83933518 701.914127424 192.721679545 701.914127424 c 3
 218.975069252 701.914127424 247.894736842 703.210526316 282 707 c 1
 284 689 l 1
 248 685 204 679 202 658 c 0
 191 579 195 471 193 379 c 1
 689 380 l 1
 688 444 694 525 685 630 c 0
 681 680 653 688 603 695 c 1
 606 713 l 1
 658.724112181 707.881154157 698.870984636 705.120540763 735.561252131 705.120540763 c 3
 770.547820824 705.120540763 802.391343821 707.630730427 839 713 c 1xdc
 841 694 l 1
 802 690 773 679 772 633 c 0
 769.011928477 521.843739332 766.023856953 393.187478664 766.023856953 278.405968991 c 3
 766.023856953 201.121276806 767.378528742 130.126840261 771 75 c 0
 775 22 797 21 844 15 c 1
 843 -7 l 1
 808.384615385 -1.46153846154 773.343195266 1.30769230769 737.679107874 1.30769230769 c 3
 696.071005917 1.30769230769 653.615384615 -2.46153846154 610 -10 c 1
 606 14 l 1
 660 23 683 28 685 80 c 0
 689 159 691 272 689 342 c 1
 192 344 l 1
 190 278 194 82 194 68 c 0
 194 29 230 16 277 10 c 1
 274 -11 l 1
 238.075426078 -2.96424004377 202.150852156 0.155894868754 164.642022236 0.155894868754 c 3
 122.799289626 0.155894868754 78.9850496461 -3.72691762131 31 -9 c 1
 28 10 l 1
 83 17 101 23 105 69 c 0
 112.5 170 115.25 288.75 115.25 393.875 c 3
 115.25 499 112.5 590.5 109 637 c 0
 105 681 88 687 34 688 c 1
 34 708 l 1xec
EndSplineSet
Validated: 33
Position2: "cpsp-1" dx=0 dy=0 dh=50 dv=100
Substitution2: "c2pc-1" h.pcap
Substitution2: "c2sc-1" h.smcp
EndChar

StartChar: I
Encoding: 73 73 34
Width: 373
VWidth: 1159
Flags: W
HStem: -4 19<31 106.272 256.5 339> 692 19<36 102.034 276.677 346>
VStem: 31 315
AnchorPoint: "Top" 195 689 basechar 0
AnchorPoint: "Ogonek" 269 5 basechar 0
LayerCount: 2
Fore
SplineSet
36 711 m 1
 81.6059701862 706.249378106 132.854042468 703.981281133 184.061876172 703.981281133 c 3
 240.645895497 703.981281133 297.180783618 706.750621894 346 712 c 1
 347 691 l 1
 293 690 249 693 240 624 c 0
 233.346293497 567.745935928 230.351414285 436.485912376 230.351414285 307.680538713 c 3
 230.351414285 223.543079742 231.629294456 140.452991365 234 80 c 0
 236 18 257 15 339 15 c 1
 339 -4 l 1
 294.069284106 -1.7811992151 229.446260519 0.437601569802 166.806906139 0.437601569802 c 3
 116.521558479 0.437601569802 67.5145839095 -0.992301766027 31 -5 c 1
 30 17 l 1
 101 19 144 17 149 90 c 0
 154.110427846 158.75848374 156.414953659 258.381889838 156.414953659 354.375534389 c 3
 156.414953659 465.004529268 153.354156504 570.812591463 148 619 c 0
 141 687 108 685 34 692 c 1
 36 711 l 1
EndSplineSet
Validated: 1
Position2: "cpsp-1" dx=0 dy=0 dh=50 dv=100
Substitution2: "c2pc-1" i.pcap
Substitution2: "c2sc-1" i.smcp
EndChar

StartChar: J
Encoding: 74 74 35
Width: 386
VWidth: 1159
Flags: HMW
AnchorPoint: "Top" 209 693 basechar 0
LayerCount: 2
Fore
SplineSet
167 624 m 0
 158 690 122 690 49 695 c 1
 50 715 l 1
 104.643270312 708.67288449 166.896003314 705.985077224 228.194690218 705.985077224 c 3
 273.466770815 705.985077224 318.218462631 707.451153914 359 710 c 1
 359 688 l 1
 312 689 263 693 257 625 c 0
 251 554 252 391 251 200 c 0
 251 114 249 22 247 -69 c 1
 193 -142 153 -187 121 -213 c 0
 101 -229 59 -245 37 -245 c 3
 17 -245 3 -224 1 -213 c 1
 0 -202 66 -174 71 -176 c 1
 77 -180 85 -187 100 -187 c 3
 107 -187 157 -185 167 0 c 0
 178 200 181 523 167 624 c 0
EndSplineSet
Validated: 33
Position2: "cpsp-1" dx=0 dy=0 dh=50 dv=100
Substitution2: "c2pc-1" j.pcap
Substitution2: "c2sc-1" j.smcp
EndChar

StartChar: K
Encoding: 75 75 36
Width: 713
VWidth: 1159
Flags: W
HStem: -1 19<31 35.8607 227.666 278 486 527.34> 680 19<36 81.4409 219.508 280.571 415 452.693 593.354 621.6>
AnchorPoint: "Top" 346 675 basechar 0
LayerCount: 2
Fore
SplineSet
413 696 m 1
 443.031586824 693.854886655 474.724830493 692.987970883 504.286798845 692.987970883 c 3
 557.4112818 692.987970883 603.653010051 695.787594454 621 699 c 1
 624 679 l 1
 604 680 567 659 545 642 c 0
 448 569 338 459 245 374 c 1
 604 70 l 2
 632 47 677 14 695 9 c 1
 691 -10 l 1
 680 -8 665 0 622 0 c 3
 547 0 493 -7 486 -7 c 1
 485 12 l 1
 538 17 545 24 518 49 c 0
 388 165 281 248 185 328 c 1
 185 233 187 137 191 71 c 0
 193 33 212 28 278 14 c 1
 278 -5 l 1
 259.578947368 -5 160.260387812 2.60110803324 90.0603586529 2.60110803324 c 3
 64.9889196676 2.60110803324 43.6315789474 1.63157894737 31 -1 c 1
 30 18 l 1
 78 22 97 29 101 79 c 0
 109.452624903 188.320615418 113.14212529 304.627146794 113.14212529 407.699672996 c 3
 113.14212529 487.539308481 110.928425058 559.438540862 107 614 c 0
 103 669 98 671 34 680 c 1
 36 699 l 1
 76.8271271327 696.879110279 114.561760184 694.477084732 156.060867105 694.477084732 c 3
 192.829114695 694.477084732 232.55246546 696.362669164 280 702 c 1
 282 685 l 1
 236 681 201 679 196 622 c 0
 192 572 186 460 185 344 c 1
 294 451 394 544 446 601 c 0
 464 622 475 639 475 649 c 0
 475 665 447 677 415 677 c 1
 413 696 l 1
EndSplineSet
Validated: 33
Position2: "cpsp-1" dx=0 dy=0 dh=50 dv=100
Substitution2: "c2pc-1" k.pcap
Substitution2: "c2sc-1" k.smcp
EndChar

StartChar: L
Encoding: 76 76 37
Width: 621
VWidth: 1159
Flags: HW
HStem: 0 34<201.715 484.694> 0 22<28 77.3713> 680 20<39 87.9227 235.574 290.286>
VStem: 108 83<42.703 331.175> 112 90<374.826 665.166> 584 21<117.717 142.667>
AnchorPoint: "Top" 170 676 basechar 0
AnchorPoint: "TopRight" 367 531 basechar 0
LayerCount: 2
Fore
SplineSet
287 704 m 1x6c
 289 679 l 1
 223 672 204 666 200 624 c 0x6c
 189 460 187 262 193 85 c 0
 194 48 208 36 263 34 c 0
 322 33 354 31 393 35 c 0xb4
 542 50 573 91 586 150 c 1
 607 143 l 1
 595 93 579 19 558 -14 c 1
 521 -2 464 -4 438 -3 c 0
 380 -3 289 -1 208 -1 c 3
 161 -1 34 -3 31 -3 c 1
 31 19 l 1
 101 30 109 39 110 91 c 0x74
 111 181 114 303 114 403 c 3
 114 478 113 551 110 612 c 0
 107 676 87 674 34 678 c 1
 36 698 l 1
 80 695 116 693 147 693 c 3
 201 693 243 698 287 704 c 1x6c
EndSplineSet
Position2: "cpsp-1" dx=0 dy=0 dh=50 dv=100
Substitution2: "c2pc-1" l.pcap
Substitution2: "c2sc-1" l.smcp
EndChar

StartChar: M
Encoding: 77 77 38
Width: 1006
VWidth: 1159
Flags: W
HStem: -7 19<30 79.6652 232.157 290 683.5 716.257> -1 22<921.234 978> 675 20<33 111.171 898.146 972>
VStem: 793 78<350.25 578> 798 81<57.3892 366.812>
AnchorPoint: "Top" 517 625 basechar 0
LayerCount: 2
Fore
SplineSet
978 -1 m 1x68
 941.51238504 1.12549213361 906.405183549 2.12155506471 871.8781979 2.12155506471 c 3
 808.939796301 2.12155506471 747.929379795 -1.18823820042 684 -7 c 1
 682 13 l 1
 763 27 798 55 798 139 c 0xa8
 797 303 795 488 793 578 c 1
 701.196 424.536 609.392 245.726 553.603 125.5 c 0
 527.961 70.2407 508.928 24.3574 502 0 c 1
 490 0 l 1
 477.304 39.7432 454.838 93.8664 429.988 146.5 c 0
 364.799 284.57 269.436 453.68 205 584 c 1
 194 497 184 257 182 124 c 0
 180 39 205 14 291 14 c 1
 290 -9 l 1
 233.652712342 -3.83483196464 190.093686901 -1.97697312352 151.66154324 -1.97697312352 c 3
 108.246672946 -1.97697312352 71.374263022 -4.34780365244 30 -7 c 1
 28 12 l 1
 106 14 135 49 141 125 c 0
 142 140 167 530 166 556 c 0
 165.139 603.771 155.388 631.353 138.5 648.073 c 0
 116.147 670.203 82.292 673.304 32 679 c 1
 33 700 l 1
 96 697 186 693 234 696 c 1
 248.755 696.63 247.314 685.109 252.122 669 c 0
 276 589 421.488 323.061 520 141 c 1
 632 354 797 655 807 686 c 0
 808 691 811.004 695.231 817 695 c 0
 869 693 925 694 972 695 c 1
 972 675 l 1
 899 681 877.839 668.228 871 593 c 0xb0
 864.5 521.5 871.055 361.375 879 127 c 0
 883 37 909 26 978 21 c 1
 978 -1 l 1x68
EndSplineSet
Validated: 33
Position2: "cpsp-1" dx=0 dy=0 dh=50 dv=100
Substitution2: "c2pc-1" m.pcap
Substitution2: "c2sc-1" m.smcp
EndChar

StartChar: N
Encoding: 78 78 39
Width: 890
VWidth: 1159
Flags: W
HStem: -11 20<243.349 292.7> 685 17.2427<818.699 862> 690.5 20.5<29 67.9982 632 695.908>
VStem: 126.655 39.3449<44.7657 588.27> 738 38<153 299.352> 746.209 39.7912<396.818 626.255> 759 22<-10 12.2541>
AnchorPoint: "Top" 454 699 basechar 0
LayerCount: 2
Fore
SplineSet
29 711 m 1xb2
 86 699.5 137.094 700.312 174 706.602 c 0
 175.89 706.924 177.945 706.956 179.5 704.41 c 0
 217.597 642.032 512.287 368.857 738 153 c 1xb8
 741.572599296 257.796246007 746.208820735 337.774641988 746.208820735 421.223300544 c 3xb4
 746.208820735 477.922447519 744.068501761 536.223646711 738 605 c 0
 733 659 723 687 630 695 c 1
 632 711 l 1xb8
 666.664085695 711.88882271 720.257354526 702.242732755 794.654412288 702.242732755 c 3
 815.820770586 702.242732755 838.348500002 703.010621495 862 705 c 1
 862 685 l 1
 812.5 685.5 790 668 786 599 c 0xd4
 779 432 776 294 776 101 c 0xd8
 776 87 780 -4 781 -10 c 1
 759 -11 l 1
 751.986 14.3362 721.368 54.5888 675.229 104.795 c 0
 560.203 229.962 348.711 416.995 166 589 c 1
 164 444 158.713 242.99 164 102 c 0
 165.5 62 167.5 26.5 294 9 c 1
 292 -11 l 1
 243.191482221 -4.56614992909 200.978509248 -2.06993854878 163.74493531 -2.06993854878 c 3
 117.065017925 -2.06993854878 78.2116014234 -5.99342418194 44 -11 c 1
 42 10.5 l 1
 113 16 120 24 121 106 c 0
 122.4162398 225.672263073 126.655050418 413.61072553 126.655050418 523.018048326 c 3
 126.655050418 568.11467722 125.934873184 599.86880417 124 608 c 0
 113.954 650.216 90 684 29 690.5 c 1
 29 711 l 1xb2
EndSplineSet
Validated: 33
Position2: "cpsp-1" dx=0 dy=0 dh=50 dv=100
Substitution2: "c2pc-1" n.pcap
Substitution2: "c2sc-1" n.smcp
EndChar

StartChar: O
Encoding: 79 79 40
Width: 793
VWidth: 1159
Flags: W
HStem: -16 33<341.371 514.276> 685 33<297.104 456.595>
VStem: 23 82<266.508 463.741> 689 82<227.806 435.778>
AnchorPoint: "Top" 401 695 basechar 0
AnchorPoint: "Ogonek" 489 -2 basechar 0
LayerCount: 2
Fore
SplineSet
367 685 m 3
 226 685 105 569 105 407 c 3
 105 175 265 17 435 17 c 3
 601 17 689 166 689 304 c 3
 689 484 571 685 367 685 c 3
400 718 m 3
 607 718 771 552 771 349 c 3
 771 162 625 -16 411 -16 c 3
 95 -16 23 259 23 346 c 3
 23 566 218 718 400 718 c 3
EndSplineSet
Validated: 1
Position2: "cpsp-1" dx=0 dy=0 dh=50 dv=100
Substitution2: "c2pc-1" o.pcap
Substitution2: "c2sc-1" o.smcp
EndChar

StartChar: P
Encoding: 80 80 41
Width: 595
VWidth: 1159
Flags: W
HStem: -10 21<41.6667 77.512 248.617 301.401> 258 29<197.038 365.389> 686 32<205.607 367.179> 695 20<31 77.79>
VStem: 119 77<30.3146 267 289.664 315.623> 490 87<396.596 564.051>
AnchorPoint: "Top" 298 694 basechar 0
LayerCount: 2
Fore
SplineSet
282 287 m 3xec
 416 287 490 371 490 471 c 3
 490 568 445 632 383 664 c 0
 353 679 320 686 287 686 c 3
 205 686 205 671 204 665 c 0
 199 647 192 341 196 293 c 1
 218 288 252 287 282 287 c 3xec
31 715 m 1xdc
 41 715 86 712 141 712 c 3
 198 712 243 718 274 718 c 3xec
 431 718 577 621 577 472 c 3
 577 374 459 258 289 258 c 3
 247 258 218 262 196 267 c 1
 196 197 199 128 200 70 c 0
 201 23 216 27 305 12 c 1
 304 5 301 -4 300 -9 c 1
 269.445771718 -2.88915434357 219.961003655 0.62846668531 170.297737094 0.62846668531 c 3
 122.436171213 0.62846668531 74.4088231657 -2.63855707054 43 -10 c 1
 39 11 l 1
 126 28 119 49 119 77 c 0
 120.211102551 134.224595531 120.872166581 200.341480483 120.872166581 267.495600072 c 7
 120.872166581 422.136470637 117.366692347 582.277563773 109 652 c 0
 105 685 52 695 30 695 c 1
 31 715 l 1xdc
EndSplineSet
Validated: 33
Position2: "cpsp-1" dx=0 dy=0 dh=50 dv=100
Substitution2: "c2pc-1" p.pcap
Substitution2: "c2sc-1" p.smcp
EndChar

StartChar: Q
Encoding: 81 81 42
Width: 825
VWidth: 1159
Flags: W
HStem: -157 34<699 869.137> -12 30<365.009 432.581> 681 34<311.995 474.681>
VStem: 41 80<269.367 465.613> 702 83<226.697 445.832>
LayerCount: 2
Fore
SplineSet
390 681 m 3
 234 681 121 561 121 401 c 3
 121 208 251 18 455 18 c 3
 616 18 702 164 702 319 c 3
 702 527 536 681 390 681 c 3
534 9 m 1
 611 -55 746 -123 836 -123 c 3
 857 -123 875 -120 892 -116 c 1
 895 -134 l 1
 853 -144 804 -157 740 -157 c 3
 658 -157 500 -89 416 -12 c 1
 107 -12 41 266 41 347 c 3
 41 551 223 715 417 715 c 3
 598 715 785 570 785 346 c 3
 785 187 679 58 534 9 c 1
EndSplineSet
Validated: 1
Position2: "cpsp-1" dx=0 dy=0 dh=50 dv=100
Substitution2: "salt-1" Q.alt
Substitution2: "c2pc-1" q.pcap
Substitution2: "c2sc-1" q.smcp
EndChar

StartChar: R
Encoding: 82 82 43
Width: 765
VWidth: 1159
Flags: HMW
HStem: -34 18<715.141 760> -15 21<238.873 275.333> 333 25<190.186 311.406> 678 21<31 89.864>
VStem: 106 83<27.267 311.306> 107 91<473.918 669.555> 469 86<439.59 588.412>
AnchorPoint: "Top" 315 682 basechar 0
LayerCount: 2
Fore
SplineSet
189 365 m 1xfa
 212 361 262 358 296 358 c 3
 429 358 469 442 469 504 c 3
 469 554.73556753 440.320947051 685.798718793 283.987942482 685.798718793 c 3
 243.072259892 685.798718793 199.155967202 678.58724564 198 652 c 0xf6
 191 543 188 433 189 365 c 1xfa
31 699 m 1
 45 699 85 694 135 694 c 3
 200 694 245 710 311 710 c 3
 476 710 555 601 555 522 c 3
 555 406 448 358 401 347 c 1
 536 147 639 -20 760 -16 c 1
 760 -34 l 1
 564 -55 428 152 309 335 c 1
 303 334 294 333 287 333 c 3
 256 333 216 337 189 342 c 1
 188 251 189 160 194 52 c 0
 195 20 241 18 278 6 c 1
 274 -15 l 1
 243.022833184 -5.57216662109 203.378968373 -1.98931561042 163.754989981 -1.98931561042 c 3
 115.118653114 -1.98931561042 66.5122776497 -7.38733335938 34 -14 c 1
 31 6 l 1
 70 10 105 28 106 66 c 0xfa
 110.178063236 167.467250019 114.712375705 278.553229322 114.712375705 393.729476855 c 3
 114.712375705 471.521522806 112.643873528 551.179502963 107 631 c 0
 105 673 77 678 28 678 c 1
 31 699 l 1
EndSplineSet
Validated: 33
Position2: "cpsp-1" dx=0 dy=0 dh=50 dv=100
Substitution2: "salt-1" R.alt
Substitution2: "c2pc-1" r.pcap
Substitution2: "c2sc-1" r.smcp
EndChar

StartChar: S
Encoding: 83 83 44
Width: 532
VWidth: 1159
Flags: W
HStem: -14 32<191.142 375.847> -5 21G<52 71.5> 683 21<223.309 353.769>
VStem: 52 19<-2 14.1074> 64 66<479.982 592.81> 439 70<90.2823 217.985> 476 14<539.966 567.52 688.109 697.5>
AnchorPoint: "Top" 285 675 basechar 0
LayerCount: 2
Fore
SplineSet
21 181 m 1x74
 39 185 l 1
 56 122 76 91 92 77 c 0
 118 56 204 18 301 18 c 3
 391 18 439 71 439 140 c 3xb4
 439 265 325 286 223 332 c 0
 201 342 64 393 64 510 c 3
 64 612 153 704 287 704 c 3
 347 704 380 695 411 686 c 0
 444 677 469 681 480 699 c 1
 492 696 l 1
 481 617 476 628 490 551 c 0
 491 541 491 540 476 539 c 1xaa
 470 582 450 617 423 638 c 0
 396 659 344 683 290 683 c 3
 194 683 130 629 130 554 c 3
 130 449 227 417 304 387 c 0
 354 367 509 324 509 169 c 3
 509 53 391 -14 289 -14 c 3xac
 149 -14 98 16 81 16 c 0
 75 16 72 12 71 -5 c 1
 52 -2 l 1
 56 42 51 74 21 181 c 1x74
EndSplineSet
Validated: 33
Position2: "cpsp-1" dx=0 dy=0 dh=50 dv=100
Substitution2: "c2pc-1" s.pcap
Substitution2: "c2sc-1" s.smcp
EndChar

StartChar: T
Encoding: 84 84 45
Width: 744
VWidth: 1159
Flags: MW
HStem: -12 22<223.277 267.753> 657 38<429 632.242> 695 20G<63.5 76>
VStem: 333 90<37.5695 314.818>
AnchorPoint: "Top" 376 670 basechar 0
LayerCount: 2
Fore
SplineSet
106 696 m 0xb0
 128.56921585 693.870828693 235.459122124 693.192335932 352.076572161 693.192335932 c 3
 509.315550854 693.192335932 684.239182442 694.425834261 694 695 c 0xb0
 714 696 729 702 736 704 c 1
 743 699 l 1
 727 661 722 655 708 576 c 1
 684 582 l 1
 686 592 699 624 694 629 c 0
 663 665 550 661 429 657 c 1xd0
 424.722534342 520.121098942 420.953310697 351.222951086 420.953310697 226.03279657 c 3
 420.953310697 175.618752914 421.564554715 132.292707212 423 101 c 0
 427 24 454 25 538 18 c 1
 533 -9 l 1
 486.428929646 0.314214070874 437.693912758 4.3169230137 390.285072497 4.3169230137 c 3
 330.805061169 4.3169230137 273.412541706 -1.98361206075 225 -12 c 1
 223 -6 223 0 219 10 c 1
 317 30 332 35 333 66 c 0
 338.324889099 155.990625776 342.799144881 304.391406025 342.799144881 430.425756652 c 3
 342.799144881 541.080561947 339.350221802 634.494489856 330 656 c 1
 312 660 134.501 670.251 84 645 c 0
 66 636 52 630 34 582 c 1
 17 588 l 1
 48 654 61 690 66 715 c 1
 86 715 78 698 106 696 c 0xb0
EndSplineSet
Validated: 33
Position2: "cpsp-1" dx=0 dy=0 dh=50 dv=100
Substitution2: "c2pc-1" t.pcap
Substitution2: "c2sc-1" t.smcp
EndChar

StartChar: space
Encoding: 44 44 46
Width: 201
VWidth: 1159
Flags: W
HStem: -115.7 231.4
VStem: 34.4502 133.95<31.7132 65.0793>
LayerCount: 2
Fore
SplineSet
42.7998 -115.7 m 1
 34.5996 -102.95 l 1
 66.9004 -83 107.6 -37.25 94.2998 -7.7998 c 0
 84.7998 13.0996 63.9004 27.3496 43.9502 37.7998 c 0
 39.2002 39.7002 34.4502 43.5 34.4502 49.2002 c 3
 34.4502 54.9004 39.2002 56.7998 43.9502 58.7002 c 0
 63.9004 69.1504 79.0996 84.3496 89.5498 104.3 c 0
 91.4502 109.05 94.2998 115.7 100 115.7 c 3
 105.7 115.7 108.55 109.05 110.45 104.3 c 0
 120.9 84.3496 138 69.1504 157.95 58.7002 c 0
 162.7 56.7998 168.4 54.9004 168.4 49.2002 c 3
 168.4 43.5 154.9 -53.9502 42.7998 -115.7 c 1
EndSplineSet
Validated: 33
Position2: "cpsp-1" dx=0 dy=0 dh=7 dv=14
EndChar

StartChar: period
Encoding: 46 46 48
Width: 201
VWidth: 1159
Flags: W
HStem: -17.5 133<83.8157 116.483>
VStem: 34.5254 133.95<30.4466 64.8792>
LayerCount: 2
Fore
SplineSet
158.025 36.6504 m 0
 138.075 26.2002 120.975 12.9004 110.525 -7.0498 c 0
 108.625 -11.7998 106.091 -17.5 100.391 -17.5 c 3
 94.6904 -17.5 91.5254 -11.7998 89.625 -7.0498 c 0
 79.1748 12.9004 63.9746 26.2002 44.0254 36.6504 c 0
 39.2754 38.5498 34.5254 42.0361 34.5254 47.7363 c 3
 34.5254 53.4365 39.2754 56.5996 44.0254 58.5 c 0
 63.9746 68.9502 79.1748 84.1504 89.625 104.1 c 0
 91.5254 108.85 94.6904 115.5 100.391 115.5 c 3
 106.091 115.5 108.625 108.85 110.525 104.1 c 0
 120.975 84.1504 138.075 68.9502 158.025 58.5 c 0
 162.775 56.5996 168.475 53.4365 168.475 47.7363 c 3
 168.475 42.0361 162.775 38.5498 158.025 36.6504 c 0
EndSplineSet
Validated: 1
Position2: "cpsp-1" dx=0 dy=0 dh=7 dv=14
EndChar

StartChar: uni0307
Encoding: 775 775 49
Width: 0
VWidth: 1159
Flags: W
AnchorPoint: "Top" -198.5 449 mark 0
LayerCount: 2
Back
SplineSet
-198 557 m 0
 -176 557 -157 541 -157 519 c 0
 -157 497 -177 479 -199 479 c 0
 -221 479 -240 495 -240 517 c 0
 -240 539 -220 557 -198 557 c 0
EndSplineSet
Fore
Refer: 2360 57345 S 1.01727 0.216228 -0.201674 0.948803 -198 578 2
Validated: 1
EndChar

StartChar: dotlessi
Encoding: 305 305 50
Width: 264
VWidth: 1159
Flags: HMW
HStem: -7 33<15 69 166 236>
VStem: 79 71<57 330>
LayerCount: 2
Fore
SplineSet
155 209 m 3
 155 163 156.369805457 118.015252649 159 74 c 0
 160.611655031 47.0295982963 174.211153214 20.4611033554 193 17 c 0
 205.543496778 14.6893558567 226 11.75 241 10 c 1
 242 -3 l 1
 222.647058823 -2.66666666667 169.800262573 1 148 1 c 3
 106.898876405 1 69.7752808989 -1.47619047619 30 -3 c 5
 28 -1.25 28 3.125 30 11 c 5
 69 16 l 0
 79 18.0061919505 82.2287572269 23.6677504903 84 34 c 0
 92.5714285714 84 96 132 96 185 c 3
 96 222 93.9438273778 258.032664684 91 295 c 0
 89.330453574 315.965455727 82.75 337 58 337 c 3
 49.6923076923 337 42.3076923077 336.142857143 34 335 c 1
 30 347 l 1
 77 364 128 396 160 424 c 1
 170 419 l 1
 168 402 164 383 162 363 c 0
 157 313 155 258 155 209 c 3
EndSplineSet
Validated: 1
Substitution2: "case-1" I
Substitution2: "pcap-1" i.pcap
Substitution2: "smcp-1" i.smcp
EndChar

StartChar: uniFB01
Encoding: 64257 64257 51
Width: 549
VWidth: 1159
Flags: W
HStem: -6 16<313.748 354> -4 22<18 42 164.809 250> 373 27<20 90 157 353.125> 404 20G<428.672 455> 707 43<248.885 361.623>
VStem: 90 66<24.75 373 400 587.142> 381 59<21.5603 353.569>
LayerCount: 2
Fore
SplineSet
328 370 m 0xbe
 270.257519794 373 214.072038032 371.858559239 157 373 c 1
 157 309 156 244 156 180 c 0
 156 132 158.384056901 82.1594309899 163 36 c 0
 165 16 183.976203958 18 205 18 c 0
 211 18 240 17 250 16 c 1
 250 -4 l 1x7e
 217 -4 172 0 139 0 c 0
 100 0 56 -2 18 -6 c 1xbe
 18 12 l 1
 42 16 l 2
 84.8108108108 23.1351351351 87.3224767817 43.9935604664 88 86 c 0
 89 148 90 210 90 273 c 0
 90 304 90 342 90 373 c 1
 67 372 41 371 20 371 c 1
 20 400 l 1
 91 400 l 1
 92 457 93.3318856277 510.926673888 104 560 c 0
 119 629 156.700692095 663.065235131 205 700 c 0
 239 726 274 750 328 750 c 0
 379.957446809 750 428.765957447 726.130434783 476 689 c 1
 491 673 461 638 454 634 c 1
 385.75 665.285714286 356.453125 707 272 707 c 3
 186 707 171.017640704 604.135245397 162 535 c 0
 156 489 156 447 156 400 c 1
 307 400 l 2
 370.20610687 400 412.34351145 406.72 445 424 c 1
 455 419 l 1
 453 402 449 383 447 363 c 0
 442 313 440 258 440 209 c 0
 440 163 442.369805457 118.015252649 444 74 c 0
 445 47 450 17 478 17 c 0
 490 17 514 18 526 18 c 1x7e
 527 1 l 1
 520 1 500 1 493 1 c 0
 431 1 375 -1 315 -6 c 1
 313 -4 313 1 315 10 c 1
 354 15 l 2
 364.948253558 16.403622251 367.133651948 23.1134603776 369 34 c 0
 377.571814904 84 381 132 381 185 c 4
 381 222 377.694256107 257.92909714 376 295 c 0
 374.286132812 332.5 363.951510689 368.132145836 328 370 c 0xbe
EndSplineSet
Validated: 33
LCarets2: 1 298
Ligature2: "liga-1" f i
EndChar

StartChar: uni0237
Encoding: 567 567 52
Width: 271
VWidth: 1159
Flags: MW
VStem: -27 27<-331 -293> 82 68<-160 327>
LayerCount: 2
Fore
SplineSet
25 -333 m 5
 25 -303 40 -273 54 -253 c 4
 75 -223 101 -195 111 -157 c 4
 123 -111 124 1 124 77 c 7
 124 135 123 192 119 250 c 4
 118 283 115 330 79 330 c 7
 69 330 57 327 47 325 c 5
 43 338 l 5
 101 359 148 390 186 424 c 5
 200 416 l 5
 190 394 187 364 187 342 c 4
 186 295 185 247 185 200 c 4
 184 86 183 -29 182 -145 c 4
 182 -166 176 -180 166 -192 c 4
 145 -220 119 -246 91 -268 c 4
 70 -284 48 -297 42 -338 c 5
 25 -333 l 5
EndSplineSet
Validated: 1
EndChar

StartChar: U
Encoding: 85 85 53
Width: 827
VWidth: 1159
Flags: W
HStem: -16 33<304.712 522.917> 688 19<24.2632 80.625 217.522 287 737.19 788>
VStem: 103 75<119.571 665.877>
AnchorPoint: "Top" 415 671 basechar 0
AnchorPoint: "Ogonek" 502 -2 basechar 0
LayerCount: 2
Fore
SplineSet
25 707 m 1
 59.4213277102 702.813622306 100.117309591 701.223653233 142.357679757 701.223653233 c 3
 190.926920962 701.223653233 241.538011559 703.325765386 287 706 c 1
 288 686 l 1
 213 686 188 679 183 615 c 0
 173 503 177 374 178 235 c 1
 178 180 187 139 205 108 c 0
 238 54 305 17 410 17 c 0
 523 17 598 59 625 96 c 0
 650 130 663 177 670 257 c 0
 680 357 687 509 667 647 c 0
 662 681 627 683 577 683 c 1
 578 705 l 1
 594.666666667 702.333333333 662.888888889 700.111111111 720.148148148 700.111111111 c 3
 748.777777778 700.111111111 774.666666667 700.666666667 790 702 c 1
 788 684 l 1
 738 688 715 680 715 637 c 0
 714 525 715 389 701 256 c 0
 694 179 683 125 649 76 c 0
 611 22 517 -16 405 -16 c 0
 281 -16 220 5 160 62 c 0
 124 95 99 139 103 232 c 0
 108 391 105 575 100 630 c 0
 94 689 80 682 23 688 c 1
 25 707 l 1
EndSplineSet
Validated: 33
Position2: "cpsp-1" dx=0 dy=0 dh=50 dv=100
Substitution2: "c2pc-1" u.pcap
Substitution2: "c2sc-1" u.smcp
EndChar

StartChar: V
Encoding: 86 86 54
Width: 858
VWidth: 1159
Flags: W
HStem: 683 21<16 64.7285 198.178 260 613.526 658.654 772.845 811>
AnchorPoint: "Top" 422 662 basechar 0
LayerCount: 2
Fore
SplineSet
260 704 m 1
 263 683 l 1
 211 682 193 675 193 664 c 0
 193 659 198 640 205 622 c 0
 269 467 327 350 440 114 c 1
 570 383 608 458 663 598 c 0
 672 621 675 638 675 649 c 0
 675 666 650 685 611 685 c 1
 614 708 l 1
 657.862197932 703.927081621 706.239653554 702.013634311 747.446238282 702.013634311 c 3
 772.00154117 702.013634311 794.010428656 702.693109897 811 704 c 1
 812 686 l 1
 765 679 736 651 713 603 c 0
 685 545 528 227 466 92 c 0
 454 66 439 21 428 -17 c 1
 412 -17 l 1
 401.86 6.78906 386.181 42.3538 365.794 86 c 0
 281.628 266.188 134.27 567.07 123 588 c 0
 82 667 75 682 15 681 c 1
 16 705 l 1
 46.2059527935 702.303039929 96.4870239885 700.915326711 146.285025615 700.915326711 c 3
 188.809491355 700.915326711 230.981696893 701.927264064 260 704 c 1
EndSplineSet
Validated: 33
Position2: "cpsp-1" dx=0 dy=0 dh=50 dv=100
Substitution2: "c2pc-1" v.pcap
Substitution2: "c2sc-1" v.smcp
EndChar

StartChar: W
Encoding: 87 87 55
Width: 1141
VWidth: 1159
Flags: W
HStem: 692 20<15 63.9811 244.755 292.9 412 448.96 610.181 671 824 890.378 1041.1 1090>
VStem: 727 25<-22 19.2261>
AnchorPoint: "Top" 556 693 basechar 0
LayerCount: 2
Fore
SplineSet
1090 712 m 1
 1090 695 l 1
 1023 696 990.301 636.093 969 578 c 0
 904.417 398.427 820.604 182.256 777.165 57 c 0
 765.451 23.221 756.673 -3.946 752 -22 c 1
 727 -22 l 1
 727.309 -14.2654 715.941 22.377 698.788 73 c 0
 660.499 186.003 593.387 368.673 563 455 c 1
 465.726 250.388 416.972 116.097 386.076 25 c 0
 380.129 7.46384 374.843 -8.47165 370 -23 c 1
 353 -23 l 1
 339.343 16.0865 324.3 60.1074 308.302 107 c 0
 256.357 259.26 194.34 441.796 137 584 c 0
 123.911 616.359 113.334 638.406 102 653.7 c 0
 82.1609 680.47 61.0039 686.545 15 691 c 1
 15 708 l 1
 81.4316403426 708.797179684 116.826455988 702.339345132 160.985509769 702.339345132 c 3
 189.000106567 702.339345132 226.775503176 704.609122173 292 712 c 1
 295 692 l 1
 252 688 207 675 207 648 c 0
 207 628 210 621 215 605 c 0
 240 530 343 241 390 133 c 1
 547 498 l 1
 535 536 496 616 478 649 c 0
 461 680 452 691 411 690 c 1
 412 710.5 l 1
 463.891347051 707.270248109 501.596129803 705.894949067 535.256437189 705.894949067 c 3
 579.760742412 705.894949067 617.194873828 708.299118306 671 712 c 1
 671 692 l 1
 649.885 691.497 622.959 688.872 608 681.262 c 0
 578 666 580.276 649.034 588 622 c 1
 625 511 694 300 768 133 c 1
 829.54 272.512 909.025 506.05 931.593 608 c 0
 945.152 669.256 890 693.5 823 695 c 1
 824 713 l 1
 875.474414855 711.449565818 914.641137401 709.899131635 968.45386958 709.899131635 c 3
 1001.41156079 709.899131635 1039.86292483 710.480694692 1090 712 c 1
EndSplineSet
Validated: 33
Position2: "cpsp-1" dx=0 dy=0 dh=50 dv=100
Substitution2: "c2pc-1" w.pcap
Substitution2: "c2sc-1" w.smcp
EndChar

StartChar: X
Encoding: 88 88 56
Width: 819
VWidth: 1159
Flags: W
HStem: -7.5 23<483 538.325 689.994 741.5> 688 16<657.255 704> 695.5 15.5<28 71.9415 236.935 281 467.765 508.131>
AnchorPoint: "Top" 376 686 basechar 0
LayerCount: 2
Fore
SplineSet
28 711 m 1xa0
 46.3003 711 73.9939 705.9375 165.79849375 705.9375 c 3
 196.400025 705.9375 234.125 706.5 281 708 c 1
 281 691 l 1
 266.131 691.496 247.982 691.009 238.5 688.322 c 0
 221.345 683.46 219.087 669.597 228 654 c 0
 248 618 322 502 397 406 c 1
 466 492 491 529 538 614 c 0
 551.045 636.362 549.586 663.642 530.5 677.313 c 0
 516.886 687.064 495.471 693.417 466 694 c 1
 469 711 l 1xa0
 513.241626518 704.920997883 542.427811031 702.035574373 598.929879382 702.035574373 c 3
 626.079470525 702.035574373 659.535921114 702.701778719 704 704 c 1
 705 688 l 1xc0
 664 690 655 684 630 662 c 0
 600 635 471 461 413 385 c 1
 516.065 243.585 590.361 143.189 664 51.404 c 0
 693.52 14.6096 702 18.5 741.5 15.5 c 1
 743 -7.5 l 1
 705.418963348 -2.71260679587 665.316821989 -0.675509634654 623.626220616 -0.675509634654 c 3
 578.232683304 -0.675509634654 530.955982522 -3.0905449031 483 -7 c 1
 481 13 l 1
 498.294 14.1162 522.588 18.4101 534.5 24.2302 c 0
 563.879 38.5847 546.04 63.9335 531 89 c 0
 485 163 428 240 368 327 c 1
 298 237 242 158 209 106 c 0
 194.971 83.9546 180 58 206.5 31.4358 c 0
 221.157 16.7435 255.513 10.2793 271.5 9 c 1
 268 -10 l 1
 230.047307019 -2.23190494539 183.097954972 0.260191583053 139.569875881 0.260191583053 c 3
 85.0376996917 0.260191583053 35.8752773612 -3.65120196089 16.5 -6 c 1
 15.5 14 l 1
 76.5 12 109 49 123 63 c 0
 178 116 298 281 352 347 c 1
 288 438 214 540 134 635 c 0
 93 683 69.5 696.5 27.5 695.5 c 1
 28 711 l 1xa0
EndSplineSet
Validated: 33
Position2: "cpsp-1" dx=0 dy=0 dh=50 dv=100
Substitution2: "c2pc-1" x.pcap
Substitution2: "c2sc-1" x.smcp
EndChar

StartChar: Y
Encoding: 89 89 57
Width: 749
VWidth: 1159
Flags: W
HStem: -12 21.5<253.012 308.055 485.81 523> 690 18<15 69.3147 217.888 278.5 688.035 726> 696.5 20G<497.667 523.75>
VStem: 346 83<27.9743 355.681>
AnchorPoint: "Top" 379 671 basechar 0
LayerCount: 2
Fore
SplineSet
278.5 690 m 1xd0
 248.682 690.425 237.579 688.611 227.5 685.625 c 0
 203.081 678.391 204.346 654.98 219 633 c 0
 242 597 367 427 411 368 c 1
 484.827 477.588 536.416 553.282 576.418 629.2 c 0
 587.106 649.486 578 664 559.5 676.24 c 0
 547.269 684.333 521.761 691.666 497 692.5 c 1
 501 716.5 l 1xb0
 529.120546488 707.847524158 580.732002668 701.868810394 633.998080621 701.868810394 c 3
 666.918327244 701.868810394 700.470583145 704.152475842 729.5 709.5 c 1
 726 692 l 1
 683 686 645 665 613 619 c 0
 554 537 477 422 427 337 c 1
 427 272 424.219 117.923 429 63 c 0
 432.314 24.934 433 29.5 524 13 c 1
 523 -11 l 1
 492.005494671 -4.28452384547 439.929853375 -0.237545914726 387.105651788 -0.237545914726 c 3
 337.671338144 -0.237545914726 287.581456239 -3.78177650978 253.5 -12 c 1
 252 9.5 l 1
 296.5 16.5 344.56 14.2838 346 69 c 1
 350 148 348 247 346 322 c 1
 310 387 180 568 117 641 c 0
 79 684 58 691 15 691 c 1
 15 712 l 1
 70.2682328225 708.359577479 122.68878317 705.814417448 181.685985056 705.814417448 c 3
 211.822560494 705.814417448 243.675185398 706.478527517 278.5 708 c 1
 278.5 690 l 1xd0
EndSplineSet
Validated: 33
Position2: "cpsp-1" dx=0 dy=0 dh=50 dv=100
Substitution2: "c2pc-1" y.pcap
Substitution2: "c2sc-1" y.smcp
EndChar

StartChar: Z
Encoding: 90 90 58
Width: 739
VWidth: 1159
Flags: W
HStem: 0 36<160 577.489> 649 36.951<430.453 552> 656 34<118.052 547.612> 698.453 20G<63.375 79>
AnchorPoint: "Top" 359 660 basechar 0
LayerCount: 2
Fore
SplineSet
19.75 570.75 m 1xb0
 85 723.25 50.25 715.5 76.5 718.453 c 1
 81.5 702.75 94.1476 691.075 132 690 c 0xb0
 355 683.667 555 686.667 653 685.951 c 0
 664.696 685.865 668.064 688.331 674.5 690.75 c 1
 682.5 678.75 l 1
 678.25 674.75 674 673 672 669 c 0
 539 504 347 250 160 36 c 1
 265 27 401 30 427 31 c 0
 571 38 652 65 695 144 c 1
 711 134 l 1
 687.057 93.2969 657 25 638 -23 c 1
 616 -22 633.025 -6.65302 610 -5.19903 c 0
 478.016 3.13575 226.38 0.972656 29 0 c 1
 26 8 l 1
 54.7336 38.2821 85.3341 71.6152 116.965 107 c 0
 267.86 275.802 442.206 491.296 549.22 645 c 0
 550.152 646.338 551.078 647.671 552 649 c 1xd0
 460 658 264 660 215 656 c 0
 118 649 86.75 641.25 33 555.75 c 1
 19.75 570.75 l 1xb0
EndSplineSet
Validated: 33
Position2: "cpsp-1" dx=0 dy=0 dh=50 dv=100
Substitution2: "c2pc-1" z.pcap
Substitution2: "c2sc-1" z.smcp
EndChar

StartChar: parenleft
Encoding: 40 40 59
Width: 380
VWidth: 1515
Flags: W
VStem: 37 42<50.0709 372.703>
LayerCount: 2
Fore
SplineSet
337 724 m 9
 349 704 l 1
 173 612 79 432 79 214 c 27
 79 -5 161 -169 349 -278 c 9
 339 -301 l 1
 145 -194 37 -20 37 212 c 27
 37 443 149 627 337 724 c 9
EndSplineSet
Validated: 1
Position2: "cpsp-1" dx=0 dy=0 dh=50 dv=100
Position2: "'case' vertical ajustments for all-caps-1" dx=0 dy=125 dh=0 dv=0
EndChar

StartChar: zero
Encoding: 48 48 63
Width: 474
VWidth: 1159
Flags: W
HStem: -5.88965 22.9296<206.822 297.851> 369.96 22.94<182.797 275.301>
VStem: 35.1602 65.2008<118.057 273.999> 373.968 65.032<109.211 280.086>
LayerCount: 2
Fore
SplineSet
221.628 369.96 m 3
 145.488 369.96 100.361 294.086 100.361 219.52 c 3
 100.361 114.696 161.697 17.04 261.697 17.04 c 3
 349.388 17.04 373.968 102.879 373.968 170.96 c 3
 373.968 275.783 321.628 369.96 221.628 369.96 c 3
248.937 392.9 m 3
 358.076 392.9 439 310.324 439 197.9 c 3
 439 86.5713 347.961 -5.88965 228.741 -5.88965 c 3
 115.521 -5.88965 35.1602 81.5713 35.1602 190.9 c 3
 35.1602 301.262 138.776 392.9 248.937 392.9 c 3
EndSplineSet
Validated: 1
Substitution2: "'zero' Slashed Zero lookup 22-1" zero.alt
Substitution2: "dnom-1" zero.denom
Substitution2: "numr-1" zero.numerator
Substitution2: "lnum-1" zero.proportionallining
Substitution2: "tnum-1" zero.tabulartext
EndChar

StartChar: one
Encoding: 49 49 64
Width: 299
VWidth: 1159
Flags: W
HStem: -1 18.7998<47 93.9453 196.564 252.5> 375 17<55.5 110.592> 390.8 20G<206.5 243>
VStem: 124.5 54<32.7806 370.921>
LayerCount: 2
Fore
SplineSet
55.5 392 m 1xd0
 107 389.799804688 175 384.799804688 238 410.799804688 c 9xb0
 243 392.799804688 l 1
 202 379.799804688 192 383.799804688 186 345.799804688 c 0
 184.587890625 336.85546875 178.5 325.848632812 178.5 200 c 3
 178.5 144.454101562 179.321289062 59.9755859375 180 49.7998046875 c 0
 182 19.7998046875 217 19.7998046875 253 17.7998046875 c 9
 252.5 -2 l 1
 157 15.7998046875 114 13.7998046875 47 -1 c 9
 46 17.7998046875 l 1
 79 21.7998046875 103 20.7998046875 115 50.7998046875 c 0
 119 59.7998046875 124.5 104 124.5 210 c 3
 124.5 326.80078125 124 337.799804688 114 361.799804688 c 0
 110.559570312 370.056640625 98 377.799804688 54.5 375 c 9
 55.5 392 l 1xd0
EndSplineSet
Validated: 33
Substitution2: "dnom-1" one.denom
Substitution2: "numr-1" one.numerator
Substitution2: "tnum-1" one.tabulartext
Substitution2: "lnum-1" one.proportionallining
EndChar

StartChar: two
Encoding: 50 50 65
Width: 400
VWidth: 1159
Flags: W
HStem: 0.5 52.5<108.609 333.221> 387.5 30<128.552 222.553>
VStem: 252 68<247.597 364.809>
LayerCount: 2
Fore
SplineSet
56 340.5 m 1
 82.6142578125 383.813476562 136.978515625 417.5 192 417.5 c 0
 268 417.5 320 383.5 320 313.5 c 3
 320 250.986328125 258 180.5 103 55 c 1
 224 44.5 258 47.5 323 53 c 1
 354.98828125 53.8720703125 366 77.5 392 117.5 c 1
 404 109.5 l 1
 404 109.5 352 27.5 334 -20.5 c 1
 317 -18 325.052734375 0.5 286 0.5 c 3
 31.982421875 0.5 34 -0.6484375 18 -5 c 1
 13 10 l 1
 60 45.5 252 168.5 252 303.5 c 3
 252 360.5 218 387.5 174 387.5 c 0
 121 387.5 94 357.5 71 329.5 c 1
 56 340.5 l 1
EndSplineSet
Validated: 33
Substitution2: "dnom-1" two.denom
Substitution2: "numr-1" two.numerator
Substitution2: "tnum-1" two.tabulartext
Substitution2: "lnum-1" two.proportionallining
EndChar

StartChar: three
Encoding: 51 51 66
Width: 319
VWidth: 1159
Flags: W
HStem: -223.8 15<44.0667 65.501> 385.2 33<112.572 181.786>
VStem: 219 57<252.996 354.411> 227 61<-76.1465 56.3863>
LayerCount: 2
Fore
SplineSet
43 -208.799804688 m 1xd0
 167 -178.799804688 227 -107.799804688 227 -20.7998046875 c 3xd0
 227 71.2001953125 156 108.200195312 109 129.200195312 c 1
 105 129.200195312 77 114.200195312 63 111 c 1
 57 127 l 1
 116 150 219 197.200195312 219 297.200195312 c 3
 219 355.200195312 164 385.200195312 147 385.200195312 c 3
 106 385.200195312 85 366.200195312 64 349.200195312 c 1
 54 360.200195312 l 1
 77 394.200195312 146 418.200195312 179 418.200195312 c 3
 238 418.200195312 276 364.200195312 276 311.200195312 c 3xe0
 276 264.189453125 237 225.200195312 164 168 c 1
 231 145.200195312 288 91.525390625 288 4 c 3
 288 -144 89 -216.799804688 45 -223.799804688 c 1
 43 -208.799804688 l 1xd0
EndSplineSet
Validated: 1
Substitution2: "dnom-1" three.denom
Substitution2: "numr-1" three.numerator
Substitution2: "tnum-1" three.tabulartext
Substitution2: "lnum-1" three.proportionallining
EndChar

StartChar: four
Encoding: 52 52 67
Width: 469
VWidth: 1159
Flags: W
HStem: -11 21G<7 21 419.519 439.775> 0 41.5<68.2021 275 332 429.905> 401.5 20G<326.434 353>
VStem: 275 57<-182.283 0 41.5 263.192>
LayerCount: 2
Fore
SplineSet
276 41.5 m 17x70
 276 125 278.81640625 230.055664062 270 286.5 c 9
 270 286.5 141.0703125 126.26953125 58 41.5 c 9
 276 41.5 l 17x70
353 412.5 m 25
 347.9296875 396.120117188 340.603515625 387.635742188 340 370.5 c 0
 336 257 335.509765625 170.200195312 332 41.5 c 1x70
 409 40 440 39 460 97.5 c 9
 460 97.5 467.3203125 93.83984375 472 91.5 c 9
 472 91.5 448.549804688 28.974609375 431 -11 c 1xb0
 408.038085938 1.591796875 359.772460938 1.060546875 332 1 c 1
 331.793945312 -73.654296875 334.56640625 -158.471679688 339 -183.5 c 1
 300 -207 273 -225 259 -250.5 c 9
 259 -250.5 249.509765625 -246.349609375 246 -240.5 c 1
 278 -181 274.592773438 -116.307617188 275 0 c 1
 91 0 35 -1 7 -9 c 9
 7 -9 5.0703125 -1.2900390625 0 3 c 1
 15 19 315.8671875 367 337 421.5 c 9
 353 412.5 l 25
EndSplineSet
Validated: 33
Substitution2: "dnom-1" four.denom
Substitution2: "numr-1" four.numerator
Substitution2: "tnum-1" four.tabulartext
Substitution2: "lnum-1" four.proportionallining
EndChar

StartChar: five
Encoding: 53 53 68
Width: 355
VWidth: 1159
Flags: W
HStem: -215 15<32 67.9461> 335.5 63<95 276.596>
VStem: 233 58<-41.5478 96.89>
LayerCount: 2
Fore
SplineSet
83 393.5 m 9
 150.860351562 395.450195312 241.5 396 257 398.5 c 0
 283.412109375 402.759765625 292.110351562 420.610351562 312 440.5 c 9
 312 440.5 319.3203125 436.83984375 324 434.5 c 9
 296.700195312 395.889648438 271.5 335 254 335.5 c 0
 223.475585938 336.372070312 157.009765625 332.5 95 332.5 c 9
 95 332.5 90.509765625 259.299804688 87 212.5 c 1
 169.5 219 291 176.166015625 291 48.5 c 3
 291 -95.595703125 137 -206 32 -215 c 9
 32 -215 32.33984375 -205.849609375 30 -200 c 1
 120 -197 233 -92.1005859375 233 28 c 3
 233 87.0654296875 189.5 164 58 152 c 1
 67.5 208 79.359375 305.161132812 83 393.5 c 9
EndSplineSet
Validated: 33
Substitution2: "dnom-1" five.denom
Substitution2: "numr-1" five.numerator
Substitution2: "tnum-1" five.tabulartext
Substitution2: "lnum-1" five.proportionallining
EndChar

StartChar: six
Encoding: 54 54 69
Width: 446
VWidth: 1159
Flags: W
HStem: -10 28<205.382 291.277> 326 38<198.088 284.145>
VStem: 43 62<125.59 348.209> 363 48<96.5611 235.991>
LayerCount: 2
Fore
SplineSet
341 630 m 9
 341 630 347.099609375 621.459960938 351 616 c 1
 191 530 105 417.932617188 105 244 c 27
 105 136.456054688 155.456054688 18 263 18 c 27
 322.728515625 18 363 74.2705078125 363 134 c 27
 363 227.599609375 312.599609375 326 219 326 c 3
 191.620117188 326 171 310 151 288 c 1
 141 296 l 1
 145 314 207.845703125 364 263 364 c 3
 338 364 411 276.702148438 411 178 c 3
 411 75.951171875 317.0234375 -10 229 -10 c 3
 103.85546875 -10 43 121.913085938 43 214 c 3
 43 413.572265625 167 572 341 630 c 9
EndSplineSet
Validated: 1
Substitution2: "dnom-1" six.denom
Substitution2: "numr-1" six.numerator
Substitution2: "tnum-1" six.tabulartext
Substitution2: "lnum-1" six.proportionallining
EndChar

StartChar: seven
Encoding: 55 55 70
Width: 452
VWidth: 1159
Flags: W
HStem: 344 62<81.5133 354.044> 402 20G<69 86.5>
LayerCount: 2
Fore
SplineSet
81 422 m 17x40
 92 406 99.7080078125 406.55078125 114 406 c 24
 242.606445312 401.040039062 430 404 444 408 c 9
 444 408 448.879882812 397.900390625 452 394 c 1
 416 364 156 -132 160 -170 c 9
 160 -170 120.1796875 -167.219726562 96 -168 c 1
 196 0 269.813476562 127.745117188 368 322 c 0
 371.623046875 329.166992188 365.994140625 339.235351562 358 340 c 24
 272.576171875 348.170898438 254 354 138 344 c 0x80
 92.2822265625 340.05859375 59 350 42 288 c 9
 42 288 33.240234375 290.440429688 27 292 c 9
 27 292 63 390 69 421 c 9
 81 422 l 17x40
EndSplineSet
Validated: 33
Substitution2: "dnom-1" seven.denom
Substitution2: "numr-1" seven.numerator
Substitution2: "tnum-1" seven.tabulartext
Substitution2: "lnum-1" seven.proportionallining
EndChar

StartChar: eight
Encoding: 56 56 71
Width: 432
VWidth: 1159
UnlinkRmOvrlpSave: 1
Flags: W
HStem: -7 16<200.474 265.626> 615 16<158.063 228.474>
VStem: 42 62<92.0718 214.135> 73 35<472.352 563.894> 308 49<426.723 546.993> 336 56<78.9086 205.98>
LayerCount: 2
Fore
SplineSet
192 615 m 3xe8
 146.759765625 615 108 585.240234375 108 540 c 3
 108 362.983398438 392 350.016601562 392 155 c 3xd4
 392 61.1337890625 307.866210938 -7 214 -7 c 27
 127.5078125 -7 42 46.5078125 42 133 c 3
 42 317.173828125 308 326.985351562 308 461 c 3
 308 525.192382812 269.192382812 615 192 615 c 3xe8
202 631 m 7
 300.356445312 631 357 580.138671875 357 497 c 7
 357 337.97265625 104 333.3203125 104 173 c 3xe8
 104 100.75 164.142578125 9 234 9 c 3
 330.083007812 9 336 83.1669921875 336 115 c 3
 336 198.573242188 296.577148438 250.362304688 220.071289062 308 c 0
 148.931640625 361.594726562 73 411.180664062 73 484 c 3
 73 587.750976562 139.249023438 631 202 631 c 7
EndSplineSet
Substitution2: "dnom-1" eight.denom
Substitution2: "numr-1" eight.numerator
Substitution2: "lnum-1" eight.proportionallining
Substitution2: "tnum-1" eight.tabulartext
EndChar

StartChar: uniFB00
Encoding: 64256 64256 73
Width: 570
VWidth: 1159
Flags: W
HStem: -4 20<18 42 166.593 249 287 337.498 434.593 518> 371 29<20 90 157.061 358 425 575> 687 43<248.904 361.523> 707 43<516.885 627.422>
VStem: 90 66<24.2694 373 400 567.142> 358 66<25.254 373 400 587.411>
LayerCount: 2
Back
SplineSet
328 730 m 7
 361 730 392 721 422 707 c 5
 437 691 407 656 400 652 c 5
 352 667 311 687 272 687 c 1031
EndSplineSet
Fore
SplineSet
359 400 m 1xec
 360 457 361.331885628 510.926673888 372 560 c 0
 379.757524654 595.684613409 393.586645906 622.025467666 411.813363183 644.251782068 c 1
 374.41860595 663.118329714 311.371575372 687 272 687 c 0
 186 687 172.552608015 583.917649874 162 515 c 0
 156 475.814814815 156 440.037037037 156 400 c 1
 156 400 240 400 294 400 c 27
 319 400 359 400 359 400 c 1xec
457.276771265 687.716658463 m 1
 462.37530251 691.81032168 467.621947931 695.887371947 473 700 c 0
 507 726 542 750 596 750 c 0
 629 750 660 741 690 727 c 1
 705 711 675 676 668 672 c 1
 620 687 579 707 540 707 c 0xdc
 454 707 439.017640704 604.135245397 430 535 c 0
 424 489 424 447 424 400 c 1
 575 400 l 1
 575 370 l 1
 425 373 l 1
 425 309 424 244 424 180 c 0
 424 132 426.384056901 82.1594309899 431 36 c 0
 433 16 451.976203958 18 473 18 c 0
 479 18 508 17 518 16 c 1
 518 -4 l 1
 485 -4 440 0 407 0 c 0
 368.32231405 0 324.685950413 -1 287 -3 c 1
 287 16 l 1
 310 17 l 1
 353 22.9142857143 355.332150161 44.593310002 356 86 c 0
 357 148 358 210 358 273 c 0
 358 304 358 342 358 373 c 1
 336.971428571 372 319 371 294 371 c 27
 241 371 157 373 157 373 c 1
 157 309 156 244 156 180 c 0
 156 132 158.384056901 82.1594309899 163 36 c 0
 165 16 183.976203958 18 205 18 c 0
 210.866666667 18 239.222222222 17 249 16 c 1
 249 -4 l 1
 216.297297297 -4 171.702702703 0 139 0 c 0
 100 0 56 -2 18 -6 c 1
 18 12 l 1
 42 16 l 2
 85 22 87.3224767817 43.9935604664 88 86 c 0
 89 148 90 210 90 273 c 0
 90 304 90 342 90 373 c 1
 67 372 41 371 20 371 c 1
 20 400 l 1
 91 400 l 1
 92 449.875 94.5971007788 496.746663583 104 540 c 0
 119 609 156.700692095 643.065235131 205 680 c 0
 239 706 274 730 328 730 c 0
 373.342629616 730 415.996391468 713.516071532 457.276771265 687.716658463 c 1
EndSplineSet
Validated: 33
Substitution2: "salt-1" uniFB00.alt
LCarets2: 1 283
Ligature2: "liga-1" f f
EndChar

StartChar: question
Encoding: 63 63 74
Width: 393
VWidth: 1159
Flags: W
HStem: -17.5 133<112.816 145.483> 605.616 63.3844<71.6187 198.931>
VStem: 39.4463 18.5537<700.259 720.391> 63.5254 133.95<30.4466 64.8792> 122 14<185 216.452> 319 17<414.65 493.902>
LayerCount: 2
Fore
SplineSet
49 603 m 1xec
 51.0546875 619.569335938 51.873046875 633.829101562 51.873046875 646.122070312 c 3
 51.873046875 688.89298904 39.4462890625 704.994623065 39.4462890625 712.575195312 c 3
 39.4462890625 718.8671875 43.5869140625 719.920898438 58 724 c 1
 79 669 79 669 109 669 c 3
 226.251953125 669 336 559.415458937 336 457 c 3
 336 317.691011236 230.497636217 287.357994464 187 276 c 0
 146.231304283 265.531023115 145.125 221 136 185 c 1
 122 185 l 1
 120.273632722 213.357953924 119.188717595 237.723233197 119.188717595 258.138824443 c 3
 119.188717595 310.435627097 126.307768789 336.815166204 148 338 c 0
 219.749023438 342.028822284 319 376.037383178 319 448 c 3
 319 538.275086818 236.317309581 605.615626499 97.7918368556 605.615626499 c 3
 82.2207625405 605.615626499 65.9441104033 604.764773634 49 603 c 1xec
EndSplineSet
Refer: 48 46 N 1 0 0 1 29 0 2
Validated: 1
Position2: "cpsp-1" dx=0 dy=0 dh=50 dv=100
Substitution2: "smcp-1" question.smcp
Substitution2: "pcap-1" question.pcap
EndChar

StartChar: exclam
Encoding: 33 33 75
Width: 277
VWidth: 1159
Flags: W
HStem: -17.5 133<116.816 149.483>
VStem: 67.5254 133.95<30.4466 64.8792> 122 34<209 408.18>
LayerCount: 2
Fore
SplineSet
122 209 m 17xa0
 122 339 118 437 111 533 c 0
 107 580 83 604 85 654 c 1
 166 664 197 689 202 658 c 1
 186 622 188 599 182 530 c 0
 171 405 156 342 156 208 c 9
 122 209 l 17xa0
EndSplineSet
Refer: 48 46 N 1 0 0 1 33 0 2
Validated: 33
Substitution2: "pcap-1" exclam.pcap
Substitution2: "smcp-1" exclam.smcp
Position2: "cpsp-1" dx=0 dy=0 dh=50 dv=100
EndChar

StartChar: paragraph
Encoding: 182 182 76
Width: 605
VWidth: 1159
UnlinkRmOvrlpSave: 1
Flags: W
HStem: -8 21G<335.141 438> 695 46<385.865 530>
VStem: 306 32<235.8 673>
LayerCount: 2
Fore
SplineSet
306 673 m 1
 338 681 l 1
 328 45 l 1
 298 57 l 1
 306 673 l 1
530 741 m 1
 532 695 l 1
 490 692.1875 346.308970517 686.967761728 274 650 c 0
 209.616501946 617.084114209 187 591.047199352 187 289 c 3
 187 142.7 221.842173992 113.697176867 262 80 c 0
 280.511363637 63.619047619 375.125 44.1666666667 443 37 c 1
 434 -8 l 1
 236.281690141 35.3043478261 198.127690704 69.4064209225 144 131 c 0
 86 197 68.7183379876 279.143475457 41 343 c 0
 36.5415585383 353.271199404 34.3184777375 362.45888078 34.3184777375 371.792270339 c 0
 34.3184777375 380.414173878 36.2155452279 389.160417592 40 399 c 0
 70 477 121.142297883 586.795128918 222 657 c 0
 324 728 530 741 530 741 c 1
EndSplineSet
Position2: "cpsp-1" dx=0 dy=0 dh=50 dv=100
EndChar

StartChar: ampersand
Encoding: 38 38 78
Width: 676
VWidth: 1159
Flags: W
HStem: -11 54<156.653 298.893> -5 39<526.931 601.526> 474 18<596.913 638>
VStem: 17 69<117.949 262.636> 81 35<482.539 566.363>
LayerCount: 2
Fore
SplineSet
188 368 m 1xb0
 122 338 81 299 81 219 c 3
 81 106 145 43 242 43 c 3
 312 43 358 103 391 142 c 1
 321 299 284 322 188 368 c 1xb0
192 608 m 0
 161 608 114 579 114 530 c 0x28
 114 471 163 434 227 414 c 1
 270 441 296 463 296 488 c 0
 296 548 254 608 192 608 c 0
638 474 m 1
 597 474 583 467 566 426 c 0
 530.644 340.73 492 255 445 175 c 1
 486 69 526 29 571 29 c 0
 608 29 642 90 656 121 c 1
 672 112 l 1
 640 43 609 -5 530 -5 c 0x68
 477 -5 430 53 403 116 c 1
 379 84 316 -11 199 -11 c 0
 80 -11 17 85 17 172 c 0xb0
 17 274 88 345 169 378 c 1
 121 404 81 448 81 506 c 0
 81 593 160 616 231 653 c 1
 316 623 357 575 351 498 c 1
 339 468 293 436 249 406 c 1
 350 367 398 288 434 206 c 1
 472 269 528 394 531 453 c 0
 532.355 479.649 505 494 485 501 c 1
 488 514 l 1
 530 498 588 487 638 488 c 1
 638 474 l 1
EndSplineSet
Validated: 33
Substitution2: "pcap-1" ampersand.pcap
Substitution2: "smcp-1" ampersand.smcp
Position2: "cpsp-1" dx=0 dy=0 dh=50 dv=100
EndChar

StartChar: quotesingle
Encoding: 39 39 79
Width: 201
VWidth: 1159
Flags: W
HStem: 445.7 254<91 107>
VStem: 57 84<560.903 699.7> 91 16<445.7 531.412>
LayerCount: 2
Fore
SplineSet
57 699.700195312 m 1xc0
 141 699.700195312 l 1xc0
 139.744428571 630.734195312 110.237285714 557.03422607 107 445.700195312 c 1
 91 445.700195312 l 1xa0
 87.6128714286 556.91122607 58.4442714286 630.890195312 57 699.700195312 c 1xc0
EndSplineSet
Validated: 1
Position2: "cpsp-1" dx=0 dy=0 dh=7 dv=14
EndChar

StartChar: bracketleft
Encoding: 91 91 85
Width: 246
VWidth: 1515
Flags: W
HStem: -230 17<130.545 219> 700 17<137.917 219>
VStem: 37 43<-202 688>
LayerCount: 2
Fore
SplineSet
80 688 m 1
 80 -202 l 1
 219 -213 l 1
 219 -230 l 1
 37 -230 l 1
 37 717 l 1
 219 717 l 1
 219 700 l 1
 80 688 l 1
EndSplineSet
Validated: 1
Position2: "cpsp-1" dx=0 dy=0 dh=50 dv=100
Position2: "'case' vertical ajustments for all-caps-1" dx=0 dy=90 dh=0 dv=0
EndChar

StartChar: asterisk
Encoding: 42 42 87
Width: 362
VWidth: 1159
Flags: W
HStem: 403.953 21G<240.417 271.479>
VStem: 136 75<624.196 692.944>
LayerCount: 2
Fore
SplineSet
186.306 531.294 m 1
 149.52 472.409 168.195 434.138 138.283 389.258 c 1
 124.17 383.443 92.6943 401.367 77.6064 433.342 c 1
 102.692 469.937 130.519 470.524 177.814 537.019 c 1
 110.444 553.81 79.8174 524.22 27.8906 538.8 c 1
 17.999 550.426 25.3193 585.899 51.0674 610.129 c 1
 93.6221 597.58 102.78 571.296 180.635 546.863 c 1
 175.785 616.125 138.18 636.109 136 690 c 1
 144 703 180 707 211 690 c 1
 212.215 645.649 190.048 628.818 190.87 547.223 c 1
 255.242 573.238 262.629 615.18 313.208 633.905 c 1
 328.044 630.314 342.973 597.312 336.384 562.576 c 1
 294.58 547.716 271.722 563.597 194.374 537.601 c 1
 239.009 484.418 281.179 490.354 314.618 448.037 c 1
 315.788 432.817 289.015 408.421 253.942 403.953 c 1
 226.891 439.119 234.931 465.765 186.306 531.294 c 1
EndSplineSet
Validated: 33
EndChar

StartChar: Acute
Encoding: 58018 58018 90
Width: 222
VWidth: 1159
Flags: W
HStem: 742.3 169.7
VStem: 53.5 127
AnchorPoint: "Top" 64 699 mark 0
LayerCount: 2
Fore
SplineSet
53.5 754.3 m 21
 74.5 808.3 95 861 128 912 c 13
 128 912 159.44 895.56 180.5 882.3 c 5
 138.5 838.3 110.5 822.3 66.5 742.3 c 13
 53.5 754.3 l 21
EndSplineSet
Validated: 1
EndChar

StartChar: acutecomb
Encoding: 769 769 92
Width: 0
VWidth: 1159
Flags: W
HStem: 494 159
VStem: -226 177
AnchorPoint: "Top" -198.5 470 mark 0
LayerCount: 2
Fore
SplineSet
-226 504 m 21
 -194 548 -130.805664062 615.5234375 -83 653 c 13
 -83 653 -64.595703125 639.393554688 -49 620 c 5
 -103.037109375 592.0703125 -160 550 -216 494 c 13
 -226 504 l 21
EndSplineSet
Validated: 1
EndChar

StartChar: uni0302
Encoding: 770 770 93
Width: 0
VWidth: 1159
Flags: W
HStem: 491 162
VStem: -300 205
AnchorPoint: "Top" -198.5 469 mark 0
LayerCount: 2
Fore
SplineSet
-95 497 m 5
 -106 491 l 5
 -197.5 603.345703125 l 5
 -289 491 l 5
 -300 497 l 5
 -209 653 l 5
 -186 653 l 5
 -95 497 l 5
EndSplineSet
Validated: 1
EndChar

StartChar: gravecomb
Encoding: 768 768 94
Width: 0
VWidth: 1159
Flags: W
HStem: 494 159
VStem: -350 177
AnchorPoint: "Top" -198.5 469 mark 0
LayerCount: 2
Fore
SplineSet
-173 504 m 13
 -183 494 l 21
 -239 550 -295.963 592.07 -350 620 c 5
 -334.404 639.394 -316 653 -316 653 c 21
 -268.194 615.523 -205 548 -173 504 c 13
EndSplineSet
Validated: 1
EndChar

StartChar: Grave
Encoding: 58019 58019 96
Width: 222
VWidth: 1159
Flags: W
HStem: 742.3 169.7
VStem: -53.5 127
AnchorPoint: "Top" 64 699 mark 0
LayerCount: 2
Fore
SplineSet
73.5 754.3 m 9
 60.5 742.3 l 17
 16.5 822.3 -11.5 838.3 -53.5 882.3 c 1
 -32.4404 895.56 -1 912 -1 912 c 17
 32 861 52.5 808.3 73.5 754.3 c 9
EndSplineSet
Validated: 1
EndChar

StartChar: uni030A
Encoding: 778 778 98
Width: 0
VWidth: 1159
Flags: W
HStem: 485.037 21.2695<-231.073 -166.029> 615.693 21.2695<-229.971 -164.927>
VStem: -275.451 21.6846<527.554 592.506> -142.233 21.6846<529.494 593.339>
AnchorPoint: "Top" -198.5 455 mark 0
LayerCount: 2
Fore
SplineSet
-198 615.693359375 m 4
 -226.954793126 615.693359375 -253.766601562 592.100094951 -253.766601562 559.927734375 c 4
 -253.766601562 527.754678124 -228.026785467 506.306640625 -198 506.306640625 c 4
 -169.045206874 506.306640625 -142.233398438 529.899905049 -142.233398438 562.072265625 c 4
 -142.233398438 592.100318125 -167.973214533 615.693359375 -198 615.693359375 c 4
-198 636.962890625 m 4
 -156.295907453 636.962890625 -120.548828125 604.193041884 -120.548828125 562.490234375 c 4
 -120.548828125 517.80616226 -157.784910757 485.037109375 -198 485.037109375 c 4
 -239.704092547 485.037109375 -275.451171875 514.826971871 -275.451171875 559.509765625 c 4
 -275.451171875 604.192837738 -238.215089243 636.962890625 -198 636.962890625 c 4
EndSplineSet
Validated: 1
EndChar

StartChar: uni031B
Encoding: 795 795 99
Width: 0
VWidth: 1159
Flags: W
HStem: 330 18<-84.5 -47.4434>
VStem: 12.8818 62.7432<400.38 466.056>
AnchorPoint: "Horn" -73.5 341.8 mark 0
LayerCount: 2
Fore
SplineSet
12.8818359375 414.884765625 m 7
 12.8818359375 428.595703125 2.005859375 439.401367188 -15.744140625 450.72265625 c 5
 -6.4501953125 476.256835938 12.16015625 492.322265625 32.20703125 492.322265625 c 7
 58.421875 492.322265625 75.625 468.857421875 75.625 444.775390625 c 7
 75.625 399.205078125 -15.2378927954 330.428 -84.5 330 c 1
 -85 348 l 1
 -41.3873810375 349.464 12.8818359375 384.092773438 12.8818359375 414.884765625 c 7
EndSplineSet
Validated: 1
EndChar

StartChar: tildecomb
Encoding: 771 771 100
Width: 0
VWidth: 1159
Flags: W
HStem: 484.993 21G<-322.167 -302.775> 493.333 44.667<-235.913 -126.624> 518.115 44.2051<-285.912 -175.86>
VStem: -322.167 227.589
AnchorPoint: "Top" -210 442 mark 0
LayerCount: 2
Fore
SplineSet
-322.166992188 494.41796875 m 5xb0
 -299.000093977 533.000164069 -264.009247716 562.3203125 -258.155273438 562.3203125 c 7xb0
 -225.049194827 562.3203125 -175.223076514 538 -143 538 c 7
 -135.000101886 538 -117.978318675 554.430813481 -108.6484375 574.475585938 c 5
 -94.578125 565.405273438 l 5
 -110.999926626 529.000139265 -142.421738394 493.333007812 -152.221679688 493.333007812 c 7x50
 -183.838770142 493.333007812 -242.465937872 518.115234375 -272.374023438 518.115234375 c 7
 -282.229101266 518.115234375 -297.562222357 497.728191097 -307.987304688 484.993164062 c 5
 -322.166992188 494.41796875 l 5xb0
EndSplineSet
Validated: 1
EndChar

StartChar: uni030B
Encoding: 779 779 102
Width: 0
VWidth: 1159
Flags: HW
AnchorPoint: "Top" -198.5 465 mark 0
LayerCount: 2
Back
SplineSet
-246.166992188 507.637695312 m 21
 -231.145507812 559.928710938 -194.856445312 644.993164062 -162.751953125 696.560546875 c 13
 -162.751953125 696.560546875 -140.803710938 690.069335938 -119.515625 677.1796875 c 5
 -160.741210938 632.452148438 -199.879882812 573.436523438 -233.349609375 501.661132812 c 13
 -246.166992188 507.637695312 l 21
-172.0546875 499.78125 m 21
 -148.180664062 548.668945312 -97.671875 626.140625 -57.1005859375 671.348632812 c 13
 -57.1005859375 671.348632812 -36.61328125 661.14453125 -17.88671875 644.75390625 c 5
 -66.2529296875 607.865234375 -115.044921875 556.54296875 -160.469726562 491.668945312 c 13
 -172.0546875 499.78125 l 21
EndSplineSet
Fore
Refer: 92 769 N 0.939693 0.34202 -0.34202 0.939693 139.205 112.161 2
Refer: 92 769 N 0.984808 0.173648 -0.173648 0.984808 137.612 42.7705 2
EndChar

StartChar: uni030F
Encoding: 783 783 104
Width: 0
VWidth: 1159
Flags: W
AnchorPoint: "Top" -198.5 525 mark 0
LayerCount: 2
Back
SplineSet
-223.380859375 498.26171875 m 13
 -234.965820312 490.150390625 l 21
 -280.390625 555.0234375 -329.182617188 606.345703125 -377.548828125 643.235351562 c 5
 -358.822265625 659.625976562 -338.334960938 669.830078125 -338.334960938 669.830078125 c 21
 -297.762695312 624.620117188 -247.254882812 547.149414062 -223.380859375 498.26171875 c 13
-152.616210938 507.856445312 m 13
 -165.43359375 501.879882812 l 21
 -198.90234375 573.65625 -238.041992188 632.670898438 -279.267578125 677.3984375 c 5
 -257.978515625 690.2890625 -236.03125 696.779296875 -236.03125 696.779296875 c 21
 -203.92578125 645.211914062 -167.637695312 560.147460938 -152.616210938 507.856445312 c 13
EndSplineSet
Fore
Refer: 94 768 N 0.939693 -0.34202 0.34202 0.939693 -162.906 -24.5365 2
Refer: 94 768 N 0.984808 -0.173648 0.173648 0.984808 -141.109 -28.0343 2
Validated: 1
EndChar

StartChar: uni0306
Encoding: 774 774 105
Width: 0
VWidth: 1159
Flags: W
HStem: 503.983 33.7656<-261.653 -133.958>
VStem: -308.065 11.4004<574.652 581.381>
AnchorPoint: "Top" -198.5 453 mark 0
LayerCount: 2
Fore
SplineSet
-308.065429688 576.795898438 m 5
 -296.665039062 584.262695312 l 5
 -284.22580765 553.282913661 -241.079956781 537.749023438 -197.81640625 537.749023438 c 7
 -154.634425079 537.749023438 -111.335187578 553.224413341 -98.3349609375 584.262695312 c 5
 -86.9345703125 576.795898438 l 5
 -103.022242233 528.254231771 -150.55350927 503.983398438 -197.938476562 503.983398438 c 7
 -245.323807589 503.983398438 -292.562837747 528.254231771 -308.065429688 576.795898438 c 5
EndSplineSet
Validated: 1
EndChar

StartChar: uni030D
Encoding: 781 781 106
Width: 0
VWidth: 1159
Flags: W
AnchorPoint: "Top" -198.5 453 mark 0
LayerCount: 2
Back
SplineSet
-212.5 590.7 m 1
 -183.5 590.7 l 1
 -183.5 433.7 l 1
 -212.5 433.7 l 1
 -212.5 590.7 l 1
EndSplineSet
Fore
Refer: 1971 58114 S 0 0.177 -0.956522 0 -198 494 2
Validated: 1
EndChar

StartChar: uni0313
Encoding: 787 787 111
Width: 0
VWidth: 1159
Flags: W
HStem: 452.953 187.434
VStem: -212.096 108.5<569.364 602.272>
AnchorPoint: "Top" -198.5 414 mark 0
LayerCount: 2
Fore
SplineSet
-205.33203125 452.953125 m 1
 -211.974609375 463.280273438 l 1
 -185.810546875 479.440429688 -152.84375 516.497070312 -163.6171875 540.352539062 c 0
 -171.3125 557.280273438 -188.240234375 568.823242188 -204.400390625 577.288085938 c 0
 -208.248046875 578.827148438 -212.095703125 581.905273438 -212.095703125 586.522460938 c 3
 -212.095703125 591.139648438 -208.248046875 592.677734375 -204.400390625 594.216796875 c 0
 -188.240234375 602.681640625 -175.9296875 614.993164062 -167.46484375 631.153320312 c 0
 -165.92578125 635.000976562 -163.6171875 640.38671875 -159 640.38671875 c 3
 -154.3828125 640.38671875 -152.07421875 635.000976562 -150.53515625 631.153320312 c 0
 -142.071289062 614.993164062 -128.219726562 602.681640625 -112.060546875 594.216796875 c 0
 -108.212890625 592.677734375 -103.595703125 591.139648438 -103.595703125 586.522460938 c 3
 -103.595703125 581.905273438 -114.53125 502.970703125 -205.33203125 452.953125 c 1
EndSplineSet
Validated: 33
EndChar

StartChar: uni0315
Encoding: 789 789 113
Width: 0
VWidth: 1159
Flags: W
HStem: 452.494 200.751
VStem: -49.75 41<581.48 644.952>
AnchorPoint: "TopRight" -110.5 531 mark 0
LayerCount: 2
Fore
SplineSet
-49.75 653.245117188 m 1
 -8.75 643.245117188 l 1
 -22.3867979021 580.436585347 -59.6085214452 503.670714276 -112 452.494140625 c 1
 -120 462.494140625 l 1
 -78.6764581132 519.264899384 -58.8145298113 584.57512189 -49.75 653.245117188 c 1
EndSplineSet
Validated: 1
EndChar

StartChar: Circumflex
Encoding: 58020 58020 159
Width: 281
VWidth: 1159
Flags: MW
HStem: 751.855 147.545
VStem: 16.4951 248.01
AnchorPoint: "Top" 140 699 mark 0
LayerCount: 2
Fore
SplineSet
264.505 761.361 m 1
 251.097 751.855 l 1
 140.5 843.263 l 1
 29.9033 751.855 l 1
 16.4951 761.361 l 1
 129.846 899.4 l 1
 151.154 899.4 l 1
 264.505 761.361 l 1
EndSplineSet
Validated: 1
EndChar

StartChar: Tilde
Encoding: 58022 58022 161
Width: 329
VWidth: 1159
Flags: W
HStem: 766.053 46<140.564 257.339> 791.392 45.446<77.0264 194.191>
VStem: 28.6943 271.867
AnchorPoint: "Top" 165 699 mark 0
LayerCount: 2
Fore
SplineSet
28.6943 761.354 m 1x60
 58.8115 807.653 104.301 836.838 111.91 836.838 c 3x60
 154.948 836.838 200.122 812.053 242.012 812.053 c 3
 252.412 812.053 274.541 831.77 286.669 855.824 c 1
 300.561 846.539 l 1
 279.212 802.854 238.363 766.053 225.624 766.053 c 3xa0
 184.521 766.053 127.906 791.392 89.0254 791.392 c 3
 76.2139 791.392 56.2822 766.926 42.7285 751.645 c 1
 28.6943 761.354 l 1x60
EndSplineSet
Validated: 1
EndChar

StartChar: Breve
Encoding: 58023 58023 162
Width: 321
VWidth: 1159
Flags: W
HStem: 747.448 43.8333<83.0201 236.776>
VStem: 28.7646 263.47
AnchorPoint: "Top" 162 699 mark 0
LayerCount: 2
Fore
SplineSet
28.7646 838.464 m 1
 45.1855 846.798 l 1
 61.3577375961 809.823447593 110.888522965 791.281070636 160.576925308 791.281070636 c 3
 210.167085449 791.281070636 259.91423991 809.750197378 276.814 846.798 c 1
 292.235 838.464 l 1
 271.3205 777.7865 215.529825 747.44775 159.9293125 747.44775 c 3
 104.3288 747.44775 48.91845 777.7865 28.7646 838.464 c 1
EndSplineSet
Validated: 1
EndChar

StartChar: Ring
Encoding: 58026 58026 165
Width: 281
VWidth: 1159
Flags: W
HStem: 746.06 19.5293<106.579 170.445> 878.001 19.5293<108.555 171.007>
VStem: 62.2803 19.9111<789.871 851.688> 196.809 19.9111<791.902 852.604>
AnchorPoint: "Top" 142 699 mark 0
LayerCount: 2
Fore
SplineSet
139.5 878.001 m 0
 109.744 878.001 82.1914 853.755 82.1914 820.692 c 0
 82.1914 787.63 108.643 765.589 139.5 765.589 c 0
 169.256 765.589 196.809 789.835 196.809 822.897 c 0
 196.809 853.755 170.357 878.001 139.5 878.001 c 0
139.5 897.53 m 0
 181.08 897.53 216.72 864.859 216.72 823.28 c 0
 216.72 778.729 179.595 746.06 139.5 746.06 c 0
 97.9199 746.06 62.2803 775.76 62.2803 820.31 c 0
 62.2803 864.859 99.4053 897.53 139.5 897.53 c 0
EndSplineSet
Validated: 1
EndChar

StartChar: Uni030B
Encoding: 58027 58027 166
Width: 300
VWidth: 1159
Flags: W
HStem: 742.3 169.7
VStem: 28.5 243.345
AnchorPoint: "Top" 87 699 mark 0
LayerCount: 2
Fore
SplineSet
28.5 754.299804688 m 17
 49.5 808.299804688 70 861 103 912 c 9
 103 912 134.440429688 895.559570312 155.5 882.299804688 c 1
 113.5 838.299804688 85.5 822.299804688 41.5 742.299804688 c 9
 28.5 754.299804688 l 17
112.970703125 755.4921875 m 17
 148.840820312 800.993164062 183.853515625 845.396484375 230.322265625 884.51953125 c 9
 230.322265625 884.51953125 255.58203125 859.606445312 271.844726562 840.767578125 c 1
 218.815429688 810.970703125 187.361328125 803.85546875 121.893554688 740.215820312 c 9
 112.970703125 755.4921875 l 17
EndSplineSet
Validated: 1
EndChar

StartChar: eogonek
Encoding: 281 281 253
Width: 414
VWidth: 1159
UnlinkRmOvrlpSave: 1
Flags: W
HStem: -293.658 42.1279<263.732 329.689> -7.35581 36.779<186.726 300.798> 395.112 21.0166<177.36 243.956>
VStem: 35.7282 64.1006<115.887 236.107 247.996 296.702> 186.912 56.0879<-231.275 -115.258>
LayerCount: 2
Fore
SplineSet
362.859375 52.54296875 m 5
 277.611512261 -11.5550260391 243 -103.880237222 243 -167 c 7
 243 -220.067559606 271.47943536 -251.530273438 307.515625 -251.530273438 c 7
 321.509012131 -251.530273438 338.310451064 -244.584130641 355.55078125 -229.2578125 c 5
 355.55078125 -229.2578125 361.829583002 -233.972499416 363.349609375 -237.658203125 c 5
 341.9765625 -269.5546875 305.967773438 -293.658203125 273.12109375 -293.658203125 c 7
 227.392888717 -293.658203125 186.912109375 -258.805289088 186.912109375 -200.493164062 c 7
 186.912109375 -141.838912023 231.052953352 -28.3753524841 357.282226562 63.103515625 c 5
 362.859375 52.54296875 l 5
EndSplineSet
Refer: 4 101 N 1 0 0 1 0 0 3
Substitution2: "smcp-1" eogonek.smcp
Substitution2: "case-1" Eogonek
Substitution2: "pcap-1" eogonek.pcap
EndChar

StartChar: uni0328
Encoding: 808 808 254
Width: 0
VWidth: 1159
Flags: W
HStem: -293.658 42.1279<-199.268 -133.311>
VStem: -276.088 56.0879<-231.275 -127.858>
AnchorPoint: "Ogonek" -104.35 21.6582 mark 0
LayerCount: 2
Back
SplineSet
-95.3691 20.543 m 1
 -201.95 -35.7324 -204.25 -107.183 -204.25 -131.732 c 3
 -204.25 -153.328 -189.421 -178.737 -165.931 -178.737 c 3
 -149.988 -178.737 -124.845 -170.789 -105.202 -153.458 c 9
 -97.4023 -160.858 l 1
 -120.598 -205.316 -159.345 -223.865 -189.325 -223.865 c 3
 -216.46 -223.865 -257.458 -214.663 -257.458 -161.567 c 3
 -257.458 -102.31 -200.914 -20.3279 -101.068 30.7617 c 1
 -95.3691 20.543 l 1
EndSplineSet
Fore
SplineSet
-100.140625 12.54296875 m 5
 -185.388487739 -39.8765842008 -220 -115.380448436 -220 -167 c 7
 -220 -220.067559606 -191.52056464 -251.530273438 -155.484375 -251.530273438 c 7
 -141.490987869 -251.530273438 -124.689548936 -244.584130641 -107.44921875 -229.2578125 c 5
 -107.44921875 -229.2578125 -101.170416998 -233.972499416 -99.650390625 -237.658203125 c 5
 -121.0234375 -269.5546875 -157.032226562 -293.658203125 -189.87890625 -293.658203125 c 7
 -235.607111283 -293.658203125 -276.087890625 -258.805289088 -276.087890625 -200.493164062 c 7
 -276.087890625 -150.739517616 -231.947046648 -54.4937105427 -105.717773438 23.103515625 c 5
 -100.140625 12.54296875 l 5
EndSplineSet
Validated: 1
EndChar

StartChar: Aogonek
Encoding: 260 260 255
Width: 719
VWidth: 0
Flags: HW
HStem: -256.515 56.804<448.75 524.105> -4 20<26 54.2745 178.316 229.2 656.807 697> 247 38<229 455>
VStem: 377.549 59.298<-188.305 -85.422>
LayerCount: 2
Fore
SplineSet
229 285 m 1
 282 279 406 280 455 280 c 1
 417 380 384 463 342 565 c 9
 342 565 266 376 229 285 c 1
515 16.6885 m 0
 533.453 24.9199 537.732 41.0712 533 60 c 0
 518 123 492 179 469 242 c 1
 409 246 265 249 213 247 c 1
 185 181 164 137 144 77 c 0
 130 36 168 26 232 11 c 1
 229 -10 l 1
 175.293663316 -3.1646480584 87.2862424651 3.80006722283 26 -4 c 13
 23 16 l 1
 69 22 81 47 92 70 c 0
 142 170 285 513 351 679 c 0
 355 690 358 695 360 710 c 9
 380 708 l 1
 382 699 385 693 389 683 c 0
 466 462 593 130 632 54 c 0
 648 23 665 20 699 14 c 9
 697 -4 l 1
 638.523 1.68258 544.708 1.48926 518.5 -9.5791 c 0
 449.791 -38.5967 436.847 -108.772 436.847 -135.711 c 3
 436.847 -167.727 452.847 -199.711 492.847 -199.711 c 3
 518.847 -199.711 534.847 -190.711 553.346 -168.516 c 9
 560.145 -174.916 l 1
 549.847 -222.711 511.945 -256.515 460.348 -256.515 c 3
 417.842 -256.515 377.549 -227.716 377.549 -173.14 c 3
 377.549 -133.062 392.911 -35.0759 515 16.6885 c 0
EndSplineSet
Position2: "cpsp-1" dx=0 dy=0 dh=50 dv=100
Substitution2: "c2pc-1" aogonek.pcap
Substitution2: "c2sc-1" aogonek.smcp
EndChar

StartChar: Uni0328
Encoding: 58029 58029 257
Width: 0
VWidth: 1159
Flags: W
HStem: -343.415 58.4473<-207.822 -138.48>
VStem: -306.32 74.501<-260.749 -148.02>
AnchorPoint: "Ogonek" -105.35 23.6582 mark 0
LayerCount: 2
Fore
SplineSet
-93.9814453125 20.7158203125 m 1
 -192.016209637 -42.4863330641 -231.819335938 -133.521195807 -231.819335938 -195.758789062 c 3
 -231.819335938 -251.763613171 -199.068243927 -284.967773438 -157.626953125 -284.967773438 c 3
 -141.534614822 -284.967773438 -122.213028364 -278.22720991 -102.38671875 -263.354492188 c 1
 -102.38671875 -263.354492188 -95.1660181126 -268.776765805 -93.41796875 -273.015625 c 1
 -117.996949524 -313.113728762 -159.407017972 -343.415039062 -197.180664062 -343.415039062 c 3
 -255.072080568 -343.415039062 -306.3203125 -303.33424272 -306.3203125 -236.275390625 c 3
 -306.3203125 -127.195219296 -210 -32.9335642425 -108.395507812 32.8603515625 c 1
 -93.9814453125 20.7158203125 l 1
EndSplineSet
Validated: 1
EndChar

StartChar: Eogonek
Encoding: 280 280 258
Width: 639
VWidth: 1159
UnlinkRmOvrlpSave: 1
Flags: W
HStem: -343.415 58.4473<453.178 522.52> -9 19<29.8947 69.7484> 0.0185547 25.0967<228.8 463.924> 346 28<193 384.297> 679.486 23.7578<212.159 441.047> 690 14<41 73.102>
VStem: 354.68 74.501<-260.749 -164.853> 498 16.3662<247.172 300.784 414.044 451.383> 535 19<563 640.939> 608 17<148.735 163.471>
LayerCount: 2
Back
SplineSet
41 704 m 5
 90.1357421875 703.622070312 170.69921875 703.244140625 254.291015625 703.244140625 c 7
 391.861328125 703.244140625 537.630859375 704.267578125 565 708 c 4
 569.579101562 705.7109375 571.483398438 704.276367188 571.483398438 698.485351562 c 7
 571.483398438 686.571289062 563.420898438 656.209960938 554 562 c 5
 535 563 l 5
 539 609 539.532226562 640.071289062 515 653 c 4
 449.80078125 687.362304688 291.6953125 685.543945312 214 668 c 4
 209 667 205 666 204 661 c 4
 197 602 193 440 193 374 c 5
 243 372 406 374 460 381 c 4
 486 385 496 430 502 453 c 5
 519 451 l 5
 515.86328125 425.907226562 514.366210938 385.236328125 514.366210938 344.703125 c 7
 514.366210938 307.702148438 515.614257812 270.815429688 518 246 c 5
 498 245 l 5
 497 294 486 331 456 336 c 4
 370 350 266 348 193 346 c 5
 193 267 191 113 202 54 c 4
 203 48 205 44 209 43 c 4
 225.696289062 35.142578125 284.596679688 25.115234375 350.762695312 25.115234375 c 7
 419.33203125 25.115234375 495.706054688 35.884765625 541 71 c 4
 568 92 592 126 608 167 c 5
 625 161 l 5
 614 125 579 19 568 -6 c 4
 565.977201198 -5.32580348207 558.78939909 -4.66420573609 547.492419711 -4.04076108961 c 5
 463.664389374 -62.7561880532 429.180664063 -141.040348888 429.180664062 -195.758789062 c 4
 429.180664062 -251.763613171 461.931756073 -284.967773438 503.373046875 -284.967773438 c 4
 519.465385178 -284.967773438 538.786971636 -278.22720991 558.61328125 -263.354492188 c 5
 558.61328125 -263.354492188 565.833981887 -268.776765805 567.58203125 -273.015625 c 4
 543.003050476 -313.113728762 501.592982028 -343.415039062 463.819335938 -343.415039062 c 4
 405.927919432 -343.415039062 354.6796875 -303.33424272 354.6796875 -236.275390625 c 4
 354.6796875 -144.477792872 429.411712608 -63.6648055799 516.660476674 -2.74857492331 c 5
 467.517147142 -1.11992128537 389.53802229 0.0185546800899 309.508789062 0.0185546875 c 7
 194.254882812 0.0185546875 74.75 -2.3427734375 31 -9 c 5
 28 10 l 5
 62 16 96 19 101 53 c 4
 112.270507812 137.526367188 117.189453125 256.982421875 117.189453125 376.1171875 c 7
 117.189453125 468.3984375 114.23828125 560.487304688 109 636 c 4
 107 674 82 685 41 690 c 5
 41 704 l 5
EndSplineSet
Fore
SplineSet
41 704 m 1xd7c0
 90.1357421875 703.622070312 170.69921875 703.244140625 254.291015625 703.244140625 c 3
 391.861328125 703.244140625 540.292658277 720.351036255 565 708 c 0
 569.579101562 705.7109375 571.483398438 704.276367188 571.483398438 698.485351562 c 3
 571.483398438 686.571289062 563.420898438 656.209960938 554 562 c 1
 535 563 l 1
 539 609 539.531960921 640.07078502 515 653 c 0
 478.613492287 672.176982309 413.418318408 679.486365834 349.326478006 679.486365834 c 7
 298.575257474 679.486365834 248.515858821 674.903171764 214 668 c 0
 209 667 204.600754955 666.063506047 204 661 c 0
 197 602 193 440 193 374 c 1
 243 372 406.181368591 372.720210553 460 381 c 0
 486 385 496 430 502 453 c 1
 519 451 l 1
 515.86328125 425.907226562 514.366210938 385.236328125 514.366210938 344.703125 c 3
 514.366210938 307.702148438 515.614257812 270.815429688 518 246 c 1
 498 245 l 1
 497 294 486.018654193 331.113242341 456 336 c 0
 370 350 266 348 193 346 c 1
 193 267 192.133321159 113.200073046 202 54 c 0
 203 48 205.26936659 44.7556692061 209 43 c 0
 225.696289062 35.142578125 284.596679688 25.115234375 350.762695312 25.115234375 c 3
 419.33203125 25.115234375 495.76094994 35.8140721756 541 71 c 0
 568 92 592 126 608 167 c 1
 625 161 l 1
 608 72 581.701129546 21.2260834136 555.4921875 -4.041015625 c 0
 485 -72 429.180664062 -141.040421536 429.180664062 -195.758789062 c 0
 429.180664062 -251.763613171 461.931756073 -284.967773438 503.373046875 -284.967773438 c 0
 519.465385178 -284.967773438 538.786971636 -278.22720991 558.61328125 -263.354492188 c 1
 558.61328125 -263.354492188 569.978249877 -269.106438366 567.58203125 -273.015625 c 0
 543.003050476 -313.113728762 501.592982028 -343.415039062 463.819335938 -343.415039062 c 0
 405.927919432 -343.415039062 354.6796875 -303.33424272 354.6796875 -236.275390625 c 0
 354.6796875 -144.47796918 461.239204872 -67 526.66015625 -2.7490234375 c 1
 475.144567268 -1.12010581689 393.401214032 0.0185546875 309.508789062 0.0185546875 c 3xbbc0
 194.254882812 0.0185546875 74.75 -2.3427734375 31 -9 c 1
 28 10 l 1
 62 16 96.4579749207 18.9357957941 101 53 c 0
 112.270507812 137.526367188 117.189453125 256.982421875 117.189453125 376.1171875 c 3
 117.189453125 468.3984375 112.978397031 560.410456405 109 636 c 0
 107 674 82 685 41 690 c 1
 41 704 l 1xd7c0
EndSplineSet
Position2: "cpsp-1" dx=0 dy=0 dh=50 dv=100
Substitution2: "c2pc-1" eogonek.pcap
Substitution2: "c2sc-1" eogonek.smcp
EndChar

StartChar: Iogonek
Encoding: 302 302 259
Width: 373
VWidth: 0
UnlinkRmOvrlpSave: 1
Flags: W
HStem: -265.515 56.804<169.75 245.105> -4 19<31 106.272 256.5 339> 692 19<36 102.034 276.677 346>
VStem: 31 315 98.5488 59.2982<-197.305 -95.6554>
LayerCount: 2
Fore
SplineSet
230.178 1.73438 m 1xe8
 177.049 -26.3652 157.847 -111.9 157.847 -144.711 c 3
 157.847 -176.727 173.847 -208.711 213.847 -208.711 c 3
 239.847 -208.711 255.847 -199.711 274.346 -177.516 c 9
 281.145 -183.916 l 1
 270.847 -231.711 232.945 -265.515 181.348 -265.515 c 3
 138.842 -265.515 98.5488 -236.716 98.5488 -182.14 c 3
 98.5488 -138.458 128.549 -29.9902 225.479 16.4531 c 1
 230.178 1.73438 l 1xe8
EndSplineSet
Refer: 34 73 N 1 0 0 1 0 0 3
Position2: "cpsp-1" dx=0 dy=0 dh=50 dv=100
Substitution2: "c2pc-1" iogonek.pcap
Substitution2: "c2sc-1" iogonek.smcp
EndChar

StartChar: iogonek
Encoding: 303 303 260
Width: 254
VWidth: 0
UnlinkRmOvrlpSave: 1
Flags: W
HStem: -239.523 45.127<116.796 183.039> -7 33<26 80 177 247>
VStem: 56.8916 53.2084<-189.224 -97.8803> 90 71<57 330>
LayerCount: 2
Fore
SplineSet
172.98 4.88477 m 1xe0
 116.399 -51.3906 110.1 -122.841 110.1 -147.391 c 3
 110.1 -168.986 124.929 -194.396 148.419 -194.396 c 3
 164.361 -194.396 189.505 -186.447 209.147 -169.116 c 9
 216.947 -176.517 l 1
 193.752 -220.975 155.005 -239.523 125.024 -239.523 c 3
 97.8896 -239.523 56.8916 -230.321 56.8916 -177.226 c 3
 56.8916 -117.968 106.436 -35.9863 163.281 15.1035 c 1
 172.98 4.88477 l 1xe0
EndSplineSet
Refer: 8 105 N 1 0 0 1 0 0 3
Substitution2: "smcp-1" iogonek.smcp
Substitution2: "case-1" Iogonek
Substitution2: "pcap-1" iogonek.pcap
EndChar

StartChar: uogonek
Encoding: 371 371 262
Width: 512
VWidth: 1159
UnlinkRmOvrlpSave: 1
Flags: W
HStem: -293.658 42.1279<327.732 393.689> -4 43<170.512 261.959> 4.54297 10.5605<416.802 424.979> 26 15<478.103 499.867> 347 12<15 28.3301> 360 18<297 345.329> 387 26G<122 151 410.5 436>
VStem: 71 67<72.8435 345.445> 250.912 56.0879<-231.275 -120.455> 356 67<71.5641 319.205> 363 73<165.286 357.317>
LayerCount: 2
Back
SplineSet
436.73828125 12.201171875 m 1
 351.490418511 -40.2183810758 316.87890625 -115.722245311 316.87890625 -167.341796875 c 3
 316.87890625 -220.409356481 345.35834161 -251.872070312 381.39453125 -251.872070312 c 3
 395.387918381 -251.872070312 412.189357314 -244.925927516 429.4296875 -229.599609375 c 1
 429.4296875 -229.599609375 435.708489252 -234.314296291 437.228515625 -238 c 1
 415.85546875 -269.896484375 379.846679688 -294 347 -294 c 3
 301.271794967 -294 260.791015625 -259.147085963 260.791015625 -200.834960938 c 3
 260.791015625 -151.081314491 304.931859602 -54.8355074179 431.161132812 22.76171875 c 1
 436.73828125 12.201171875 l 1
EndSplineSet
Fore
SplineSet
426.859375 4.54296875 m 1xaf80
 374 -15 307 -75.994140625 307 -167 c 7
 307 -220.067382812 335.479492188 -251.530273438 371.515625 -251.530273438 c 3
 385.508789062 -251.530273438 402.310546875 -244.583984375 419.55078125 -229.2578125 c 1
 419.55078125 -229.2578125 425.829101562 -233.97265625 427.349609375 -237.658203125 c 1
 405.9765625 -269.5546875 369.967773438 -293.658203125 337.12109375 -293.658203125 c 3
 291.392578125 -293.658203125 250.912109375 -258.805664062 250.912109375 -200.493164062 c 3
 250.912109375 -97.99609375 362 -4 421.282226562 15.103515625 c 1
 426.859375 4.54296875 l 1xaf80
EndSplineSet
Refer: 20 117 N 1 0 0 1 0 0 3
Substitution2: "smcp-1" uogonek.smcp
Substitution2: "case-1" Uogonek
Substitution2: "pcap-1" uogonek.pcap
EndChar

StartChar: uni0327
Encoding: 807 807 268
Width: 0
VWidth: 1159
UnlinkRmOvrlpSave: 1
Flags: W
VStem: -195 62.4277<-164.273 -94.0566>
AnchorPoint: "Bottom" -193 -15 mark 0
LayerCount: 2
Fore
SplineSet
-266 -191 m 1
 -262.825195312 -175.997070312 l 1
 -218.803873162 -186.607158929 -176.825195312 -159.242544826 -176.825195312 -120.997070312 c 0
 -176.825195312 -103.291997516 -190.827501009 -75.4681142312 -229.825195312 -86.9970703125 c 1
 -232.948242188 -70.4599609375 l 1
 -229.900381065 -68.4461043853 -226.282210419 -67.3105576699 -223.346679688 -65.0732421875 c 0
 -197.867289195 -45.6541183415 -203.088147258 -42.2677391244 -186.624 5.43262 c 1
 -164.624023438 10.4326171875 l 1
 -164.624023438 10.4326171875 -177.315829758 -44.9175351221 -181.825195312 -54.9970703125 c 1
 -150.304800965 -59.5153623536 -124.397460938 -76.907488989 -124.397460938 -109.42578125 c 0
 -124.397460938 -172.808030088 -203.505287336 -218.096853073 -266 -191 c 1
EndSplineSet
EndChar

StartChar: cedillafloating
Encoding: 58084 58084 269
Width: 0
VWidth: 1159
Flags: W
VStem: -195 63.126<-165.104 -94.3473>
AnchorPoint: "Bottom" -193 -15 mark 0
LayerCount: 2
Fore
SplineSet
-289.175 -200.003 m 1
 -285.141 -177.812 l 1
 -239 -188 -195 -161.724 -195 -125 c 3
 -195 -109.445 -206 -85 -236.636 -95.1289 c 1
 -241.123 -72.4629 l 1
 -199.113 -38.5203 -131.874 -44.0724 -131.874 -109.349 c 3
 -131.874 -179.786 -219.751 -230.116 -289.175 -200.003 c 1
EndSplineSet
Validated: 33
EndChar

StartChar: Uni0327
Encoding: 58030 58030 281
Width: 0
VWidth: 1159
Flags: W
VStem: -194.928 70.897<-182.621 -103.12>
AnchorPoint: "Bottom" -191 -15 mark 0
LayerCount: 2
Fore
SplineSet
-302.112 -226.844 m 1
 -297.393 -200.881 l 1
 -243.408 -212.801 -194.928 -182.057 -194.928 -139.091 c 0
 -194.928 -120.892 -206.823 -92.29 -240.667 -104.142 c 1
 -245.892 -77.6221 l 1
 -241.051 -73.5835 -235.91 -70.2296 -230.581 -67.5294 c 0
 -201.19 -48.4085 -207.089 -43.3329 -187.571 4.44336 c 1
 -142.571 12.4434 l 1
 -142.571 12.4434 -152.525 -33.2849 -173.391 -61.6674 c 1
 -145.899 -69.2159 -124.031 -91.6921 -124.031 -124.709 c 0
 -124.031 -204.066 -223.518 -260.771 -302.112 -226.844 c 1
EndSplineSet
Validated: 33
EndChar

StartChar: Cedillafloating
Encoding: 58085 58085 282
Width: 0
VWidth: 1159
Flags: W
VStem: -194.928 70.8965<-182.621 -103.74>
AnchorPoint: "Bottom" -193 -15 mark 0
LayerCount: 2
Fore
SplineSet
-302.112 -226.844 m 1
 -297.393 -200.881 l 1
 -243.408 -212.801 -194.928 -182.057 -194.928 -139.091 c 3
 -194.928 -120.892 -206.798 -92.29 -240.642 -104.142 c 1
 -245.892 -77.6221 l 1
 -199.032 -34.292 -124.031 -58.5156 -124.031 -124.709 c 3
 -124.031 -204.066 -223.518 -260.771 -302.112 -226.844 c 1
EndSplineSet
Validated: 33
EndChar

StartChar: Uni030F
Encoding: 58034 58034 295
Width: 300
VWidth: 1159
Flags: W
HStem: 727.907 184.093
VStem: -108.738 262.238
AnchorPoint: "Top" 87 699 mark 0
LayerCount: 2
Fore
SplineSet
153.5 754.3 m 9
 126.5 734.3 l 17
 82.5 814.3 66.5 838.3 24.5 882.3 c 1
 45.5596 895.56 79 912 79 912 c 17
 112 861 132.5 808.3 153.5 754.3 c 9
52.0479 754.928 m 9
 32.0752 727.907 l 17
 -33.3916 791.548 -55.71 809.821 -108.738 839.619 c 1
 -92.4766 858.457 -65.3037 883.955 -65.3037 883.955 c 17
 -18.835 844.832 16.1777 800.429 52.0479 754.928 c 9
EndSplineSet
Validated: 1
EndChar

StartChar: uni01EA
Encoding: 490 490 308
Width: 793
VWidth: 0
UnlinkRmOvrlpSave: 1
Flags: W
HStem: -346.889 73.7197<406.804 473.852> -16 33<341.371 514.276> 685 33<297.104 456.595>
VStem: 23 82<266.508 463.741> 315.766 71.875<-253.641 -127.154> 689 82<227.806 435.778>
AnchorPoint: "Middle" 417.697 364.853 basechar 0
AnchorPoint: "Top" 420 699 basechar 0
LayerCount: 2
Fore
SplineSet
499.177734375 3.734375 m 1
 426.834960938 -46.17578125 387.640625 -131.358398438 387.640625 -195.689453125 c 3
 387.640625 -237.126953125 415.827148438 -273.168945312 446.834960938 -273.168945312 c 3
 467.810546875 -273.168945312 492.994140625 -264.435546875 518.834960938 -245.168945312 c 9
 518.834960938 -245.168945312 529.944335938 -255.497070312 532.633789062 -263.569335938 c 1
 505.579101562 -311.305664062 453.14453125 -346.888671875 411.564453125 -346.888671875 c 3
 362.384765625 -346.888671875 315.765625 -298.078125 315.765625 -236.513671875 c 3
 315.765625 -152.803710938 349.834960938 -47.5556640625 492.478515625 36.453125 c 1
 499.177734375 3.734375 l 1
EndSplineSet
Refer: 40 79 N 1 0 0 1 0 0 3
Position2: "cpsp-1" dx=0 dy=0 dh=50 dv=100
EndChar

StartChar: uni01EB
Encoding: 491 491 309
Width: 492
VWidth: 0
UnlinkRmOvrlpSave: 1
Flags: W
HStem: -326 60.1279<272.366 350.024> -10 21<213.737 312.228> 388 23<183.876 282.08>
VStem: 28 65<130.362 287.127> 187.912 69.209<-252.6 -139.048> 399 65<108.357 276.92>
AnchorPoint: "Top" 251 465 basechar 0
AnchorPoint: "Middle" 255 206 basechar 0
LayerCount: 2
Fore
SplineSet
360.98046875 13.54296875 m 1
 270.727539062 -74.0302734375 257.12109375 -115.682617188 257.12109375 -196 c 3
 257.12109375 -239.865234375 282.45703125 -265.872070312 314.515625 -265.872070312 c 3
 334.268554688 -265.872070312 357.986328125 -255.18359375 382.322265625 -231.599609375 c 9
 382.322265625 -231.599609375 393.431640625 -241.926757812 396.12109375 -250 c 1
 369.1171875 -302.788085938 323.62109375 -326 282.12109375 -326 c 3
 232.149414062 -326 187.912109375 -288.154296875 187.912109375 -224.834960938 c 3
 187.912109375 -172.674804688 223.05859375 -76.5009765625 320.63671875 8 c 9
 360.98046875 13.54296875 l 1
EndSplineSet
Refer: 14 111 N 1 0 0 1 0 0 3
Substitution2: "case-1" uni01EA
EndChar

StartChar: thorn
Encoding: 254 254 317
Width: 515
VWidth: 1159
Flags: W
HStem: -348 32<8.34375 55.6963> -342 34<151.753 229> -10 46<184.803 329.513> 369 43<198.188 323.819> 654 29<16 45.5305>
VStem: 67 82<-302.037 -18.4171> 80 65<-197.411 7 69.4004 345.78 368 599.495> 406 69<130.435 275.055>
LayerCount: 2
Fore
SplineSet
145 332 m 9x3b
 144 241 143 189 143 98 c 3
 143 92 147 85 154 79 c 0
 185 52 227 36 268 36 c 3
 345 36 406 96 406 180 c 3
 406 270 352 369 251 369 c 3
 207 369 155 342 145 332 c 9x3b
76 31 m 24
 79.1289 217.79 80 367 80 510 c 3
 80 570 80 607 76 627 c 0
 71 654 64 656 46 656 c 3
 36 656 25 654 16 654 c 1
 11 683 l 1
 48 690 104 718 154 759 c 1
 175 743 l 1
 165 717 157 687 156 667 c 0
 151 599 145 484 145 368 c 1xbb
 178 382 234 412 294 412 c 3
 399 412 475 315 475 223 c 3
 475 94 363.004 -10 225 -10 c 3
 198 -10 170 -2 144 7 c 1
 144 -75 144 -247 149 -284 c 0
 151 -299 170 -303 181 -304 c 0
 197 -305 216 -307 230 -308 c 1
 229 -342 l 1x7d
 190 -341 159 -339 117 -339 c 3
 87 -339 39 -344 9 -348 c 1
 6 -316 l 1
 17 -315 25 -313 36 -311 c 0
 59 -305 65 -294 67 -266 c 0xbd
 72 -214 74.0589 -84.8672 76 31 c 24
EndSplineSet
Validated: 1
Substitution2: "pcap-1" thorn.pcap
Substitution2: "case-1" Thorn
Substitution2: "smcp-1" thorn.smcp
EndChar

StartChar: Thorn
Encoding: 222 222 318
Width: 594
VWidth: 1159
Flags: W
HStem: -9 35<33 79.7574> 178 45<189.142 391.092> 519 42<188.8 373.894> 661 31<15.871 81.5947>
VStem: 103 86.1416<54.7783 182.945 226.958 514.181 554.895 640.551> 465 87<299.251 431.707>
LayerCount: 2
Fore
SplineSet
300 652.244140625 m 1
 269.541015625 652.76953125 239.069335938 648.46484375 211 641 c 0
 193.498046875 636.344726562 190 622 189 604 c 0
 188.240234375 587.23828125 187.66015625 570.91015625 187.219726562 554.89453125 c 1
 223.961914062 557.525390625 259.918945312 561 309 561 c 3
 442 561 552 478 552 375 c 3
 552 258.262695312 417.193359375 178 292 178 c 3
 251.719726562 178 228.8125 181.861328125 189.141601562 182.9453125 c 1
 190.319335938 145.3203125 192.446289062 106.4140625 198 75 c 0
 201.80078125 58.8486328125 209.211914062 38.1826171875 306 36.1611328125 c 1
 302 -10.6103515625 l 1
 253.839897611 0.765337346976 217.431629665 6.17477902914 177.51514646 6.17477902914 c 3
 138.247715333 6.17477902914 95.5852303172 0.939824883774 35 -9 c 1
 25 26 l 1
 78 36 103 49 103 77 c 1
 104.6 108.20234375 105.4 187.70734375 105.4 277.3266875 c 3
 105.4 411.755703125 103.6 568.941992187 100 620 c 0
 99 647 85 647 12 661 c 1
 17 692 l 1
 64.3137479468 686.877828443 116.634803726 684.064503692 169.426581172 684.064503692 c 3
 212.805530712 684.064503692 256.502306442 685.964030206 298 690.04296875 c 1
 300 652.244140625 l 1
189.073242188 226.958007812 m 1
 228.5625 225.396484375 249.3671875 223 290 223 c 3
 436 223 465 311 465 364 c 3
 465 424 404 519 288 519 c 3
 266.518554688 519 216.749023438 516.599609375 187.26171875 510.466796875 c 1
 185.9765625 417.948242188 187.340820312 313.534179688 189.073242188 226.958007812 c 1
EndSplineSet
Validated: 33
Position2: "cpsp-1" dx=0 dy=0 dh=50 dv=100
Substitution2: "c2pc-1" thorn.pcap
Substitution2: "c2sc-1" thorn.smcp
EndChar

StartChar: AE
Encoding: 198 198 319
Width: 1048
VWidth: 1159
Flags: HWO
HStem: -9 35<449 500.854> -5 39<22.5469 80.8864> 3.06988 37.3024<636.857 887.73> 247 42<296.875 529.631> 334 36<608 868.393> 661 31<394.871 460.439>
VStem: 525 93<373.564 639.016> 529.631 78.3691<90.5 243.369 285.991 334 370 605.156> 892 36<248.75 306.348 394.846 442.094> 933 30<539 620.59> 993 28<152.034 171.75>
AnchorPoint: "Top" 564 699 basechar 0
AnchorPoint: "Bottom" 560 -15 basechar 0
LayerCount: 2
Back
SplineSet
396 692 m 1x5de0
 459.272012394 686.532048312 556.561190777 684.572593564 653.192821453 684.572593564 c 0
 803.974281922 684.572593564 953.154767421 689.343407866 969 693 c 1
 980.145145837 683.247997393 984.133414459 677.741599913 984.133414459 669.087387512 c 0
 984.133414459 652.893580795 970.168856119 625.677987617 963 539 c 1
 933 536 l 1
 922 572 941 619 905 630 c 0
 863.488636507 641.860389569 801.137444756 648.076658986 740.260246011 648.076658986 c 0
 708.746754637 648.076658986 677.628246937 646.410894684 650 643 c 0
 632 641 619 627 618 609 c 0x5ee0
 614 526.970338983 609 445.953389831 608 370 c 1
 672 372 824 372 838 373 c 0
 875 378 880 404 896 448 c 1
 930 441 l 1
 921.800908316 410.132831309 918.486685813 379.498275435 918.486685813 348.871954284 c 0
 918.486685813 315.997648821 922.305294619 283.132831309 928 250 c 1
 892 241 l 1
 872 312 879 325 838 329 c 0
 794 334 701 333 608 334 c 1
 607 236.227091633 611 147.525896414 623 81 c 0
 627 64 636 50 653 49 c 0
 698.831179232 44.5647245905 737.376555516 40.3723092792 773.782518979 40.3723092792 c 0
 811.251037011 40.3723092792 846.453436792 44.8130178498 885 58 c 0
 944 78 954 101 993 177 c 1
 1021 170 l 1
 1005 104 994 62 982 0 c 1
 877.083081066 1.45355771389 767.073393242 3.06987648348 667.598205869 3.06987648348 c 0x3de0
 584.624915197 3.06987648348 509.225266505 0.552582785989 451 -9 c 1
 441 26 l 1x9de0
 494 36 527 49 527 77 c 1
 528.380926187 103.914026086 529.284877868 166.790357996 529.630859375 241.087890625 c 1
 467.278003094 249.660049211 355.177385742 253.494120142 272.916992188 247 c 1
 235.500997091 184.6 209.014082931 147.759493671 176.979 87 c 0
 158.157 51 172.988 29 244.937 34 c 1
 239.599 -10 l 1
 207.9511992 -3.42116167511 156.803289353 0.296115413079 108.669988834 0.296115413079 c 0
 76.3230769561 0.296115413079 45.3376267038 -1.38268590218 22.5469 -5 c 1
 22.5469 -5 18.2832 20 19.9365 34 c 1
 71.5889 48 102.294 57 117.652 80 c 0
 245.893953454 285.468704307 363.399910804 480.400810666 462.046875 648.923828125 c 1
 441.407911312 652.540879605 417.029954203 656.00792895 391 661 c 1
 396 692 l 1x5de0
499.977539062 640.265625 m 1
 473.026905511 593.239042544 345.505326951 370.882231497 296.875 289 c 1
 347.043311173 284.20133642 475.957582399 285.850220822 529.76953125 285.991210938 c 1
 529.972511301 417.75573903 528.516654383 568.318110715 525 618 c 0
 524.612992871 628.452823952 515.381822824 635.158711011 499.977539062 640.265625 c 1
EndSplineSet
Fore
SplineSet
384 704 m 1
 433 704 571 703 655 703 c 0
 793 703 923 704 950 708 c 0
 955 706 956 704 956 698 c 0
 956 686 948 656 939 562 c 1
 920 563 l 1
 924 609 925 640 900 653 c 0
 863 672 805 680 740 680 c 0
 690 680 649 676 615 668 c 0
 610 667 606 666 605 661 c 0
 598 602 594 440 594 374 c 1
 644 372 799 374 853 381 c 0
 879 385 889 430 895 453 c 1
 912 451 l 1
 909 426 907 386 907 345 c 0
 907 308 909 271 911 246 c 1
 891 245 l 1
 890 294 879 331 849 336 c 0
 763 350 667 348 594 346 c 1
 594 267 592 113 603 54 c 0
 604 48 606 44 610 43 c 0
 627 35 686 25 752 25 c 0
 821 25 905 36 950 71 c 0
 977 92 1001 126 1017 167 c 1
 1034 161 l 1
 1023 125 988 19 977 -6 c 1
 968 -3 838 0 711 0 c 0
 596 0 476 -2 432 -9 c 1
 429 10 l 1
 463 16 499 19 504 53 c 0
 511 105 516 171 518 242 c 1
 456 246 324 248 256 247 c 1
 223 190 190 134 157 77 c 0
 136 40 168 26 222 11 c 1
 219 -10 l 1
 181 -5 126 -1 77 -1 c 0
 55 -1 33 -2 16 -4 c 1
 14 16 l 1
 67 22 89 48 104 70 c 0
 170 165 373 493 469 669 c 1
 441 680 406 685 384 690 c 1
 384 704 l 1
498 651 m 1
 416 521 345 401 277 284 c 1
 339 279 463 280 519 280 c 1
 520 312 520 344 520 376 c 0
 520 468 518 548 512 623 c 0
 511 634 506 643 498 651 c 1
EndSplineSet
Position2: "cpsp-1" dx=0 dy=0 dh=50 dv=100
Substitution2: "c2pc-1" ae.pcap
Substitution2: "c2sc-1" ae.smcp
EndChar

StartChar: ae
Encoding: 230 230 322
Width: 605
VWidth: 1159
Flags: W
HStem: -17 32<66 175.852> -7 35<380.53 482.11> 376 32<142.099 213.764> 376 20<373.824 431.22>
VStem: 32 58<23.793 131.601> 49 59<315.642 355.233> 253 60<97.4677 185.688 196.916 212.755 223 341.712>
AnchorPoint: "Top" 298 489 basechar 0
LayerCount: 2
Back
SplineSet
392 376 m 4
 364.635499601 375.108490513 341.067204105 362.109807931 331.794921875 338 c 4
 319.875171769 307.005681352 314.751341538 263.617483854 314 223 c 5
 461 270 l 6
 476.28426534 274.886805925 497.92860764 278.014220846 488 303 c 4
 473.297297297 340 436.965649459 377.464944236 392 376 c 4
313 207 m 5
 313 148.299045004 326.225732414 92.627555741 358.404296875 62 c 4
 380.757991795 40.7237643864 409.874904963 28 445 28 c 4
 488.178861789 28 529.520325203 50 558 70 c 5
 565 60 l 5
 525.441860465 27 464.220930233 -7 403 -7 c 4
 375.951697185 -7 351.427691783 -1.30270973485 331.151367188 11 c 4
 313.180226354 21.9043714717 297.969136219 37.3523901908 285.83203125 56.2021484375 c 5
 220.967302697 14.8798014133 162.188347406 -17 91 -17 c 4
 41 -17 32 17 32 64 c 4
 32 87 38.8470368745 106.388147498 42 119 c 4
 43 123 49.19398095 129.570559552 54 132 c 4
 115.716979572 162.005064126 182.387096774 181.153846154 253 203 c 5
 253.004491393 209.90412171 253.490036908 216.501341944 253.884765625 222.870117188 c 4
 256.797595215 274.598320572 258.919380423 318.117361793 241 340 c 4
 229.266666667 352 196.2 376 161 376 c 4
 130 376 108 359 108 336 c 4
 108 327 110 322 112 317 c 5
 55 293 l 5
 51 303 49 310 49 320 c 4
 49 334 56.1350850374 344.813531864 70 355 c 4
 119 391 186 408 211 408 c 4
 240.477905035 408 293.771004933 372.920913735 309.994140625 346.268554688 c 5
 344.982298683 379.461133359 388.0129415 396 423 396 c 4
 482.076923077 396 525.008719162 355.784305508 551 309 c 4
 556 300 557 296 575 287 c 5
 574 277 l 5
 487.90625 256.122807018 397.28125 231.561403509 313 207 c 5
251.034179688 185.688476562 m 5
 244.318274148 183.350289779 235.382347984 183.023432993 220 178.696289062 c 4
 188 169.694502994 151.74123931 155.616728698 136 148 c 4
 105 133 90 110 90 74 c 4
 90 37 109 15 141 15 c 4
 174.850846085 15 241.09623976 34.6175386682 276.543945312 72.4580078125 c 5
 258.695733706 106.137546594 249.984288225 160.053456756 251.034179688 185.688476562 c 5
EndSplineSet
Fore
SplineSet
392 376 m 3x12
 321.59183486 376 315.318154231 294.259348088 314 223 c 1
 461 270 l 2
 476.28426534 274.886805925 497.92860764 278.014220846 488 303 c 0
 473.297297297 340 436.989506475 376 392 376 c 3x12
313 207 m 1
 313 110.457644689 349.442107155 28 445 28 c 3
 488.178861789 28 529.520325203 50 558 70 c 1
 565 60 l 1
 525.441860465 27 464.220930233 -7 403 -7 c 3x56
 345.915199416 -7 309.44401534 19.5311142031 285.83203125 56.2021484375 c 1
 220.967302697 14.8798014133 162.188347406 -17 91 -17 c 3
 41 -17 32 17 32 64 c 3x8a
 32 87 38.8470368745 106.388147498 42 119 c 0
 43 123 49.19398095 129.570559552 54 132 c 0
 115.716979572 162.005064126 182.387096774 181.153846154 253 203 c 1
 253.004491393 209.90412171 253.490036908 216.501341944 253.884765625 222.870117188 c 0
 256.797595215 274.598320572 258.919380423 318.117361793 241 340 c 0
 229.266666667 352 196.2 376 161 376 c 3
 130 376 108 359 108 336 c 3
 108 327 110 322 112 317 c 1
 55 293 l 1
 51 303 49 310 49 320 c 3
 49 334 56.1350850374 344.813531864 70 355 c 0
 119 391 186 408 211 408 c 3xa6
 240.477905035 408 293.771004933 372.920913735 309.994140625 346.268554688 c 1
 344.982298683 379.461133359 388.0129415 396 423 396 c 3
 482.076923077 396 525.008719162 355.784305508 551 309 c 0
 556 300 557 296 575 287 c 1
 574 277 l 1
 487.90625 256.122807018 397.28125 231.561403509 313 207 c 1
251.034179688 185.688476562 m 1
 216.901846996 179.805079945 156.944870269 158.134614646 136 148 c 0
 105 133 90 110 90 74 c 3
 90 37 109 15 141 15 c 3x8a
 174.850846085 15 241.09623976 34.6175386682 276.543945312 72.4580078125 c 1
 258.695733706 106.137546594 249.984288225 160.053456756 251.034179688 185.688476562 c 1
EndSplineSet
Validated: 33
Substitution2: "pcap-1" ae.pcap
Substitution2: "case-1" AE
Substitution2: "smcp-1" ae.smcp
EndChar

StartChar: germandbls
Encoding: 223 223 327
Width: 579
VWidth: 1159
Flags: W
HStem: -9 40<37 88.8477 173.148 208.525 365.019 460.981> 356 30<40 95.2842> 705 51<244.321 344.378>
VStem: 100 65<36.3341 356 396.595 588.58> 276 67<305.481 354.885> 301 22<88.2815 107.227> 396.559 58.286<487.211 649.856> 477 62<53.3627 166.162>
LayerCount: 2
Fore
SplineSet
312 756 m 0xfb
 411.877 756 454.845 679.623 454.845 588.779 c 0
 454.845 446.016 343 385.103 343 345 c 0xfb
 343 322 360.358 300 417 276 c 1
 495.85 246.667 539 186.985 539 128 c 0
 539 33.1543 458.812 -9 408 -9 c 0
 365.699560976 -9 332.401317073 2 300 16 c 1
 304 30 306 44 306 59 c 0
 306 68.3555 304.571 95.6445 301 105 c 1
 323 112 l 1xf7
 342.104493506 56.8506 380.314818182 31 426 31 c 0
 451.5 31 477 56.9092 477 106 c 0
 477 163.711 429.343 194.988 396 212 c 0
 347 237 276 253 276 324 c 0
 276 346 396.559 432.484 396.559 571.703 c 0
 396.559 648.474 347.395 705 278 705 c 0
 190.602 705 180.067 591.244 171 454 c 1
 167.34 417.394 165 295.325 165 249 c 0
 165 182.096 166.167 119.272 172 54 c 0
 172.739 39 177.174 34 189 33 c 0
 196.534 32 203.466 32 211 31 c 1
 208 -6 l 1
 182.625 -1 146.375 1 121 1 c 0
 97.2266 1 60.7734 -2 37 -6 c 1
 36 30 l 1
 47 31 61 31 72 33 c 1
 89.5947 40 91.8652 53 93 81 c 1
 97.375 120.633 100 172.459 100 222 c 0
 99.4055 259.124 99.1645 308.001 99.0667 356 c 1
 40 356 l 1
 40 386 l 1
 59.9402 389.935 79.0951 397.74 99.0097 401.801 c 1
 99 418.369 99 434.298 99 449 c 0
 99 579.533 140.062 647.199 205 704 c 0
 235.911 731 265.237 756 312 756 c 0xfb
EndSplineSet
Validated: 1
MultipleSubs2: "case-2" S S
Substitution2: "pcap-1" uni1E9E.pcap
Substitution2: "case-1" uni1E9E
Substitution2: "smcp-1" uni1E9E.smcp
EndChar

StartChar: greater
Encoding: 62 62 333
Width: 463
VWidth: 0
Flags: W
HStem: -7 21G<72 113.429> 392 20G<91.641 135.282>
LayerCount: 2
Fore
SplineSet
78 373 m 1
 106 412 l 1
 412 203 l 1
 82 -7 l 1
 72 8 l 1
 351 187 l 5
 78 373 l 1
EndSplineSet
Validated: 1
Position2: "'case' vertical ajustments for all-caps-1" dx=0 dy=90 dh=0 dv=0
EndChar

StartChar: braceleft
Encoding: 123 123 336
Width: 266
VWidth: 1515
Flags: W
HStem: -229.7 21<197.543 239.5> 235.3 16<11.5 41.5001> 695.3 21<197.543 239.5>
VStem: 101.5 45.5<-159.03 69.3675 417.232 645.63> 124 46<-23.0005 161.342 325.258 509.6>
LayerCount: 2
Fore
SplineSet
239.5 716.3 m 1xf0
 239.5 716.3 239.5 703.489880859 239.5 695.299804688 c 1
 181.842711864 694.203856804 147 661.799256584 147 551 c 3xf0
 147 480.769 170 464.467 170 390 c 3
 170 334.826926544 106.352 256.260835257 59.5 243.299804688 c 1
 106.352 230.338836724 170 151.772932393 170 96.599609375 c 3xe8
 170 22.131809375 147 5.830489375 147 -64.400390625 c 3
 147 -175.200621892 181.842711864 -207.604244165 239.5 -208.700195312 c 1
 239.5 -229.7 l 1
 169.237486486 -233.096000084 101.5 -190.991999045 101.5 -39.7001953125 c 3xf0
 101.5 20.2272067041 124 52.5951077933 124 99.599609375 c 3
 124 168.330469778 88.3750365854 222.782154887 11.5 235.299804688 c 1
 11.5 251.299804688 l 1
 88.3750365854 263.816485145 124 318.269405761 124 387 c 3xe8
 124 434.003934096 101.5 466.371888713 101.5 526.299804688 c 3
 101.5 677.59196021 169.237486486 719.696003491 239.5 716.3 c 1xf0
EndSplineSet
Validated: 33
Position2: "cpsp-1" dx=0 dy=0 dh=50 dv=100
Position2: "'case' vertical ajustments for all-caps-1" dx=0 dy=90 dh=0 dv=0
EndChar

StartChar: underscore
Encoding: 95 95 338
Width: 463
VWidth: 0
Flags: W
HStem: -239.937 34.8742<0 463>
LayerCount: 2
Back
SplineSet
0 -238 m 29
 0 -207 l 29
 463 -207 l 29
 463 -238 l 29
 0 -238 l 29
EndSplineSet
Fore
Refer: 1971 58114 S 0.463 0 0 0.968729 0 -222.5 2
Validated: 1
EndChar

StartChar: asciitilde
Encoding: 126 126 339
Width: 394
VWidth: 0
Flags: W
HStem: 185 59<201.826 315.361> 229 59<84.3524 195.299>
LayerCount: 2
Fore
SplineSet
23 188 m 1x40
 51.3870967742 239.111111111 103.430107527 288 111 288 c 3x40
 154 288 245 244 287 244 c 3
 300.636363636 244 341.545454545 270.782608696 362 300 c 1
 371 292 l 1
 347.470588235 243.463917526 303.235294118 185 291 185 c 3x80
 250 185 145 229 106 229 c 3
 88.3571428571 229 49 198.846153846 30 180 c 1
 23 188 l 1x40
EndSplineSet
Validated: 1
Position2: "cpsp-1" dx=0 dy=0 dh=50 dv=100
Position2: "'case' vertical ajustments for all-caps-1" dx=0 dy=90 dh=0 dv=0
EndChar

StartChar: kgreenlandic
Encoding: 312 312 345
Width: 520
VWidth: 1159
Flags: W
HStem: -5 33<33.6364 85.0934 314.455 358.094 457 501.545> 344 29<39.7931 76.7086> 374 27<269 299.949 413.248 459.333> 395 20G<145.5 187>
VStem: 105 64<42.314 204 227 346.994>
LayerCount: 2
Fore
SplineSet
179 211 m 1xe8
 169 204 l 1
 169 140.25 171.723635175 78.5727361869 175 54 c 0
 177 39 185.619315018 37.1522739927 196 33 c 0
 206 29 216 28 230 27 c 1
 225 -7 l 1
 191 -1 172 4 130 4 c 3
 100 4 64 -3 34 -5 c 1
 32 28 l 1
 43 29 54.2438024311 30.030722479 64 33 c 0
 87 40 93.3132247115 48.0575369992 96 76 c 0
 101 128 105 170 105 235 c 3
 105 253.368013699 103.27297056 281.632471039 101 318 c 0
 100 334 94 348 77 348 c 3
 71 348 51 345 41 344 c 1
 36 373 l 1
 88 381.884615385 124 387.538461538 167 415 c 1xd8
 187 399 l 1
 181 385 174.184346429 357.982026431 173 347 c 0
 171 328.454705882 168 273.908529412 167 227 c 1
 201.5858 255.29682906 250.733796152 297.620653704 285 330 c 0
 291.596571429 336.233333333 301 348.518518519 301 355 c 3
 301 373 277 372 267 374 c 1
 269 401 l 1
 295 399 330 399 357 399 c 3
 388.166666667 399 428.777777778 399 459 403 c 1
 461 371 l 1
 400.820895522 364.000222222 364.689666047 341.369176033 333 319 c 2
 231 247 l 1
 297.824402928 186.179636497 367.532605558 122.858938129 446 52 c 1
 462 37 490 29 504 28 c 1
 501 -6 l 1
 467 0 449 4 407 4 c 3
 377 4 345 -3 315 -5 c 1
 312 28 l 1
 348 33 348 37 359 38 c 1
 296.777686305 99.8038948798 205.773756239 186.901875399 179 211 c 1xe8
EndSplineSet
Validated: 1
MultipleSubs2: "case-2" K quoteleft
EndChar

StartChar: OE
Encoding: 338 338 346
Width: 1081
VWidth: 1159
Flags: W
HStem: -7 49<336.528 518.419> 3.06988 37.3024<639.125 901.73> 334 36<614 882.393> 650 44<298.396 500.529>
VStem: 37 93<266.365 448.041> 531 93<373.564 620.777> 534.995 79.0053<90.5 334 370 605.156> 906 36<248.75 306.348 394.846 442.094> 947 30<539 620.59> 1007 28<152.034 171.75>
LayerCount: 2
Fore
SplineSet
385 650 m 3xbdc0
 244 650 130 535.515933333 130 377 c 3
 130 202.722537538 273 42 443 42 c 3
 495.7 42 533 62.631 533 92 c 1
 534.422110588 116.770777747 534.994687396 175.604459673 534.994687396 244.572312164 c 0xbbc0
 534.994687396 369.591771373 533.113224845 527.911675418 531 577 c 0
 528.17 641.262 448.642 650 385 650 c 3xbdc0
424 -7 m 3
 210 -7 37 145.659140762 37 336 c 3
 37 527.127628169 212 694 422 694 c 3
 507.490017004 694 461.789007914 684.96875 696.956054688 684.96875 c 3
 838.863027557 684.96875 966.475003159 689.186881304 983 693 c 1
 994.145145837 683.247997393 998.133414459 677.741599913 998.133414459 669.087387512 c 0
 998.133414459 652.893580795 984.168856119 625.677987617 977 539 c 1
 947 536 l 1
 936 572 955 619 919 630 c 0
 856 648 737 653 656 643 c 0
 638 641 625 627 624 609 c 0xbdc0
 620 526.970338983 615 445.953389831 614 370 c 1
 678 372 838 372 852 373 c 0
 889 378 894 404 910 448 c 1
 944 441 l 1
 935.800908316 410.132831309 932.486685813 379.498275435 932.486685813 348.871954284 c 0
 932.486685813 315.997648821 936.305294619 283.132831309 942 250 c 1
 906 241 l 1
 886 312 893 325 852 329 c 0
 808 334 707 333 614 334 c 1
 613 236.227091633 617 147.525896414 629 81 c 0
 633 64 642 50 659 49 c 0
 704.831179232 44.5647245905 745.319436302 40.3723092792 783.696225476 40.3723092792 c 0
 823.193090286 40.3723092792 860.453436792 44.8130178498 899 58 c 0
 958 78 968 101 1007 177 c 1
 1035 170 l 1
 1019 104 1008 62 996 0 c 1
 886.301 -0.545565 771.508 3.06988 667.928 3.06988 c 3x7bc0
 487.932 3.06988 491.022 -7.00001 424 -7 c 3
EndSplineSet
Validated: 33
Position2: "cpsp-1" dx=0 dy=0 dh=50 dv=100
Substitution2: "c2pc-1" oe.pcap
Substitution2: "c2sc-1" oe.smcp
EndChar

StartChar: uni2605
Encoding: 9733 9733 347
Width: 821
VWidth: 0
Flags: W
LayerCount: 2
Fore
SplineSet
796.5 438.6 m 1
 558 264.9 l 1
 648.9 -15 l 1
 410.4 158.7 l 1
 171.9 -15 l 1
 262.8 265.8 l 1
 24.2998 438.6 l 1
 318.6 437.7 l 1
 410.4 718.5 l 1
 501.3 438.6 l 1
 796.5 438.6 l 1
EndSplineSet
Validated: 1
EndChar

StartChar: uni2606
Encoding: 9734 9734 348
Width: 821
VWidth: 30
Flags: W
LayerCount: 2
Fore
SplineSet
687.677 404.8 m 1
 466.221 390.918 l 1
 410.41 606.049 l 1
 354.579 390.141 l 1
 133.292 404.738 l 1
 320.536 284.324 l 1
 239.062 78.2873 l 1
 410.4 219.894 l 1
 581.711 78.307 l 1
 500.264 283.547 l 1
 687.677 404.8 l 1
796.5 438.6 m 1
 558 264.9 l 1
 648.9 -15 l 1
 410.4 158.7 l 1
 171.9 -15 l 1
 262.8 265.8 l 1
 24.2998 438.6 l 1
 318.6 437.7 l 1
 410.4 718.5 l 1
 501.3 438.6 l 1
 796.5 438.6 l 1
EndSplineSet
Validated: 1
EndChar

StartChar: uni261C
Encoding: 9756 9756 349
Width: 2241
Flags: W
HStem: -39.8809 34.5928<702.366 803.644>
VStem: 65.4062 47.9922<389.495 407.811>
LayerCount: 2
Fore
SplineSet
65.4062 488.98 m 1
 133.471 493.169 171.866 495.579 238.634 514.306 c 1
 246.596 504.546 534.656 534.515 542.911 561.332 c 1
 564.898 551.482 577.512 547.037 605.929 570.229 c 1
 773.769 556.794 986.458 616.839 1106 648 c 1
 1329.25 569.701 1572.25 468.729 1696.18 430.638 c 1
 1739.57 483.052 1793.53 507.924 1848.05 516.793 c 1
 2110.43 547.303 l 1
 2163.02 255.056 2175.68 -29.6611 2148.35 -306.85 c 1
 1892.24 -297.519 l 1
 1875.45 -261.822 1858.65 -226.126 1841.85 -190.43 c 1
 1814.48 -179.761 1789.09 -165.358 1754.94 -149.172 c 1
 1614.8 -241.059 1469.34 -206.779 1327.96 -171.926 c 1
 1302.89 -235.181 1261.64 -288.312 1185.82 -267.69 c 1
 1164.81 -330.418 1107.45 -355.95 1072.25 -326.185 c 0
 999.4 -264.557 891.756 -230.288 835.198 -172.483 c 1
 682.232 -206.512 560.41 -112.538 687.913 48.1104 c 1
 660.334 112.992 745.543 185.467 777.889 271.683 c 1
 695.375 282.243 590.004 307.018 566.297 298.763 c 0
 515.511 281.073 363.284 309.172 334.218 317.119 c 1
 176.398 304.119 59.9014 331.849 65.4062 488.98 c 1
227.493 480.275 m 1
 178.401 472.663 150.689 468.371 101.594 460.757 c 1
 93.8691 413.082 244.447 408.912 227.493 480.275 c 1
1084.38 592.183 m 0
 825.397 554.269 996.286 546.32 636.788 522.399 c 0
 585.692 519 590.137 488.802 569.033 486.987 c 0
 550.55 485.4 544.591 511.314 526.415 507.695 c 0
 434.1 489.321 365.902 488.599 263.3 476.39 c 1
 250.997 394.928 192.292 410.334 113.398 407.811 c 1
 114.412 376.567 264.124 347.652 350.099 377.665 c 1
 407.623 368.682 461.089 357.379 523.575 380.384 c 1
 604.456 372.626 651.254 355.211 727.339 401.371 c 1
 807.605 356.047 974.055 358.16 1064.13 421.6 c 1
 1070.94 421.779 1071.33 413.38 1077.52 410.565 c 1
 1051.33 362.256 1084.46 312.087 1114.36 315.387 c 0
 1130.39 317.154 1149.22 354.088 1163.9 376.21 c 0
 1172.19 388.706 1208.8 379.251 1202.08 365.563 c 0
 1164.56 289.234 1183.03 221.194 1302.92 308.083 c 0
 1330.21 327.857 1391.28 329.565 1389.06 296.334 c 0
 1387.54 273.576 1345.13 302.372 1303.25 264.596 c 0
 1210.07 180.539 1123.04 118.563 1008.84 107.013 c 1
 996.464 98.4824 989.483 93.6709 977.105 85.1396 c 1
 876.257 142.62 705.042 54.8047 694.435 -5.28809 c 1
 757.921 -1.57617 796.29 11.3975 834.737 -28.0469 c 1
 861.688 11.0107 922.306 3.84277 985.483 11.0127 c 1
 998.435 5.33398 1005.74 2.13281 1018.69 -3.54395 c 1
 1031.07 4.98828 1038.05 9.79883 1050.42 18.3291 c 1
 1063.43 11.9795 1070.77 8.39844 1083.78 2.04883 c 1
 1093.29 11.6924 1098.66 17.1289 1108.17 26.7725 c 1
 1169 0.666992 1265.6 3.79102 1298.85 55.3369 c 0
 1307.77 69.1582 1331.21 74.7871 1353.92 73.9941 c 0
 1497.96 68.9609 1697.02 60.1641 1760.13 150.666 c 0
 1796.28 202.51 1766.13 361.801 1721.3 387.54 c 1
 1551.99 437.4 1391.01 515.096 1175.49 584.343 c 0
 1141.59 595.234 1119.66 597.348 1084.38 592.183 c 0
823.456 -100.385 m 1
 821.674 -60.501 792.91 -39.6387 757.787 -39.8809 c 0
 715.507 -40.1699 663.499 -75.8311 669.326 -101.442 c 0
 672.815 -116.764 791.04 -134.5 823.456 -100.385 c 1
1825.2 474.796 m 1
 1793.57 452.477 1775.72 439.887 1744.09 417.571 c 1
 1790.28 409.132 l 1
 1834.35 392.028 1910.85 90.5078 1840.19 -91.3711 c 1
 1844.61 -94.3838 1847.1 -96.085 1851.52 -99.1006 c 1
 1989.62 -17.6104 1923.24 389.222 1825.2 474.796 c 1
EndSplineSet
Validated: 33
EndChar

StartChar: uni261E
Encoding: 9758 9758 350
Width: 2241
Flags: HMW
LayerCount: 2
Fore
SplineSet
2162.17 488.98 m 1
 2167.68 331.849 2051.18 304.119 1893.36 317.119 c 1
 1864.29 309.172 1712.07 281.073 1661.28 298.763 c 0
 1637.57 307.018 1532.2 282.243 1449.69 271.683 c 1
 1482.03 185.467 1567.24 112.992 1539.66 48.1104 c 1
 1667.17 -112.538 1545.34 -206.512 1392.38 -172.483 c 1
 1335.82 -230.288 1228.18 -264.557 1155.32 -326.185 c 0
 1120.13 -355.95 1062.77 -330.418 1041.76 -267.69 c 1
 965.937 -288.312 924.688 -235.181 899.613 -171.926 c 1
 758.235 -206.779 612.779 -241.059 472.641 -149.172 c 1
 438.485 -165.358 413.094 -179.761 385.725 -190.43 c 1
 368.927 -226.126 352.131 -261.822 335.333 -297.519 c 1
 79.2285 -306.85 l 1
 51.9014 -29.6611 64.5586 255.056 117.149 547.303 c 1
 379.524 516.793 l 1
 434.047 507.924 488.01 483.052 531.394 430.638 c 1
 655.332 468.729 898.328 569.701 1121.58 648 c 1
 1241.12 616.839 1453.81 556.794 1621.65 570.229 c 1
 1650.07 547.037 1662.68 551.482 1684.67 561.332 c 1
 1692.92 534.515 1980.98 504.546 1988.94 514.306 c 1
 2055.71 495.579 2094.11 493.169 2162.17 488.98 c 1
2000.08 480.275 m 1
 1983.13 408.912 2133.71 413.082 2125.98 460.757 c 1
 2076.89 468.371 2049.18 472.663 2000.08 480.275 c 1
1143.19 592.183 m 0
 1107.92 597.348 1085.99 595.234 1052.09 584.343 c 0
 836.569 515.096 675.586 437.4 506.281 387.54 c 1
 461.443 361.801 431.295 202.51 467.448 150.666 c 0
 530.558 60.1641 729.622 68.9609 873.661 73.9941 c 0
 896.366 74.7871 919.808 69.1582 928.726 55.3369 c 0
 961.981 3.79102 1058.58 0.666992 1119.41 26.7725 c 1
 1128.92 17.1289 1134.29 11.6924 1143.8 2.04883 c 1
 1156.8 8.39844 1164.14 11.9795 1177.15 18.3291 c 1
 1189.53 9.79883 1196.51 4.98828 1208.89 -3.54395 c 1
 1221.83 2.13281 1229.14 5.33398 1242.09 11.0127 c 1
 1305.27 3.84277 1365.89 11.0107 1392.84 -28.0469 c 1
 1431.29 11.3975 1469.66 -1.57617 1533.14 -5.28809 c 1
 1522.54 54.8047 1351.32 142.62 1250.47 85.1396 c 1
 1238.09 93.6709 1231.11 98.4824 1218.74 107.013 c 1
 1104.54 118.563 1017.5 180.539 924.325 264.596 c 0
 882.445 302.372 840.035 273.576 838.518 296.334 c 0
 836.301 329.565 897.366 327.857 924.653 308.083 c 0
 1044.55 221.194 1063.02 289.234 1025.5 365.563 c 0
 1018.77 379.251 1055.38 388.706 1063.68 376.21 c 0
 1078.36 354.088 1097.19 317.154 1113.21 315.387 c 0
 1143.12 312.087 1176.25 362.256 1150.06 410.565 c 1
 1156.25 413.38 1156.63 421.779 1163.45 421.6 c 1
 1253.52 358.16 1419.97 356.047 1500.24 401.371 c 1
 1576.32 355.211 1623.12 372.626 1704 380.384 c 1
 1766.49 357.379 1819.95 368.682 1877.48 377.665 c 1
 1963.45 347.652 2113.17 376.567 2114.18 407.811 c 1
 2035.29 410.334 1976.58 394.928 1964.28 476.39 c 1
 1861.67 488.599 1793.48 489.321 1701.16 507.695 c 0
 1682.99 511.314 1677.03 485.4 1658.54 486.987 c 0
 1637.44 488.802 1641.88 519 1590.79 522.399 c 0
 1231.29 546.32 1402.18 554.269 1143.19 592.183 c 0
1404.12 -100.385 m 1
 1436.54 -134.5 1554.76 -116.764 1558.25 -101.442 c 0
 1564.08 -75.8311 1512.07 -40.1699 1469.79 -39.8809 c 0
 1434.67 -39.6387 1405.9 -60.501 1404.12 -100.385 c 1
402.373 474.796 m 1
 304.342 389.222 237.955 -17.6104 376.058 -99.1006 c 1
 380.473 -96.085 382.967 -94.3838 387.383 -91.3711 c 1
 316.725 90.5078 393.227 392.028 437.294 409.132 c 1
 483.483 417.571 l 1
 451.853 439.887 434.009 452.477 402.373 474.796 c 1
EndSplineSet
Validated: 33
EndChar

StartChar: uni211F
Encoding: 8479 8479 429
Width: 831
UnlinkRmOvrlpSave: 1
Flags: W
HStem: -34 18<715.141 760> -15 21<238.873 275.333> 333 25<190.186 311.406> 678 21<31 89.864>
VStem: 106 83<27.267 311.306> 107 91<473.918 669.555> 469 86<439.59 588.412>
LayerCount: 2
Fore
SplineSet
485 -72 m 5xf2
 591 95.0902527076 741 461.097472924 737 479 c 5
 626 519 l 5
 617.75 542.192771084 663.209090147 573.033501641 692 596 c 5
 739.19 579.23 765.81 569.77 813 553 c 5
 773 475 572.146067416 -19.3583460949 537 -97 c 5
 485 -72 l 5xf2
EndSplineSet
Refer: 43 82 N 1 0 0 1 0 0 2
EndChar

StartChar: uni2123
Encoding: 8483 8483 430
Width: 858
UnlinkRmOvrlpSave: 1
Flags: W
HStem: 683 21<16 64.7285 198.178 260 613.526 658.654 772.845 811>
LayerCount: 2
Fore
SplineSet
201 -72 m 1
 307 95.0902527076 457 461.097472924 453 479 c 1
 342 519 l 1
 333.75 542.192771084 379.209090147 573.033501641 408 596 c 1
 455.19 579.23 481.81 569.77 529 553 c 1
 489 475 288.146067416 -19.3583460949 253 -97 c 1
 201 -72 l 1
EndSplineSet
Refer: 54 86 N 1 0 0 1 0 0 2
EndChar

StartChar: estimated
Encoding: 8494 8494 431
Width: 752
VWidth: 0
Flags: W
HStem: -9 50.917<266.135 484.333> 310.923 51.15<191.384 562.454> 632.006 50.917<264.706 485.147>
VStem: 30.1973 161.187<217.349 310.923 362.073 455.702> 562.454 159.576<362.073 456.3>
LayerCount: 2
Fore
SplineSet
632.777 191.846 m 1
 676.861 166.441 l 1
 673.98 161.581 l 2
 613.377 59.3301 501.767 -9 376 -9 c 0
 189.553 -9 30.1973 142.604 30.1973 338.341 c 0
 30.1973 525.945 184.438 682.615 375.52 682.923 c 2
 376.044 682.923 l 2
 564.48 682.923 722.035 529.016 722.03 336.942 c 0
 722.03 329.967 721.813 323.039 721.4 316.168 c 2
 721.084 310.923 l 1
 191.384 310.923 l 1
 191.384 107.399 l 1
 242.467 66.2236 307.069 41.917 376 41.917 c 0
 483.087 41.917 578.216 100.053 629.964 187.113 c 2
 632.777 191.846 l 1
191.384 566.668 m 1
 191.384 362.073 l 1
 562.454 362.073 l 1
 562.454 565.158 l 1
 511.302 606.997 446.18 632.006 376.044 632.006 c 2
 375.598 632.006 l 2
 305.803 631.894 241.805 607.323 191.384 566.668 c 1
EndSplineSet
Validated: 33
EndChar

StartChar: uni2023
Encoding: 8227 8227 436
Width: 614
Flags: W
HStem: 245.313 86.8271<277.825 527.585>
LayerCount: 2
Back
Fore
SplineSet
555 306.641 m 9
 555 276 l 17
 520 256 406.973 263.594 356 245.313 c 0
 137.841 205.319 171.251 96.8509 73.7197 8.78027 c 1
 52.1201 23.8203 l 17
 78.4402 121.58 102.61 383.548 37.0801 561.5 c 1
 69.96 569.021 l 17
 118.84 486.301 160.28 337.61 325.64 332.141 c 0
 415.653 328.91 517.4 321.212 555 306.641 c 9
EndSplineSet
Validated: 33
EndChar

StartChar: dagger
Encoding: 8224 8224 437
Width: 442
Flags: W
HStem: 491 89<28.3259 107.211 335.461 414.906>
VStem: 177 90<639.693 731.624> 214 15<-18 115.803>
LayerCount: 2
Fore
SplineSet
275 370 m 1xa0
 238.585365854 262 242.463414634 250 229 -18 c 1
 214 -18 l 1
 198.292682927 266 202.664872333 282.899414062 168 370 c 1
 204.414634146 443.320261438 205.024390244 462.941176471 214 528 c 1
 134 518 l 2
 78.3356643357 511.041958042 83 491 57 491 c 3
 43.9615951896 491 17 518 17 535 c 3
 17 552 45.9580078125 580 58 580 c 3
 83 580 83.3846153846 561.326923077 134 555 c 2
 214 545 l 1xa0
 203 620 l 2
 197.363084579 658.433514232 177 681 177 702 c 3
 177 718 205 741 222 741 c 3
 239 741 267 718 267 704 c 3xc0
 267 681 246.494649567 657.463519773 241 620 c 2
 230 545 l 1
 310 555 l 2
 365.677655678 561.95970696 360 581 386 581 c 3
 398.165039062 581 427 554 427 537 c 3
 427 520 398.038085938 492 385 492 c 3
 360 492 360.604370858 511.752546808 310 518 c 2
 229 528 l 1
 237.975609756 463.973856209 238.585365854 444.352941176 275 370 c 1xa0
EndSplineSet
Validated: 1
EndChar

StartChar: daggerdbl
Encoding: 8225 8225 438
Width: 442
Flags: W
HStem: -6 21G<212.5 229.5> 154 89<27.3301 111.04 331.027 413.942> 491 89<28.326 107.211 335.461 414.906>
VStem: 176 90<3.37628 95.3067 639.521 730.972>
LayerCount: 2
Fore
SplineSet
176 369 m 1
 206.951219512 442.305194805 206.585365854 462.954545455 214 528 c 1
 134 518 l 2
 78.3356643357 511.041958042 83 491 57 491 c 3
 43.9619140625 491 17 518 17 535 c 3
 17 552 45.9580078125 580 58 580 c 3
 83 580 83.3846153846 561.326923077 134 555 c 2
 214 545 l 1
 203 620 l 2
 194.333333333 658 177 681 177 702 c 3
 177 718 205 741 222 741 c 3
 239 741 267 718 267 704 c 3
 267 681 249.666666667 657 241 620 c 2
 230 545 l 1
 310 555 l 2
 365.677655678 561.95970696 360 581 386 581 c 3
 398.165039062 581 427 554 427 537 c 3
 427 520 398.038085938 492 385 492 c 3
 360 492 360.604370858 511.752546808 310 518 c 2
 229 528 l 1
 236.414634146 463.987012987 236.048780488 443.337662338 267 369 c 1
 236.048780488 295.738853503 236.414634146 272.006369427 229 207 c 1
 309 217 l 2
 364.664335664 223.958041958 360 244 386 244 c 3
 399.038085938 244 426 217 426 200 c 3
 426 183 397.041992188 155 385 155 c 3
 360 155 359.615384615 173.673076923 309 180 c 2
 229 190 l 1
 240 115 l 2
 245.638473141 76.5558649495 266 54 266 33 c 3
 266 17 238 -6 221 -6 c 3
 204 -6 176 17 176 31 c 3
 176 54 196.505105001 77.5348068221 202 115 c 2
 213 190 l 1
 133 180 l 2
 77.3223443223 173.04029304 83 154 57 154 c 3
 44.8349609375 154 16 181 16 198 c 3
 16 215 44.9619140625 243 58 243 c 3
 83 243 82.3956291419 223.247453192 133 217 c 2
 214 207 l 1
 206.585365854 270.974522293 206.951219512 294.707006369 176 369 c 1
EndSplineSet
Validated: 1
EndChar

StartChar: longs
Encoding: 383 383 445
Width: 357
VWidth: 1159
Flags: W
HStem: -6 36<34 97.3708 215.17 284.568> 1 32<191.619 282.018> 356 25<46 67.3182> 701 55<273.459 377.117>
VStem: 113 72<42.1466 356 403 602.768>
AnchorPoint: "Top" 262 748 basechar 0
AnchorPoint: "Bottom" 156 -15 basechar 0
LayerCount: 2
Fore
SplineSet
359 756 m 3x78
 391 756 441 745 466 723 c 1
 465 696 466 696 417 659 c 1
 378 677 347 701 309 701 c 3
 206 701 201 609 191 498 c 0
 187.339 461.394 185 339.326 185 293 c 3
 185 211 186 134 191 54 c 0
 192 39 198 34 214 33 c 0x78
 239 32 262 32 287 31 c 1
 284 -6 l 1xb8
 242 -1 182 1 140 1 c 3x78
 110 1 64 -2 34 -6 c 1
 33 30 l 1xb8
 44 31 58 31 69 33 c 0
 100 40 104 53 106 81 c 0
 111 133 114 201 114 266 c 3
 114 285.149 113 320.574 113 356 c 1
 46 356 l 1
 46 381 l 1
 113 403 l 1
 113 439.562 113 481.75 113 493 c 3
 113 601 156 657 224 704 c 0
 263 731 300 756 359 756 c 3x78
EndSplineSet
Validated: 1
Substitution2: "case-1" S
Substitution2: "pcap-1" s.pcap
Substitution2: "smcp-1" s.smcp
EndChar

StartChar: ohorn
Encoding: 417 417 448
Width: 492
VWidth: 0
UnlinkRmOvrlpSave: 1
Flags: W
HStem: -10 21<213.737 312.228> 365.36 24.3843<349.604 421.731> 382.741 20G<338.441 342.053> 388 23<183.876 282.08>
VStem: 28 65<130.362 287.127> 399 65<108.357 276.92> 442.501 86.0273<403.736 481.559>
AnchorPoint: "Top" 251 465 basechar 0
AnchorPoint: "Bottom" 249 -15 basechar 0
AnchorPoint: "Middle" 255 206 basechar 0
LayerCount: 2
Fore
SplineSet
334.482421875 402.741210938 m 5xaa
 349.62424831 396.926343349 372.471667174 389.744140625 386.686523438 389.744140625 c 7
 411.796269819 389.744140625 442.501138157 408.271731058 442.501138157 441.560602678 c 7
 442.501138157 449.63955766 438.983530489 459.025418514 428.6640625 470.818359375 c 5
 444.576416165 489.781030223 464.379979468 500.219391987 482.796821553 500.219391987 c 7
 512.365850716 500.219391987 528.528388939 475.09191665 528.528388939 445.9790134 c 7
 528.528388939 396.089685559 450.426516037 365.359813167 388.72825766 365.359813167 c 7xca
 357.132622939 365.359813167 342.400200021 377.606700862 334.482421875 402.741210938 c 5xaa
EndSplineSet
Refer: 14 111 N 1 0 0 1 0 0 2
Substitution2: "smcp-1" ohorn.smcp
Substitution2: "case-1" Ohorn
Substitution2: "pcap-1" ohorn.pcap
EndChar

StartChar: uhorn
Encoding: 432 432 449
Width: 526
VWidth: 0
UnlinkRmOvrlpSave: 1
Flags: W
HStem: -11 55<175.733 263.795> 338 31<292 351.243> 402 20G<128 167>
VStem: 70 76<75.1633 330.249> 359 64<36.0058 52 76.9705 331.63> 493.501 86.0273<404.739 481.559>
AnchorPoint: "Top" 265 465 basechar 0
AnchorPoint: "Bottom" 256 -15 basechar 0
LayerCount: 2
Fore
SplineSet
410 375 m 5
 418.121414362 381.745491074 430.375771951 388.077148438 438 390.077148438 c 5
 462.968647592 396.077148438 493.500976562 408.485648026 493.500976562 441.560546875 c 7
 493.500976562 449.639517266 489.983409974 459.025396022 479.6640625 470.818359375 c 5
 495.576431876 489.781246013 515.380014732 500.219726562 533.796875 500.219726562 c 7
 563.365825233 500.219726562 579.528320312 475.092318034 579.528320312 445.979492188 c 7
 579.528320312 396.08959691 501.426629866 370.359375 439.728515625 365.359375 c 5
 422.413060772 365.359375 414.339204806 368.517835056 410 375 c 5
285 369 m 1
 339.422818792 375.199161305 395.899328859 382.557301496 438 390.077148438 c 1
 445 378 l 1
 431 335.584 423 173.632 423 137 c 3
 423 107 426.284077022 81.1592297825 429 54 c 0
 430 44 433 36 443 36 c 3
 447 36 473 43 493 48 c 1
 499 17 l 1
 463 8 419.410107664 -9.647473084 386 -18 c 0
 382 -19 381 -22 376 -22 c 3
 359 -22 359 0 354 52 c 1
 313 34 236 -11 178 -11 c 3
 140 -11 102.934188969 5.51320688895 86 44 c 0
 75 69 70 95 70 143 c 3
 70 198 73 255 73 312 c 0
 73 322 69 331 59 331 c 3
 49 331 28 319 22 317 c 1
 12 348 l 1
 53 359 107 394 149 422 c 1
 167 406 l 1
 152 336 146 254 146 177 c 3
 146 106 161 44 232 44 c 3
 269 44 322 69 353 85 c 1
 354 154 359 291 359 298 c 3
 359 337 329 337 292 338 c 1
 285 369 l 1
EndSplineSet
Substitution2: "smcp-1" uhorn.smcp
Substitution2: "case-1" Uhorn
Substitution2: "pcap-1" uhorn.pcap
EndChar

StartChar: yen
Encoding: 165 165 451
Width: 463
VWidth: 1159
UnlinkRmOvrlpSave: 1
Flags: W
HStem: -195.143 27.832<290.394 317.58> -12.125 20.25<93 383> 87.875 20.25<93 383>
VStem: 207.261 75.8369<-163.561 112.389>
LayerCount: 2
Fore
SplineSet
274.890625 169.708984375 m 1
 274.314622807 115.248982948 272.283654214 50.1171047102 283.09765625 -128.499023438 c 0
 285.015173967 -160.170886375 292.119204273 -161.0586431 320.783203125 -167.310546875 c 1
 317.580078125 -195.142578125 l 1
 274.689595576 -186.83690152 222.038207283 -183.218788643 178.485351562 -198.678710938 c 1
 171.08984375 -171.665039062 l 1
 195.610467016 -162.26863286 206.390990071 -155.268664903 207.260742188 -117.220703125 c 0
 207.787638441 -104.621204106 205.843021338 150.767976016 205.118164062 143.750976562 c 1
 204.034116885 150.049303618 155.095264654 248.178623374 87.2695828038 343.999997223 c 0
 76.0701508093 359.82210075 59.2291043945 378.720580661 49 385 c 1
 139 433 l 1
 144.933661013 402.938576204 168.652866704 351.939024868 181.091541944 327.999991964 c 0
 221.31584563 250.585724695 252.239236655 211.848881796 255.486328125 207.837890625 c 1
 299.730787717 303.031969433 321.320964056 356.628741888 331 433 c 1
 345.5 424.066173481 396.25 400.848034565 418 391 c 1
 345.004852928 317.965777551 314.263107929 249.458544383 274.890625 169.708984375 c 1
EndSplineSet
Refer: 1970 58113 N 0.29 0 0 1.125 93 -2 2
Refer: 1970 58113 N 0.29 0 0 1.125 93 98 2
Position2: "'lnum-2' vertical adjustment" dx=0 dy=190 dh=0 dv=0
EndChar

StartChar: eth
Encoding: 240 240 453
Width: 471
VWidth: 1159
UnlinkRmOvrlpSave: 1
Flags: W
HStem: -5 42<172.384 287.931> 371 34<180.415 282.579> 716 11.4531<77.2373 81.3456>
VStem: 28 57<134.711 268.425> 373 58<139.844 356.442>
LayerCount: 2
Fore
SplineSet
373 240 m 1
 366.085365854 304 296.944701242 371 211 371 c 3
 144.123076923 371 85 327.004882812 85 238 c 3
 85 131.886348515 144.717724609 37 247 37 c 3
 335.834446958 37 373 120.617793216 373 194 c 3
 373 425.426736637 230.950166113 630.048192771 74 716 c 1
 75.0837517488 718.745947016 77.2373046875 727.453125 77.2373046875 727.453125 c 1
 258.237172007 675.166289781 431 439.719447105 431 235 c 3
 431 113.962890625 328.998490768 -5 193 -5 c 3
 109.911132812 -5 28 80.923828125 28 171 c 3
 28 326.389648438 171.610169492 405 257 405 c 3
 301.295507545 405 339.874114323 389.328900641 368 370 c 1
 373 240 l 1
EndSplineSet
Refer: 1970 58113 N 0.284488 0.177084 -0.547233 0.872389 104.756 489.958 2
Substitution2: "pcap-1" eth.pcap
Substitution2: "case-1" Eth
Substitution2: "smcp-1" eth.smcp
EndChar

StartChar: quotereversed
Encoding: 8219 8219 462
Width: 200
VWidth: 1159
Flags: W
HStem: 468.3 231.4
VStem: 33.4502 133.95<615.713 649.079>
LayerCount: 2
Fore
SplineSet
159.05078125 468.299804688 m 1
 46.9501953125 530.049804688 33.4501953125 627.5 33.4501953125 633.200195312 c 3
 33.4501953125 638.900390625 39.150390625 640.799804688 43.900390625 642.700195312 c 0
 63.8505859375 653.150390625 80.9501953125 668.349609375 91.400390625 688.299804688 c 0
 93.30078125 693.049804688 96.150390625 699.700195312 101.850585938 699.700195312 c 3
 107.55078125 699.700195312 110.400390625 693.049804688 112.30078125 688.299804688 c 0
 122.750976562 668.349609375 137.950195312 653.150390625 157.900390625 642.700195312 c 0
 162.650390625 640.799804688 167.400390625 638.900390625 167.400390625 633.200195312 c 3
 167.400390625 627.5 162.650390625 623.700195312 157.900390625 621.799804688 c 0
 137.950195312 611.349609375 117.05078125 597.099609375 107.55078125 576.200195312 c 0
 94.2509765625 546.75 134.950195312 501 167.250976562 481.049804688 c 1
 159.05078125 468.299804688 l 1
EndSplineSet
Validated: 33
Position2: "cpsp-1" dx=0 dy=0 dh=7 dv=14
EndChar

StartChar: uni20B9
Encoding: 8377 8377 466
Width: 426
VWidth: 1159
UnlinkRmOvrlpSave: 1
Flags: W
HStem: -42 23<381.506 409> 283 31<32 113.386> 460.095 28.999<33.25 411.25>
VStem: 248 79<400.509 544.149>
LayerCount: 2
Fore
SplineSet
33.25 666.09375 m 1
 411.25 666.09375 l 1
 411.25 637.094726562 l 1
 33.25 637.094726562 l 1
 33.25 666.09375 l 1
33.25 489.09375 m 1
 411.25 489.09375 l 1
 411.25 460.094726562 l 1
 33.25 460.094726562 l 1
 33.25 489.09375 l 1
32.5 666 m 1
 57.25390625 666 67.658203125 666 96 666 c 0
 222.431640625 666 327 583 327 480 c 0
 327 393 262.599609375 334 189 304 c 1
 265.474609375 110.581054688 332.772460938 -13.0947265625 412 -19 c 1
 409 -42 l 1
 258 -39 178 134 114 284 c 1
 100.875 283 89.2080078125 283 79 283 c 0
 60.6474609375 283 50.3525390625 285.400390625 32 286 c 1
 32 316 l 1
 49.912109375 315.5 59.087890625 314 77 314 c 3
 219.663085938 314 248 410.737304688 248 469 c 3
 248 534.418945312 188.37890625 638 75 638 c 3
 61.8720703125 638 35.193359375 638 33.5 638 c 1
 32.5 666 l 1
EndSplineSet
EndChar

StartChar: eng
Encoding: 331 331 467
Width: 499
VWidth: 1159
Flags: W
HStem: -319 60<162.258 279.828> -5 33<20.3636 69> 335 29<32 79.6511> 338 61<245.574 353.747> 396 20G<129 175>
VStem: 95 75<72.7464 318.176 330 331.265> 379 69<-89.8607 313.154>
LayerCount: 2
Fore
SplineSet
329 -267 m 4xd6
 284.360294118 -296 253 -319 194 -319 c 7
 162 -319 112 -308 87 -286 c 5
 88 -259 87 -259 136 -222 c 5
 165.972222222 -237.857142857 189.796296296 -259 219 -259 c 7
 247.822033898 -259 296.27809609 -258.437912348 316 -237 c 4
 342.595265849 -208.090672547 360.595200234 -175.050461911 367 -146 c 4
 373.749647059 -115.385402827 379 -41.9109823322 379 143 c 7
 379 192.5 376.549026451 266.820841347 374 287 c 4
 369 328.328358209 348 358 293 358 c 7xd6
 245 358 203 344.4 170 324 c 5
 168 234.329113924 161 109.430379747 161 71 c 7
 161 27.80589946 195.795590225 30.6204409775 232 27 c 5
 228 -7 l 5
 189 -1 159 4 117 4 c 7
 87 4 51 -1 21 -5 c 5
 18 28 l 5
 55.449092135 34.8089258427 78.318284601 37.5524032329 87 76 c 4
 94 107 95 167 95 199 c 7
 95 219 92.9313485794 287.976104104 86 308 c 4
 77 334 72 336 54 336 c 7
 44 336 41 335 32 335 c 5
 30 364 l 5
 67 371 104 375 154 416 c 5xee
 175 401 l 5
 170 387.056338028 167 366.915492958 167 346 c 5
 215 377 267 415 330 415 c 7
 403 415 448 375 448 304 c 7
 448 213.433607383 445 119.425469455 445 -84 c 7
 445 -134 432.819094368 -164.880515375 419 -186 c 4
 396.752808989 -220 368.44138087 -241.377070309 329 -267 c 4xd6
EndSplineSet
Validated: 1
Substitution2: "smcp-1" eng.smcp
Substitution2: "case-1" Eng
Substitution2: "pcap-1" eng.pcap
EndChar

StartChar: Eng
Encoding: 330 330 468
Width: 836
VWidth: 1159
Flags: W
HStem: -241 62<483.653 578.44> -10 44<23.3182 86.8179 186.794 270.067> 655 39<771.217 833> 663 38<601.079 678.507>
VStem: 97 55<66.5393 314.07> 105 56<351.62 550> 676.266 70.7344<-86.2532 70.0219>
LayerCount: 2
Fore
SplineSet
628 -189 m 0xe6
 589 -216 552 -241 493 -241 c 3
 461 -241 411 -230 386 -208 c 1
 387.224489796 -178.046875 386 -178.046875 446 -137 c 1
 485 -155 508.349151158 -179 554 -179 c 3
 640.616503398 -179 676.265625 -76.9678502479 676.265625 -13.4755859375 c 3
 676.265625 48.2626834417 640.03404243 103.097021502 604 139.090820312 c 0
 459.896 279.614068929 313.026 416.065410818 161 550 c 1xe6
 152 154 l 2
 149.672574689 52.4216563039 186 44.674796748 277 35 c 1
 269 -11 l 1
 229.225006617 -2.55029543162 191.72886241 0.193359375 156.584960938 0.193359375 c 0
 107.789937357 0.193359375 63.5294692282 -6.59829339283 24 -10 c 1
 19 34 l 1
 77 34 94.2505340003 45.0370931165 97 93 c 0xea
 106 246.782786885 108.836453881 409.412965035 105 571 c 0
 104 614 69 649 12 648 c 1
 14 692 l 1
 53 688 104.987806691 684 146 684 c 0
 161 684 162.224003945 680.217054625 169 673 c 0
 318.792 516.927864326 473.300161891 367.004316767 636 223.227539062 c 0
 659.155 202.310678333 682.86 176.9488472 699 154 c 1
 708 281.98180798 710.135155394 409.964631854 709 545 c 0
 708 667 656 656 597 663 c 1
 602 701 l 1xd6
 658.737273127 693.806776525 706.285370634 691.3984375 751.0625 691.3984375 c 0
 778.931628397 691.3984375 805.747514379 692.483615703 833 694 c 1
 837 655 l 1
 788 649 766.708243919 651.026764413 763 609 c 0
 748 442.189493433 745 264.596148366 745 86 c 0
 745 63 747 43 747 0 c 3
 747 -86.94 692.388915009 -144.42305884 628 -189 c 0xe6
EndSplineSet
Validated: 33
Position2: "cpsp-1" dx=0 dy=0 dh=50 dv=100
Substitution2: "c2pc-1" eng.pcap
Substitution2: "c2sc-1" eng.smcp
EndChar

StartChar: acutecombhigh
Encoding: 58080 58080 470
Width: 0
VWidth: 1159
Flags: W
AnchorPoint: "Top" -198.5 410 mark 0
LayerCount: 2
Back
SplineSet
-227.6796875 446.891601562 m 21
 -188.375976562 476.120117188 -115.17578125 516.365234375 -62.9033203125 534.533203125 c 13
 -62.9033203125 534.533203125 -49.17578125 516.229492188 -39.3359375 493.623046875 c 5
 -95.12890625 486.110351562 -156.823242188 466.793945312 -220.815429688 434.59375 c 13
 -227.6796875 446.891601562 l 21
EndSplineSet
Fore
Refer: 92 769 N 0.914583 -0.327381 0.228126 0.902396 -122.272 -27.7606 2
Validated: 1
EndChar

StartChar: circumcombhigh
Encoding: 58081 58081 471
Width: 0
VWidth: 1159
Flags: W
HStem: 450.319 133.361
VStem: -323.78 252.561
LayerCount: 2
Fore
SplineSet
-71.2197 465.56 m 1
 -93.3955 450.319 l 1
 -197.5 518.507 l 1
 -301.604 450.319 l 1
 -323.78 465.56 l 1
 -215.364 583.681 l 1
 -179.636 583.681 l 1
 -71.2197 465.56 l 1
EndSplineSet
Validated: 1
EndChar

StartChar: gravecombhigh
Encoding: 58082 58082 472
Width: 0
VWidth: 1159
Flags: W
LayerCount: 2
Back
SplineSet
-149.356445312 493.592773438 m 9
 -154.442382812 480.459960938 l 17
 -222.29296875 503.44140625 -286.075195312 513.982421875 -342.37109375 513.657226562 c 1
 -335.7734375 537.4140625 -324.7265625 557.44921875 -324.7265625 557.44921875 c 17
 -270.434570312 546.732421875 -192.345703125 517.067382812 -149.356445312 493.592773438 c 9
EndSplineSet
Fore
Refer: 94 768 N 0.86012 0.45148 -0.351495 0.861865 155.508 189.031 2
Validated: 1
EndChar

StartChar: a.pcap
Encoding: 57347 57347 643
Width: 425
VWidth: 657
Flags: HW
AnchorPoint: "Top" 219.963 489 basechar 0
LayerCount: 2
Fore
SplineSet
143.658203125 152.256835938 m 1
 166.760742188 147.873046875 228.293945312 148.784179688 252.259765625 149.141601562 c 1
 234.357421875 196.650390625 218.28515625 235.573242188 195.754882812 282.887695312 c 1
 188.006835938 265.853515625 160.5703125 194.850585938 143.658203125 152.256835938 c 1
259.471679688 -4.4736328125 m 1
 259.471679688 -4.4736328125 255.473632812 8.009765625 253.432617188 15.357421875 c 1
 279.389648438 18.625 292.6328125 27.8291015625 288.333984375 44.2890625 c 0
 280.83203125 74.24609375 270.934570312 95.013671875 261.342773438 123.435546875 c 1
 231.176757812 129.916015625 167.497070312 132.1015625 135.071289062 129.077148438 c 1
 123.00390625 100.045898438 112.938476562 82.4150390625 105.403320312 54.2529296875 c 0
 99.7470703125 32.0830078125 121.645507812 19.5087890625 156.688476562 14.0341796875 c 1
 154.732421875 -5.958984375 l 1
 131.793945312 -2.5185546875 95.4580078125 -0.056640625 63.751953125 -0.056640625 c 3
 48.3212890625 -0.056640625 33.9990234375 -0.73046875 22.9189453125 -2.2451171875 c 1
 22.9189453125 -2.2451171875 21.1669921875 9.92578125 20.962890625 16.404296875 c 1
 52.705078125 21.65625 62.1572265625 39.6064453125 66.583984375 49.265625 c 0
 104.068359375 131.627929688 166.1640625 278.780273438 203.504882812 373.689453125 c 0
 206.047851562 380.456054688 208.674804688 389.806640625 210.075195312 402.825195312 c 1
 229.948242188 402.201171875 l 1
 230.861328125 392.50390625 232.629882812 382.479492188 234.958007812 375.505859375 c 0
 273.525390625 254.04296875 322.35546875 119.838867188 363.8203125 37.4560546875 c 0
 372.899414062 19.689453125 389.788085938 16.81640625 404 15.26171875 c 1
 404 15.26171875 402.865234375 3.5791015625 402.35546875 -2.5439453125 c 1
 384.946289062 -1.36328125 362.411132812 -0.5849609375 339.623046875 -0.5849609375 c 3
 309.014648438 -0.5849609375 277.955078125 -1.677734375 259.471679688 -4.4736328125 c 1
EndSplineSet
EndChar

StartChar: b.pcap
Encoding: 57348 57348 644
Width: 380
VWidth: 657
Flags: HW
AnchorPoint: "Top" 183.699 489 basechar 0
LayerCount: 2
Fore
SplineSet
41.6064453125 13.84765625 m 1
 60.564453125 14.1591796875 90.453125 18.126953125 91.7001953125 47.52734375 c 0
 93.259765625 68.95703125 95.1025390625 142.014648438 95.1025390625 207.266601562 c 3
 95.1025390625 268.958984375 91.2734375 326.158203125 90.396484375 332.4609375 c 0
 89.34375 350.848632812 84.5849609375 368.85546875 68.716796875 373.903320312 c 0
 64.4365234375 375.418945312 47.2099609375 378.676757812 41.642578125 379.346679688 c 1
 43.8173828125 396.106445312 l 1
 54.671875 394.858398438 82.701171875 390.180664062 107.577148438 390.180664062 c 3
 138.624023438 390.180664062 163.420898438 395.227539062 193.987304688 395.227539062 c 3
 266.5 395.227539062 310.194335938 347.927734375 310.194335938 299.772460938 c 3
 310.194335938 259.041992188 281.58203125 229.055664062 224.4921875 214.087890625 c 1
 286.00390625 205.833984375 346 162.029296875 346 103.477539062 c 3
 346 28.837890625 276.627929688 -2.8349609375 198.948242188 -2.8349609375 c 3
 162.94921875 -2.8349609375 140.361328125 -0.2177734375 109.844726562 -0.056640625 c 0
 79.1845703125 -0.056640625 56.9990234375 -1.0771484375 42.9384765625 -2.63671875 c 1
 41.6064453125 13.84765625 l 1
191.180664062 218.578125 m 0
 219.961914062 224.236328125 246.51953125 246.999023438 246.51953125 287.270507812 c 3
 246.51953125 338.022460938 218.197265625 376.454101562 179.557617188 376.454101562 c 3
 173.86328125 376.454101562 168.13671875 376.6015625 164.532226562 374.640625 c 0
 161.204101562 372.623046875 157.978515625 366.150390625 157.047851562 354.483398438 c 0
 154.653320312 328.908203125 152.709960938 232.725585938 153.333984375 216.197265625 c 1
 170.318359375 216.197265625 180.129882812 216.775390625 191.180664062 218.578125 c 0
200.961914062 197.65625 m 0
 189.422851562 200.462890625 174.142578125 200.462890625 152.3125 200.462890625 c 1
 152.51171875 142.743164062 153.02734375 86.416015625 153.84375 57.833984375 c 0
 154.516601562 40.5810546875 156.010742188 24.3671875 164.106445312 22.033203125 c 0
 170.51953125 18.1455078125 183.44140625 16.7880859375 197.927734375 16.7880859375 c 3
 245.455078125 16.7880859375 278.75390625 46.458984375 278.75390625 99.1396484375 c 3
 278.75390625 147.080078125 253.845703125 191.418945312 200.961914062 197.65625 c 0
EndSplineSet
EndChar

StartChar: c.pcap
Encoding: 57349 57349 645
Width: 446
VWidth: 657
Flags: HW
AnchorPoint: "Top" 259.77 489 basechar 0
LayerCount: 2
Fore
SplineSet
39.1279296875 194.282226562 m 3
 39.1279296875 336.262695312 151.450195312 403.534179688 265.077148438 403.534179688 c 3
 305.611328125 403.534179688 329.891601562 395.037109375 358.88671875 385.474609375 c 0
 377.95703125 378.921875 379.748046875 389.629882812 391.453125 391.521484375 c 1
 403 384.879882812 l 1
 388.67578125 359.491210938 385.819335938 335.763671875 384.260742188 313.783203125 c 0
 383.948242188 298.587890625 384.5078125 297.822265625 366.306640625 299.069335938 c 1
 365.444335938 321.038085938 357.634765625 334.705078125 336.263671875 351.375976562 c 0
 316.958984375 367.2265625 284.141601562 379.889648438 252.630859375 379.889648438 c 3
 172.418945312 379.889648438 113.630859375 317.978515625 113.630859375 207.607421875 c 3
 113.630859375 80.5771484375 204.36328125 17.123046875 270.236328125 17.123046875 c 3
 324.525390625 17.123046875 363.422851562 61.22265625 388.37109375 103.5625 c 1
 402.57421875 99.3095703125 l 1
 397.154296875 71.8583984375 389.21875 48.4306640625 382.3046875 18.7958984375 c 1
 344.26171875 5.6142578125 301.370117188 -6.2939453125 256.543945312 -6.2939453125 c 3
 135.857421875 -6.2939453125 39.1279296875 78.486328125 39.1279296875 194.282226562 c 3
EndSplineSet
EndChar

StartChar: d.pcap
Encoding: 57350 57350 646
Width: 490
VWidth: 657
Flags: HW
AnchorPoint: "Top" 226.526 489 basechar 0
LayerCount: 2
Fore
SplineSet
221.948242188 18.3759765625 m 1
 328.78125 18.3759765625 390.120117188 90.2158203125 390.120117188 198.421875 c 3
 390.120117188 316.240234375 307.3046875 382.626953125 213.528320312 382.626953125 c 3
 191.961914062 382.626953125 174.80078125 378.573242188 166.934570312 375.23046875 c 0
 157.3671875 372.477539062 153.666992188 357.483398438 153.35546875 352.805664062 c 0
 149.557617188 301.727539062 148.827148438 207.095703125 148.827148438 131.548828125 c 3
 148.827148438 99.1201171875 149.455078125 67.1162109375 151.498046875 49.0791015625 c 0
 151.810546875 41.0556640625 157.75 32.216796875 167.090820312 29.03515625 c 0
 180.524414062 24.5654296875 200.1953125 18.3759765625 221.948242188 18.3759765625 c 1
38.75 396.587890625 m 1
 57.1142578125 394.944335938 72.01171875 392.90234375 101.290039062 392.90234375 c 3
 133.770507812 392.90234375 182.2109375 400.188476562 225.60546875 400.188476562 c 3
 349.115234375 400.188476562 460.342773438 329.866210938 460.342773438 200.40625 c 3
 460.342773438 44.7705078125 325.102539062 -2.1259765625 227.27734375 -2.1259765625 c 3
 180.330078125 -2.1259765625 156.546875 3.0615234375 114.926757812 3.0615234375 c 3
 79.9921875 3.0615234375 55.7109375 0.396484375 36.255859375 -2.267578125 c 1
 36 15.9248046875 l 1
 56.4267578125 17.2314453125 82.4404296875 19.0625 84.5634765625 46.6279296875 c 1
 87.6767578125 71.392578125 89.9677734375 140.255859375 89.9677734375 198.494140625 c 3
 89.9677734375 262.08203125 87.0986328125 326.637695312 83.0048828125 353.228515625 c 1
 80.6728515625 373.10546875 62.77734375 376.893554688 37.927734375 377.552734375 c 1
 38.75 396.587890625 l 1
EndSplineSet
EndChar

StartChar: e.pcap
Encoding: 57351 57351 647
Width: 426
VWidth: 657
Flags: HW
AnchorPoint: "Top" 212.921 489 basechar 0
LayerCount: 2
Fore
SplineSet
46.5546875 393.809570312 m 1
 98.884765625 391.83203125 136.545898438 391.006835938 184.233398438 391.006835938 c 3
 268.932617188 391.006835938 331.797851562 393.478515625 348.765625 396.587890625 c 1
 353.548828125 392.96875 355.328125 391.250976562 355.328125 387.370117188 c 3
 355.328125 379.709960938 349.600585938 363.401367188 344.825195312 307.9375 c 1
 328.18359375 306.71875 l 1
 328.920898438 325.146484375 327.6796875 346.271484375 315.823242188 353.411132812 c 0
 296.100585938 365.548828125 261.591796875 373.739257812 228.45703125 373.739257812 c 3
 206.098632812 373.739257812 184.279296875 371.530273438 168.375 367.72265625 c 0
 164.9453125 366.913085938 161.34375 356.206054688 160.918945312 353.802734375 c 0
 156.694335938 320.19921875 153.661132812 246.012695312 153.150390625 211.078125 c 1
 178.142578125 211.475585938 258.598632812 214.081054688 277.494140625 216.791992188 c 0
 295.649414062 220.625 305.391601562 251.1328125 309.94140625 261.954101562 c 1
 324.469726562 257.7578125 l 1
 321.399414062 240.572265625 320.086914062 218.599609375 320.086914062 196.672851562 c 3
 320.086914062 175.165039062 321.450195312 153.696289062 323.647460938 135.91015625 c 1
 307.163085938 131.004882812 l 1
 301.366210938 162.284179688 296.819335938 180.44140625 276.24609375 186.4296875 c 0
 242.96484375 193.346679688 189.575195312 193.212890625 153.150390625 193.099609375 c 1
 152.640625 149.432617188 154.3125 77.0810546875 161.826171875 45.7333984375 c 0
 163.193359375 40.5146484375 168.293945312 31.61328125 169.876953125 31.0771484375 c 0
 180.358398438 25.0947265625 203.754882812 21.1767578125 230.260742188 21.1767578125 c 1
 257.256835938 21.1767578125 293.393554688 30.6826171875 314.235351562 45.8701171875 c 0
 337.1640625 61.5703125 349.19140625 77.791015625 367.278320312 102.853515625 c 1
 381 98.94140625 l 1
 371.38671875 64.6708984375 359.490234375 25.5087890625 352.762695312 -0.33984375 c 1
 296.357421875 0.36328125 252.924804688 3.103515625 194.9609375 3.103515625 c 3
 135.1484375 3.103515625 88.810546875 1.08203125 44.966796875 -5.8681640625 c 1
 40.458984375 9.751953125 l 1
 65.701171875 16.1923828125 87.6904296875 21.787109375 89.25 41.33984375 c 1
 93.681640625 85.4267578125 95.720703125 127.297851562 95.720703125 186.60546875 c 3
 95.720703125 249.737304688 93.91015625 304.12109375 90.7236328125 351.365234375 c 0
 89.58984375 371.00390625 76.2607421875 371.436523438 44.0029296875 379.748046875 c 1
 46.5546875 393.809570312 l 1
EndSplineSet
EndChar

StartChar: f.pcap
Encoding: 57352 57352 648
Width: 382
VWidth: 657
Flags: HW
AnchorPoint: "Top" 198.349 489 basechar 0
LayerCount: 2
Fore
SplineSet
230.001953125 -5.5283203125 m 1
 200.413085938 -1.7607421875 170.133789062 -0.2236328125 139.442382812 -0.2236328125 c 1
 110.766601562 -0.2236328125 81.6337890625 -1.49609375 45.046875 -3.033203125 c 1
 42.5234375 10.8193359375 l 1
 73.4248046875 13.201171875 88.84765625 25.3349609375 90.4072265625 51.841796875 c 1
 93.3583984375 80.6767578125 95.080078125 133.208984375 95.080078125 180.415039062 c 3
 95.080078125 240.26171875 92.638671875 315.319335938 89.8115234375 345.728515625 c 0
 87.7421875 366.650390625 79.7470703125 371.952148438 40 378.840820312 c 1
 41.021484375 394.461914062 l 1
 99.0458984375 392.389648438 153.987304688 390.920898438 199.26953125 390.920898438 c 3
 270.125 390.920898438 330.8203125 395.373046875 339.575195312 401.946289062 c 1
 343.075195312 398.536132812 344.703125 398.249023438 344.703125 390.6015625 c 1
 344.703125 380.197265625 340.5078125 361.244140625 339.291015625 295.690429688 c 1
 324.422851562 295.094726562 l 1
 320.340820312 311.283203125 312.5859375 344.1640625 298.126953125 354.681640625 c 0
 268.331054688 373.109375 218.83203125 373.705078125 168.3125 369.848632812 c 0
 160.629882812 368.828125 158.985351562 359.217773438 158.73046875 354.540039062 c 0
 154.818359375 314.708007812 155.016601562 250.930664062 154.704101562 208.6328125 c 1
 201.822265625 207.287109375 250.783203125 211.377929688 254.127929688 211.6328125 c 0
 272.158203125 214.807617188 282.217773438 229.266601562 287.037109375 259.884765625 c 1
 302.889648438 257.672851562 l 1
 301.047851562 245.58984375 300.048828125 224.076171875 300.048828125 201.8515625 c 1
 300.048828125 175.467773438 301.500976562 148.369140625 304.817382812 130.211914062 c 1
 287.008789062 127.149414062 l 1
 281.877929688 167.1796875 275.50390625 172.198242188 254.127929688 180.646484375 c 0
 229.9453125 186.627929688 191.219726562 188.053710938 154.505859375 189.810546875 c 1
 154.790039062 144.053710938 153.826171875 85.181640625 160.147460938 48.9501953125 c 0
 161.16796875 25.9013671875 190.963867188 11.896484375 231.759765625 11.2724609375 c 1
 230.001953125 -5.5283203125 l 1
EndSplineSet
EndChar

StartChar: g.pcap
Encoding: 57353 57353 649
Width: 489
VWidth: 657
Flags: HW
AnchorPoint: "Top" 272.013 489 basechar 0
LayerCount: 2
Fore
SplineSet
39.15625 201.909179688 m 3
 39.15625 340.610351562 177.731445312 403.590820312 274.3203125 403.590820312 c 3
 318.296875 403.590820312 345.044921875 393.521484375 370.4609375 390.40234375 c 0
 380.846679688 388.53125 380.50390625 392.446289062 386.032226562 401.463867188 c 1
 400.23046875 398.686523438 l 1
 400.23046875 390.578125 406.430664062 316.924804688 410.172851562 303.827148438 c 1
 394.495117188 299.715820312 l 1
 364.756835938 345.01953125 318.959960938 384.655273438 253.41015625 384.655273438 c 3
 144.744140625 384.655273438 110.740234375 277 110.740234375 206.813476562 c 3
 110.740234375 107.379882812 195.302734375 13.443359375 290.734375 13.443359375 c 3
 319.877929688 13.443359375 337.123046875 19.9912109375 348.994140625 31.01953125 c 0
 354.04296875 35.7099609375 357.419921875 51.23046875 357.612304688 58.0654296875 c 0
 357.923828125 69.140625 359.256835938 106.143554688 357.385742188 137.724609375 c 0
 356.76171875 160.26171875 342.388671875 171.659179688 318.064453125 177.811523438 c 0
 312.032226562 178.733398438 301.053710938 179.200195312 291.075195312 178.888671875 c 1
 291.896484375 196.266601562 l 1
 347.922851562 191.759765625 409.900390625 193.9140625 444.987304688 197.1171875 c 1
 447 182.4453125 l 1
 430.266601562 178.487304688 423.170898438 172.055664062 422.165039062 152.125976562 c 0
 420.833007812 115.620117188 419.294921875 81.9189453125 418.990234375 59.1943359375 c 0
 418.493164062 44.640625 423.811523438 45.0205078125 433.618164062 31.9404296875 c 1
 431.265625 18.541015625 l 1
 382.106445312 10.8212890625 310.948242188 -5.669921875 268.479492188 -5.669921875 c 3
 148.587890625 -5.669921875 39.15625 69.2373046875 39.15625 201.909179688 c 3
EndSplineSet
EndChar

StartChar: h.pcap
Encoding: 57354 57354 650
Width: 540
VWidth: 657
Flags: HW
AnchorPoint: "Top" 274.003 489 basechar 0
LayerCount: 2
Fore
SplineSet
40.6474609375 396.84375 m 1
 75.1044921875 395.3125 103.607421875 392.649414062 137.346679688 392.649414062 c 1
 157.379882812 392.649414062 179.052734375 393.563476562 204.2265625 395.510742188 c 1
 205.10546875 379.139648438 l 1
 186.517578125 377.892578125 160.051757812 371.471679688 158.866210938 363.134765625 c 0
 152.629882812 329.568359375 152.345703125 262.760742188 151.466796875 208.555664062 c 1
 270.416015625 204.983398438 337.100585938 210.653320312 393.40625 208.8671875 c 1
 392.583984375 245.41015625 394.96484375 299.715820312 388.076171875 349.044921875 c 0
 385.0546875 371.84375 359.7890625 381.634765625 340.81640625 383.052734375 c 1
 342.0078125 398.40234375 l 1
 373.00390625 395.275390625 397.3828125 393.393554688 420.68359375 393.393554688 c 1
 445.475585938 393.393554688 469.5546875 395.452148438 499.123046875 400.188476562 c 1
 500.512695312 384.271484375 l 1
 475.762695312 383.209960938 461.438476562 374.227539062 460.11328125 353.297851562 c 0
 455.099609375 292.09765625 453.40234375 200.69140625 453.40234375 130.451171875 c 3
 453.40234375 93.5927734375 455.0546875 57.4521484375 459.801757812 36.4423828125 c 0
 465.641601562 15.06640625 481.974609375 12.7138671875 500.9375 11.6083984375 c 1
 500.9375 11.6083984375 501.391601562 2.154296875 499.860351562 -4.9892578125 c 1
 476.922851562 -1.4765625 453.583007812 0.408203125 429.508789062 0.408203125 c 1
 402.870117188 0.408203125 375.431640625 -1.533203125 346.827148438 -7.201171875 c 1
 346.827148438 -7.201171875 344.814453125 4.4072265625 343.538085938 10.5302734375 c 1
 367.447265625 13.84765625 387.984375 19.7353515625 389.096679688 40.2978515625 c 0
 392.895507812 87.642578125 394.029296875 141.169921875 393.40625 186.728515625 c 1
 359.525390625 189.280273438 223.3046875 189.393554688 151.155273438 187.352539062 c 1
 150.53125 146.868164062 151.762695312 58.26953125 153.8203125 38.341796875 c 0
 154.93359375 17.759765625 187.036132812 12.9404296875 204.198242188 11.0693359375 c 1
 204.198242188 11.0693359375 203.0078125 0.396484375 202.751953125 -6.7470703125 c 1
 173.436523438 -1.9453125 146.784179688 0.3037109375 120.170898438 0.3037109375 c 1
 94.1796875 0.3037109375 68.11328125 -1.6728515625 40.4765625 -5.61328125 c 1
 40.4765625 -5.61328125 39.2861328125 4.1806640625 38.7763671875 12.3447265625 c 1
 59.0546875 14.017578125 81.072265625 18.447265625 82.6904296875 36.8681640625 c 0
 88.0908203125 102.044921875 88.693359375 180.879882812 88.693359375 248.874023438 c 3
 88.693359375 294.159179688 86.7265625 336.8359375 82.9169921875 355.310546875 c 0
 78.52734375 373.625 59.8017578125 380.046875 40.3916015625 379.338867188 c 1
 40.6474609375 396.84375 l 1
EndSplineSet
EndChar

StartChar: i.pcap
Encoding: 57355 57355 651
Width: 279
VWidth: 657
Flags: HW
AnchorPoint: "Top" 143.375 489 basechar 0
LayerCount: 2
Fore
SplineSet
53.68359375 399.0546875 m 1
 82.9443359375 395.416992188 110.670898438 393.771484375 138.671875 393.771484375 c 3
 167.966796875 393.771484375 197.515625 395.493164062 228.178710938 398.600585938 c 1
 229 379.48828125 l 1
 207.567382812 378.920898438 186.702148438 376.346679688 180.323242188 351.766601562 c 0
 174.8828125 330.631835938 171.068359375 246.470703125 171.068359375 171.640625 c 3
 171.068359375 129.435546875 172.310546875 85.234375 176.15625 47.146484375 c 0
 178.8046875 20.912109375 198.872070312 15.8837890625 229.036132812 14.904296875 c 1
 228.78125 -3.5439453125 l 1
 201.627929688 -1.58203125 165.873046875 -0.1494140625 132.240234375 -0.1494140625 c 3
 103.010742188 -0.1494140625 74.64453125 -1.2880859375 52.3798828125 -4.1103515625 c 1
 50.2822265625 13.783203125 l 1
 76.7607421875 14.6416015625 106.5 16.783203125 109.845703125 55.3671875 c 0
 113.278320312 93.099609375 115.453125 145.5234375 115.453125 196.4609375 c 3
 115.453125 257.85546875 112.435546875 317.118164062 106.7265625 348.421875 c 0
 102.490234375 377.126953125 77.158203125 379.403320312 52.0400390625 380.565429688 c 1
 53.68359375 399.0546875 l 1
EndSplineSet
EndChar

StartChar: j.pcap
Encoding: 57356 57356 652
Width: 272
VWidth: 707
Flags: HW
AnchorPoint: "Top" 146.122 489 basechar 0
LayerCount: 2
Fore
SplineSet
106.654296875 351.173828125 m 0
 100.62890625 379.825195312 83.1806640625 379.920898438 50.974609375 383.010742188 c 1
 52.3076171875 399.536132812 l 1
 83.33203125 396.467773438 113.881835938 395.154296875 144.165039062 395.154296875 c 3
 170.749023438 395.154296875 200.0234375 396.04296875 226.489257812 397.977539062 c 1
 227 379.296875 l 1
 206.729492188 378.84375 182.518554688 379.0703125 179.626953125 352.506835938 c 0
 172.223632812 301.3203125 171.944335938 216.982421875 171.6328125 119.778320312 c 1
 171.6328125 52.4189453125 176.3671875 7.5126953125 175.743164062 -34.275390625 c 1
 158.903320312 -69.384765625 128.25390625 -96.349609375 96.13671875 -118.219726562 c 0
 80.458984375 -129.077148438 63.8740234375 -136.603515625 50.5498046875 -140.446289062 c 1
 44.3125 -140.446289062 30.76171875 -122.415039062 30.1376953125 -118.985351562 c 1
 34.93359375 -113.038085938 59.8349609375 -101.854492188 65.490234375 -100.046875 c 1
 68.71484375 -100.490234375 77.396484375 -102.842773438 83.10546875 -101.92578125 c 1
 101.653320312 -87.3828125 110.169921875 -58.556640625 113.288085938 16.5849609375 c 1
 116.71875 88.361328125 114.591796875 310.72265625 106.654296875 351.173828125 c 0
EndSplineSet
EndChar

StartChar: k.pcap
Encoding: 57357 57357 653
Width: 472
VWidth: 657
Flags: HW
AnchorPoint: "Top" 221.018 489 basechar 0
LayerCount: 2
Back
SplineSet
259.3828125 391.825195312 m 5
 276.866210938 390.647460938 295.658203125 390.107421875 314.064453125 390.107421875 c 7
 342.338867188 390.107421875 369.08203125 391.78515625 385.483398438 394.546875 c 5
 389.735351562 377.807617188 l 5
 375.844726562 375.823242188 352.12890625 360.31640625 335.7578125 346.6640625 c 4
 284.5859375 305.528320312 237.696289062 255.447265625 195.254882812 211.547851562 c 5
 199.84765625 206.444335938 356.024414062 66.1201171875 365.893554688 57.8056640625 c 5
 389.545898438 38.0625 421.828125 18.8681640625 427.696289062 10.6748046875 c 5
 424.91796875 -3.3740234375 l 5
 414.34375 -2.2392578125 399.71484375 1.0205078125 379.161132812 1.0205078125 c 7
 342.001953125 1.0205078125 307.634765625 -1.927734375 292.098632812 -3.203125 c 5
 290.765625 11.35546875 l 5
 310.35546875 14.275390625 320.958984375 15.6494140625 307.435546875 35.6923828125 c 4
 264.55859375 77.4755859375 200.502929688 134.919921875 154.600585938 177.811523438 c 5
 154.856445312 133.01171875 156.90625 84.986328125 159.278320312 53.26953125 c 4
 161.704101562 23.583984375 178.432617188 17.1513671875 207.586914062 11 c 5
 206.56640625 -4.1103515625 l 5
 184.983398438 -2.2734375 137.802734375 1.291015625 98.072265625 1.291015625 c 7
 81.4033203125 1.291015625 65.353515625 0.4580078125 51.2080078125 -1.587890625 c 5
 50.130859375 15.0537109375 l 5
 71.478515625 15.791015625 87.1298828125 21.5 90.3876953125 51.9375 c 4
 95.8642578125 106.998046875 98.3876953125 166.217773438 98.3876953125 220.828125 c 7
 98.3876953125 260.780273438 96.6005859375 296.947265625 94.044921875 330.022460938 c 4
 91.1455078125 367.129882812 84.6044921875 372.037109375 51.37890625 377.905273438 c 5
 54.298828125 393.526367188 l 5
 76.12890625 391.727539062 97.4521484375 390.5 119.975585938 390.5 c 7
 145.784179688 390.5 172.565429688 391.828125 200.811523438 394.716796875 c 5
 202.200195312 379.209960938 l 5
 183.456054688 375.666015625 166.049804688 373.788085938 162.624023438 341.958007812 c 4
 158.825195312 307.15234375 154.913085938 253.927734375 154.600585938 197.854492188 c 5
 199.010742188 245.830078125 240.8046875 288.26953125 267.122070312 321.630859375 c 4
 275.971679688 333.172851562 285.380859375 349.453125 287.13671875 357.266601562 c 4
 289.637695312 368.939453125 275.361328125 376.5703125 259.750976562 377.694335938 c 5
 259.3828125 391.825195312 l 5
EndSplineSet
Fore
SplineSet
260.686523438 391.825195312 m 5
 278.169921875 390.647460938 296.961914062 390.107421875 315.368164062 390.107421875 c 7
 343.642578125 390.107421875 370.385742188 391.78515625 386.787109375 394.546875 c 5
 391.0390625 377.807617188 l 5
 377.1484375 375.823242188 353.621493539 360.086677398 337.061523438 346.6640625 c 4
 284.448477717 304.018777089 236.238260344 256.246702863 192.6015625 210.736328125 c 5
 197.298400793 205.788482239 361.104506156 65.8665059836 371.197265625 57.8056640625 c 5
 394.849609375 38.0625 437.131835938 18.8681640625 443 10.6748046875 c 5
 440.221679688 -3.3740234375 l 5
 429.647460938 -2.2392578125 415.018554688 1.0205078125 394.46484375 1.0205078125 c 7
 357.305664062 1.0205078125 322.938476562 -1.927734375 307.40234375 -3.203125 c 5
 306.069335938 11.35546875 l 5
 325.659179688 14.275390625 330.551397046 19.341503744 312.739257812 35.6923828125 c 4
 268.752182747 76.0708761253 203.038061334 132.550371504 155.947265625 174 c 5
 156.337890625 130.900390625 158.103353284 83.6024027496 160.58203125 53.26953125 c 4
 163.0078125 23.583984375 179.736328125 17.1513671875 208.890625 11 c 5
 207.870117188 -4.1103515625 l 5
 186.287109375 -2.2734375 139.106445312 1.291015625 99.3759765625 1.291015625 c 7
 82.70703125 1.291015625 66.6572265625 0.4580078125 52.51171875 -1.587890625 c 5
 51.4345703125 15.0537109375 l 5
 72.7822265625 15.791015625 88.6616178734 21.4764571595 91.69140625 51.9375 c 4
 97.16796875 106.998046875 99.69140625 166.217773438 99.69140625 220.828125 c 7
 99.69140625 260.780273438 97.9328129355 296.949481379 95.3486328125 330.022460938 c 4
 92.44921875 367.129882812 85.908203125 372.037109375 52.6826171875 377.905273438 c 5
 55.6025390625 393.526367188 l 5
 77.4326171875 391.727539062 98.755859375 390.5 121.279296875 390.5 c 7
 147.087890625 390.5 173.869140625 391.828125 202.115234375 394.716796875 c 5
 203.50390625 379.209960938 l 5
 184.759765625 375.666015625 167.401230805 373.782914304 163.927734375 341.958007812 c 4
 160.12890625 307.15234375 156.216796875 253.927734375 155.904296875 197.854492188 c 5
 200.314453125 245.830078125 242.57083892 287.909874671 268.42578125 321.630859375 c 4
 277.275390625 333.172851562 286.762673878 349.435982584 288.440429688 357.266601562 c 4
 290.94140625 368.939453125 276.665039062 376.5703125 261.0546875 377.694335938 c 5
 260.686523438 391.825195312 l 5
EndSplineSet
EndChar

StartChar: l.pcap
Encoding: 57358 57358 654
Width: 383
VWidth: 657
Flags: HW
AnchorPoint: "Top" 146.241 489 basechar 0
LayerCount: 2
Fore
SplineSet
202.91796875 396.361328125 m 1
 204.5625 377.766601562 l 1
 162.453125 371.611328125 156.059570312 367.9375 153.27734375 331.329101562 c 0
 148.697265625 267.321289062 145.629882812 143.331054688 148.571289062 57.5810546875 c 0
 149.034179688 43.232421875 153.795898438 25.58203125 187.694335938 23.759765625 c 0
 208.470703125 22.9658203125 230.291015625 22.78125 244.0546875 24.2705078125 c 0
 318.55078125 32.86328125 341.694335938 59.1591796875 353.71484375 97.71484375 c 1
 368 93.923828125 l 1
 365.547851562 64.802734375 352.833007812 29.0302734375 342.202148438 -10.8583984375 c 1
 324.029296875 -3.5439453125 308.276367188 -0.6708984375 285.8984375 -1.2470703125 c 0
 261.569335938 -1.1103515625 202.379882812 0.5107421875 148.288085938 0.5107421875 c 1
 73.16015625 0.5107421875 45.51953125 -1.7861328125 40.841796875 -1.7861328125 c 1
 39.0556640625 13.8525390625 l 1
 70.8359375 18.423828125 82.572265625 24.98828125 82.884765625 48.751953125 c 0
 83.1962890625 68.3876953125 85.15234375 118.500976562 85.46484375 169.788085938 c 1
 86.087890625 240.428710938 84.2548828125 314.598632812 82.0908203125 345.249023438 c 0
 80.4462890625 368.55078125 66.810546875 374.106445312 40.841796875 376.291992188 c 1
 42.4853515625 395.879882812 l 1
 67.9404296875 392.151367188 91.427734375 390.705078125 112.987304688 390.705078125 c 3
 146.635742188 390.705078125 175.654296875 393.15625 202.91796875 396.361328125 c 1
EndSplineSet
EndChar

StartChar: m.pcap
Encoding: 57359 57359 655
Width: 589
VWidth: 657
Flags: HW
AnchorPoint: "Top" 307.639 489 basechar 0
LayerCount: 2
Back
SplineSet
560.879882812 -0.056640625 m 5
 540.681640625 2.3359375 519.915039062 3.5986328125 498.680664062 3.5986328125 c 7
 461.416015625 3.5986328125 435.184570312 1.4873046875 402.090820312 -2.693359375 c 5
 399.936523438 16.8115234375 l 5
 425.961914062 20.6669921875 448.61328125 42.6669921875 449.37890625 90.8046875 c 4
 452.0546875 167.037109375 449.776367188 250.133789062 443.9921875 300.6796875 c 5
 398.780273438 228.548828125 355.077148438 146.96484375 326.7265625 80.9814453125 c 4
 313.618164062 52.08984375 307.181640625 27.2421875 301.704101562 2.2958984375 c 5
 283.672851562 2.2958984375 l 5
 279.458984375 37.6533203125 270.420898438 62.7021484375 258.32421875 87.0205078125 c 5
 237.995117188 130.077148438 163.349609375 264.462890625 143.255859375 305.102539062 c 5
 132.936523438 254.693359375 126.794921875 153.866210938 127.91796875 86.126953125 c 4
 129.424804688 27.59375 148.168945312 19.419921875 185.383789062 16.61328125 c 5
 183.286132812 -5.3583984375 l 5
 153.920898438 -2.216796875 126.342773438 -0.5625 99.74609375 -0.5625 c 7
 74.9521484375 -0.5625 51.802734375 -2.05078125 27.701171875 -4.734375 c 5
 26.5673828125 15.9892578125 l 5
 71.0478515625 17.123046875 89.6162109375 41.2783203125 92.6796875 82.3564453125 c 5
 92.9912109375 87.0341796875 106.65625 284.946289062 106.34375 293.053710938 c 5
 106.685546875 319.681640625 101.249023438 335.43359375 91.3896484375 351.109375 c 4
 79.4326171875 366.623046875 62.8896484375 369.94921875 28.580078125 373.766601562 c 5
 32.4638671875 396.64453125 l 5
 74.5576171875 392.82421875 124.142578125 389.006835938 165.056640625 391.825195312 c 5
 175.48828125 392.418945312 174.620117188 385.333007812 177.086914062 377.282226562 c 4
 196.315429688 318.956054688 255.9921875 203.87890625 311.399414062 120.005859375 c 5
 346.327148438 186.4296875 448.811523438 378.018554688 451.930664062 387.686523438 c 4
 453.517578125 391.541992188 456.771484375 394.084960938 460.15234375 393.5546875 c 4
 493.036132812 390.124023438 527.21875 391.45703125 557.987304688 393.043945312 c 5
 559.263671875 372.263671875 l 5
 521.700195312 372.859375 506.838867188 362.993164062 504.547851562 316.83984375 c 4
 501.60546875 265.241210938 504.174804688 186.27734375 509.083984375 85.021484375 c 4
 512.092773438 30.419921875 530.637695312 20.35546875 561.134765625 22.623046875 c 5
 560.879882812 -0.056640625 l 5
EndSplineSet
Fore
SplineSet
561.745117188 -0.056640625 m 1
 541.546875 2.3359375 520.780273438 3.5986328125 499.545898438 3.5986328125 c 3
 462.28125 3.5986328125 436.049804688 1.4873046875 402.956054688 -2.693359375 c 1
 400.801757812 12.8115234375 l 1
 426.827148438 16.6669921875 449.478515625 38.6669921875 450.244140625 86.8046875 c 0
 452.919921875 163.037109375 450.641601562 258.133789062 444.857421875 308.6796875 c 1
 399.645507812 236.548828125 355.942382812 154.96484375 327.591796875 88.9814453125 c 0
 314.483398438 60.08984375 307.046875 27.2421875 300.569335938 2.2958984375 c 1
 286.538085938 2.2958984375 l 1
 280.32421875 37.6533203125 271.286132812 62.7021484375 259.189453125 87.0205078125 c 1
 238.860351562 130.077148438 161.21484375 270.462890625 141.12109375 311.102539062 c 1
 130.801757812 260.693359375 123.66015625 149.866210938 124.783203125 82.126953125 c 0
 126.290039062 23.59375 149.034179688 15.419921875 186.249023438 12.61328125 c 1
 184.151367188 -5.3583984375 l 1
 154.786132812 -2.216796875 127.208007812 -0.5625 100.611328125 -0.5625 c 3
 75.8173828125 -0.5625 52.66796875 -2.05078125 28.56640625 -4.734375 c 1
 27.4326171875 11.9892578125 l 1
 71.9130859375 13.123046875 90.4814453125 37.2783203125 93.544921875 78.3564453125 c 1
 93.8564453125 83.0341796875 107.521484375 284.946289062 107.208984375 293.053710938 c 1
 107.55078125 319.681640625 103.114257812 340.43359375 93.2548828125 356.109375 c 0
 81.2978515625 371.623046875 64.7548828125 374.94921875 30.4453125 378.766601562 c 1
 33.3291015625 396.64453125 l 1
 75.4228515625 392.82421875 125.0078125 389.006835938 165.921875 391.825195312 c 1
 176.353515625 392.418945312 175.485351562 385.333007812 177.952148438 377.282226562 c 0
 197.180664062 318.956054688 256.857421875 203.87890625 312.264648438 120.005859375 c 1
 347.192382812 186.4296875 449.676757812 378.018554688 452.795898438 387.686523438 c 0
 454.3828125 391.541992188 457.63671875 394.084960938 461.017578125 393.5546875 c 0
 493.901367188 390.124023438 528.083984375 391.45703125 558.852539062 393.043945312 c 1
 560.12890625 376.263671875 l 1
 522.565429688 376.859375 507.704101562 366.993164062 505.413085938 320.83984375 c 0
 502.470703125 269.241210938 505.040039062 182.27734375 509.94921875 81.021484375 c 0
 512.958007812 26.419921875 531.502929688 19.35546875 562 18.623046875 c 1
 561.745117188 -0.056640625 l 1
EndSplineSet
EndChar

